%FSTAX23Y23*%
%MOIN*%
%SFA1B1*%

%IPPOS*%
%ADD10R,0.050000X0.185000*%
%ADD11R,0.031000X0.037000*%
%ADD12R,0.043000X0.067000*%
%ADD13O,0.098000X0.028000*%
%ADD14R,0.020000X0.035000*%
%ADD15R,0.037000X0.031000*%
%ADD16R,0.081000X0.016000*%
%ADD17R,0.035000X0.020000*%
%ADD18R,0.067000X0.043000*%
%ADD19O,0.057000X0.022000*%
%ADD20O,0.022000X0.057000*%
%ADD21O,0.028000X0.098000*%
%ADD22R,0.200000X0.160000*%
%ADD23R,0.200000X0.150000*%
%LNseniordesign-1*%
%LPD*%
G54D10*
X02093Y02957D03*
X02193D03*
X02293D03*
X02393D03*
X02493D03*
X02593D03*
X02693D03*
X02793D03*
X02893D03*
X02993D03*
X03093D03*
X03193D03*
X03293D03*
X03393D03*
X03493D03*
X03593D03*
X03693D03*
X03793D03*
X03893D03*
X03993D03*
X04093D03*
X04193D03*
X04493D03*
X04593D03*
X04693D03*
X04793D03*
X04893D03*
X04993D03*
X05093D03*
X05193D03*
X05293D03*
X05393D03*
X05493D03*
G54D11*
X0235Y0456D03*
X02412D03*
X02414Y04138D03*
X02352D03*
X04059Y04571D03*
X03997D03*
X04069Y04186D03*
X04007D03*
X0375Y03407D03*
X03688D03*
X02629Y03404D03*
X02567D03*
X03516Y03414D03*
X03578D03*
X0386Y03409D03*
X03922D03*
X02383Y03404D03*
X02445D03*
X02743Y03399D03*
X02805D03*
X03691Y03286D03*
X03753D03*
X02568Y03297D03*
X0263D03*
X03502Y04006D03*
X03564D03*
X03857Y0401D03*
X03919D03*
X02387Y04012D03*
X02449D03*
X02744Y04014D03*
X02806D03*
X03757Y0401D03*
X03695D03*
X02621Y03999D03*
X02559D03*
X02158Y04898D03*
X0222D03*
X02163Y04793D03*
X02225D03*
X04838Y03894D03*
X049D03*
X04664Y03446D03*
X04726D03*
X04832D03*
X04894D03*
X05035Y03447D03*
X04973D03*
X02161Y04688D03*
X02223D03*
X02225Y046D03*
X02163D03*
X05338Y04781D03*
X05276D03*
X04738D03*
X04676D03*
X05038D03*
X04976D03*
X04376D03*
X04438D03*
G54D12*
X02437Y04812D03*
X02331D03*
X04076Y04828D03*
X0397D03*
X035Y04512D03*
X03606D03*
X03089Y04205D03*
X03195D03*
G54D13*
X02285Y04472D03*
Y04422D03*
Y04372D03*
Y04322D03*
X02478Y04472D03*
Y04422D03*
Y04372D03*
Y04322D03*
X04127Y04323D03*
Y04373D03*
Y04423D03*
Y04473D03*
X03934Y04323D03*
Y04373D03*
Y04423D03*
Y04473D03*
G54D14*
X0235Y04676D03*
X0241D03*
X03996Y04694D03*
X04056D03*
X02027Y04898D03*
X02087D03*
X02027Y04795D03*
X02087D03*
X04688Y03893D03*
X04748D03*
X0203Y04688D03*
X0209D03*
X02032Y046D03*
X02092D03*
G54D15*
X03193Y03979D03*
Y04041D03*
X02077Y03955D03*
Y04017D03*
X03407Y03438D03*
Y03376D03*
X04026Y0338D03*
Y03442D03*
X02295Y03436D03*
Y03374D03*
X02904Y03369D03*
Y03431D03*
X03408Y03534D03*
Y03596D03*
X04024Y03598D03*
Y03536D03*
X02294Y03527D03*
Y03589D03*
X02904Y03588D03*
Y03526D03*
X03313Y03438D03*
Y03376D03*
X04124Y03379D03*
Y03441D03*
X02198Y03431D03*
Y03369D03*
X03D03*
Y03431D03*
X04125Y04041D03*
Y03979D03*
X03005Y04024D03*
Y03962D03*
X03313Y03977D03*
Y04039D03*
X02189Y03957D03*
Y04019D03*
X03411Y0381D03*
Y03872D03*
X02288Y0379D03*
Y03852D03*
X04024Y03811D03*
Y03873D03*
X02905Y03799D03*
Y03861D03*
X0341Y03975D03*
Y04037D03*
X04029Y04041D03*
Y03979D03*
X02288Y03959D03*
Y04021D03*
X02905Y04023D03*
Y03961D03*
X02923Y04322D03*
Y04384D03*
X03502Y04985D03*
Y04923D03*
X035Y04763D03*
Y04825D03*
X03269Y0432D03*
Y04382D03*
X0277Y04673D03*
Y04611D03*
X04547Y03673D03*
Y03735D03*
G54D16*
X0385Y03536D03*
Y03561D03*
Y03587D03*
Y03612D03*
Y03638D03*
Y03664D03*
Y03689D03*
Y03715D03*
Y0374D03*
Y03766D03*
Y03792D03*
Y03817D03*
Y03843D03*
Y03868D03*
X03582Y03536D03*
Y03561D03*
Y03587D03*
Y03612D03*
Y03638D03*
Y03664D03*
Y03689D03*
Y03715D03*
Y0374D03*
Y03766D03*
Y03792D03*
Y03817D03*
Y03843D03*
Y03868D03*
X02727Y03528D03*
Y03553D03*
Y03579D03*
Y03604D03*
Y0363D03*
Y03656D03*
Y03681D03*
Y03707D03*
Y03732D03*
Y03758D03*
Y03784D03*
Y03809D03*
Y03835D03*
Y0386D03*
X0246Y03528D03*
Y03553D03*
Y03579D03*
Y03604D03*
Y0363D03*
Y03656D03*
Y03681D03*
Y03707D03*
Y03732D03*
Y03758D03*
Y03784D03*
Y03809D03*
Y03835D03*
Y0386D03*
G54D17*
X03412Y03737D03*
Y03677D03*
X0229Y03725D03*
Y03665D03*
X04023Y03742D03*
Y03682D03*
X02905Y03674D03*
Y03734D03*
X03045Y04325D03*
Y04385D03*
X03398Y04323D03*
Y04383D03*
X035Y04675D03*
Y04615D03*
X02662Y04942D03*
Y04882D03*
X03144Y04385D03*
Y04325D03*
X05307Y04911D03*
Y04851D03*
X04707Y04911D03*
Y04851D03*
X05007Y04911D03*
Y04851D03*
X04407Y04911D03*
Y04851D03*
G54D18*
X03285Y03646D03*
Y03752D03*
X02167Y03658D03*
Y03764D03*
X04146Y03663D03*
Y03769D03*
X03043Y03733D03*
Y03627D03*
X02761Y04378D03*
Y04272D03*
X03546Y04376D03*
Y0427D03*
X0266Y04771D03*
Y04665D03*
G54D19*
X02922Y04913D03*
Y04882D03*
Y0485D03*
Y04819D03*
Y04787D03*
Y04756D03*
Y04725D03*
Y04693D03*
Y04662D03*
Y0463D03*
Y04599D03*
X03362D03*
Y0463D03*
Y04662D03*
Y04693D03*
Y04725D03*
Y04756D03*
Y04787D03*
Y04819D03*
Y0485D03*
Y04882D03*
Y04913D03*
G54D20*
X02985Y04536D03*
X03016D03*
X03048D03*
X03079D03*
X03111D03*
X03142D03*
X03173D03*
X03205D03*
X03236D03*
X03268D03*
X03299D03*
Y04976D03*
X03268D03*
X03236D03*
X03205D03*
X03173D03*
X03142D03*
X03111D03*
X03079D03*
X03048D03*
X03016D03*
X02985D03*
G54D21*
X04992Y03798D03*
X04942D03*
X04892D03*
X04842D03*
X04792D03*
X04742D03*
X04692D03*
X04642D03*
X04992Y03606D03*
X04942D03*
X04892D03*
X04842D03*
X04792D03*
X04742D03*
X04692D03*
X04642D03*
G54D22*
X03792Y04933D03*
G54D23*
X03793Y04591D03*
M02*