%FSTAX23Y23*%
%MOIN*%
%SFA1B1*%

%IPPOS*%
%ADD62C,0.004000*%
%LNseniordesign-1*%
%LPD*%
G54D62*
X02602Y04565D02*
X02676D01*
X02602Y04407D02*
X02676D01*
X02602D02*
Y04565D01*
X02676Y04407D02*
Y04565D01*
X02639Y04466D02*
Y04506D01*
X02619Y04486D02*
X02659D01*
X03234Y04722D02*
X03308D01*
X03234Y0488D02*
X03308D01*
Y04722D02*
Y0488D01*
X03234Y04722D02*
Y0488D01*
X03271Y04781D02*
Y04821D01*
X03251Y04801D02*
X03291D01*
X03525Y04847D02*
X03599D01*
X03525Y04689D02*
X03599D01*
X03525D02*
Y04847D01*
X03599Y04689D02*
Y04847D01*
X03562Y04748D02*
Y04788D01*
X03542Y04768D02*
X03582D01*
X0384Y03651D02*
X04077D01*
X0384Y03981D02*
X04077D01*
Y03651D02*
Y03981D01*
X0384Y03651D02*
Y03981D01*
X03959Y03796D02*
Y03836D01*
X03939Y03816D02*
X03978D01*
X02762Y03636D02*
X02999D01*
X02762Y03966D02*
X02999D01*
Y03636D02*
Y03966D01*
X02762Y03636D02*
Y03966D01*
X02881Y03781D02*
Y03821D01*
X02861Y03801D02*
X029D01*
X03295Y03657D02*
X03532D01*
X03295Y03987D02*
X03532D01*
Y03657D02*
Y03987D01*
X03295Y03657D02*
Y03987D01*
X03414Y03802D02*
Y03842D01*
X03394Y03822D02*
X03433D01*
X02242Y03648D02*
X02479D01*
X02242Y03978D02*
X02479D01*
Y03648D02*
Y03978D01*
X02242Y03648D02*
Y03978D01*
X02361Y03793D02*
Y03833D01*
X02341Y03813D02*
X0238D01*
X0265Y03827D02*
X02724D01*
X0265Y03669D02*
X02724D01*
X0265D02*
Y03827D01*
X02724Y03669D02*
Y03827D01*
X02687Y03728D02*
Y03768D01*
X02667Y03748D02*
X02707D01*
X03075Y03829D02*
X03149D01*
X03075Y03671D02*
X03149D01*
X03075D02*
Y03829D01*
X03149Y03671D02*
Y03829D01*
X03112Y0373D02*
Y0377D01*
X03092Y0375D02*
X03132D01*
X03193Y03843D02*
X03267D01*
X03193Y03685D02*
X03267D01*
X03193D02*
Y03843D01*
X03267Y03685D02*
Y03843D01*
X0323Y03744D02*
Y03784D01*
X0321Y03764D02*
X0325D01*
X036Y03841D02*
X03674D01*
X036Y03683D02*
X03674D01*
X036D02*
Y03841D01*
X03674Y03683D02*
Y03841D01*
X03637Y03742D02*
Y03782D01*
X03617Y03762D02*
X03657D01*
X02142Y03815D02*
X02216D01*
X02142Y03657D02*
X02216D01*
X02142D02*
Y03815D01*
X02216Y03657D02*
Y03815D01*
X02179Y03716D02*
Y03756D01*
X02159Y03736D02*
X02199D01*
X02542Y03817D02*
X02616D01*
X02542Y03659D02*
X02616D01*
X02542D02*
Y03817D01*
X02616Y03659D02*
Y03817D01*
X02579Y03718D02*
Y03758D01*
X02559Y03738D02*
X02599D01*
X04149Y03849D02*
X04223D01*
X04149Y03691D02*
X04223D01*
X04149D02*
Y03849D01*
X04223Y03691D02*
Y03849D01*
X04186Y0375D02*
Y0379D01*
X04166Y0377D02*
X04206D01*
X03716Y03829D02*
X0379D01*
X03716Y03671D02*
X0379D01*
X03716D02*
Y03829D01*
X0379Y03671D02*
Y03829D01*
X03753Y0373D02*
Y0377D01*
X03733Y0375D02*
X03773D01*
X02463Y04775D02*
Y04849D01*
X02305Y04775D02*
Y04849D01*
Y04775D02*
X02463D01*
X02305Y04849D02*
X02463D01*
X02364Y04812D02*
X02404D01*
X02384Y04792D02*
Y04832D01*
X02216Y04278D02*
Y04515D01*
X02546Y04278D02*
Y04515D01*
X02216D02*
X02546D01*
X02216Y04278D02*
X02546D01*
X02361Y04397D02*
X02401D01*
X02381Y04377D02*
Y04416D01*
X04102Y04791D02*
Y04865D01*
X03944Y04791D02*
Y04865D01*
Y04791D02*
X04102D01*
X03944Y04865D02*
X04102D01*
X04003Y04828D02*
X04043D01*
X04023Y04808D02*
Y04848D01*
X04196Y0428D02*
Y04517D01*
X03866Y0428D02*
Y04517D01*
Y0428D02*
X04196D01*
X03866Y04517D02*
X04196D01*
X04011Y04398D02*
X04051D01*
X04031Y04379D02*
Y04418D01*
X03248Y0362D02*
X03322D01*
X03248Y03778D02*
X03322D01*
X03248Y0362D02*
Y03778D01*
X03322Y0362D02*
Y03778D01*
X03285Y03679D02*
Y03719D01*
X03265Y03699D02*
X03305D01*
X0213Y03632D02*
X02204D01*
X0213Y0379D02*
X02204D01*
X0213Y03632D02*
Y0379D01*
X02204Y03632D02*
Y0379D01*
X02167Y03691D02*
Y03731D01*
X02147Y03711D02*
X02187D01*
X04109Y03637D02*
X04183D01*
X04109Y03795D02*
X04183D01*
X04109Y03637D02*
Y03795D01*
X04183Y03637D02*
Y03795D01*
X04146Y03696D02*
Y03736D01*
X04126Y03716D02*
X04166D01*
X03006Y03759D02*
X0308D01*
X03006Y03601D02*
X0308D01*
Y03759*
X03006Y03601D02*
Y03759D01*
X03043Y0366D02*
Y037D01*
X03023Y0368D02*
X03063D01*
X02724Y04404D02*
X02798D01*
X02724Y04246D02*
X02798D01*
Y04404*
X02724Y04246D02*
Y04404D01*
X02761Y04305D02*
Y04345D01*
X02741Y04325D02*
X02781D01*
X03509Y04402D02*
X03583D01*
X03509Y04244D02*
X03583D01*
Y04402*
X03509Y04244D02*
Y04402D01*
X03546Y04303D02*
Y04343D01*
X03526Y04323D02*
X03566D01*
X0289Y04504D02*
Y05008D01*
X03394Y04504D02*
Y05008D01*
X0289D02*
X03394D01*
X0289Y04504D02*
X03394D01*
X03122Y04756D02*
X03162D01*
X03142Y04736D02*
Y04776D01*
X03474Y04475D02*
Y04549D01*
X03632Y04475D02*
Y04549D01*
X03474D02*
X03632D01*
X03474Y04475D02*
X03632D01*
X03533Y04512D02*
X03573D01*
X03553Y04492D02*
Y04532D01*
X02623Y04797D02*
X02697D01*
X02623Y04639D02*
X02697D01*
Y04797*
X02623Y04639D02*
Y04797D01*
X0266Y04698D02*
Y04738D01*
X0264Y04718D02*
X0268D01*
X03063Y04168D02*
Y04242D01*
X03221Y04168D02*
Y04242D01*
X03063D02*
X03221D01*
X03063Y04168D02*
X03221D01*
X03122Y04205D02*
X03162D01*
X03142Y04185D02*
Y04225D01*
X04488Y03717D02*
Y03791D01*
X0433Y03717D02*
Y03791D01*
X04488*
X0433Y03717D02*
X04488D01*
X04389Y03754D02*
X04429D01*
X04409Y03734D02*
Y03774D01*
X04326Y03854D02*
Y03928D01*
X04484Y03854D02*
Y03928D01*
X04326Y03854D02*
X04484D01*
X04326Y03928D02*
X04484D01*
X04385Y03891D02*
X04425D01*
X04405Y03871D02*
Y03911D01*
X05259Y03904D02*
X05299D01*
X05279Y03885D02*
Y03924D01*
X05392Y03656D02*
Y0373D01*
X0555Y03656D02*
Y0373D01*
X05392Y03656D02*
X0555D01*
X05392Y0373D02*
X0555D01*
X05451Y03693D02*
X05491D01*
X05471Y03673D02*
Y03713D01*
X04797Y03702D02*
X04837D01*
X04817Y03682D02*
Y03722D01*
X05034Y03537D02*
Y03867D01*
X046Y03537D02*
Y03867D01*
X05034*
X046Y03537D02*
X05034D01*
M02*