%FSTAX23Y23*%
%MOIN*%
%SFA1B1*%

%IPPOS*%
%ADD39R,0.058000X0.193000*%
%ADD40R,0.039000X0.045000*%
%ADD41R,0.051000X0.075000*%
%ADD42O,0.106000X0.036000*%
%ADD43R,0.028000X0.043000*%
%ADD44R,0.045000X0.039000*%
%ADD45R,0.089000X0.024000*%
%ADD46R,0.043000X0.028000*%
%ADD47R,0.075000X0.051000*%
%ADD48O,0.065000X0.030000*%
%ADD49O,0.030000X0.065000*%
%ADD50O,0.036000X0.106000*%
%ADD51R,0.208000X0.168000*%
%ADD52R,0.208000X0.158000*%
%ADD53C,0.038000*%
%ADD54R,0.038000X0.038000*%
%ADD55C,0.068000*%
%ADD56C,0.026000*%
%ADD57C,0.078000*%
%LNseniordesign-1*%
%LPD*%
G54D39*
X02093Y02957D03*
X02193D03*
X02293D03*
X02393D03*
X02493D03*
X02593D03*
X02693D03*
X02793D03*
X02893D03*
X02993D03*
X03093D03*
X03193D03*
X03293D03*
X03393D03*
X03493D03*
X03593D03*
X03693D03*
X03793D03*
X03893D03*
X03993D03*
X04093D03*
X04193D03*
X04493D03*
X04593D03*
X04693D03*
X04793D03*
X04893D03*
X04993D03*
X05093D03*
X05193D03*
X05293D03*
X05393D03*
X05493D03*
G54D40*
X0235Y0456D03*
X02412D03*
X02414Y04138D03*
X02352D03*
X04059Y04571D03*
X03997D03*
X04069Y04186D03*
X04007D03*
X0375Y03407D03*
X03688D03*
X02629Y03404D03*
X02567D03*
X03516Y03414D03*
X03578D03*
X0386Y03409D03*
X03922D03*
X02383Y03404D03*
X02445D03*
X02743Y03399D03*
X02805D03*
X03691Y03286D03*
X03753D03*
X02568Y03297D03*
X0263D03*
X03502Y04006D03*
X03564D03*
X03857Y0401D03*
X03919D03*
X02387Y04012D03*
X02449D03*
X02744Y04014D03*
X02806D03*
X03757Y0401D03*
X03695D03*
X02621Y03999D03*
X02559D03*
X02158Y04898D03*
X0222D03*
X02163Y04793D03*
X02225D03*
X04838Y03894D03*
X049D03*
X04664Y03446D03*
X04726D03*
X04832D03*
X04894D03*
X05035Y03447D03*
X04973D03*
X02161Y04688D03*
X02223D03*
X02225Y046D03*
X02163D03*
X05338Y04781D03*
X05276D03*
X04738D03*
X04676D03*
X05038D03*
X04976D03*
X04376D03*
X04438D03*
G54D41*
X02437Y04812D03*
X02331D03*
X04076Y04828D03*
X0397D03*
X035Y04512D03*
X03606D03*
X03089Y04205D03*
X03195D03*
G54D42*
X02285Y04472D03*
Y04422D03*
Y04372D03*
Y04322D03*
X02478Y04472D03*
Y04422D03*
Y04372D03*
Y04322D03*
X04127Y04323D03*
Y04373D03*
Y04423D03*
Y04473D03*
X03934Y04323D03*
Y04373D03*
Y04423D03*
Y04473D03*
G54D43*
X0235Y04676D03*
X0241D03*
X03996Y04694D03*
X04056D03*
X02027Y04898D03*
X02087D03*
X02027Y04795D03*
X02087D03*
X04688Y03893D03*
X04748D03*
X0203Y04688D03*
X0209D03*
X02032Y046D03*
X02092D03*
G54D44*
X03193Y03979D03*
Y04041D03*
X02077Y03955D03*
Y04017D03*
X03407Y03438D03*
Y03376D03*
X04026Y0338D03*
Y03442D03*
X02295Y03436D03*
Y03374D03*
X02904Y03369D03*
Y03431D03*
X03408Y03534D03*
Y03596D03*
X04024Y03598D03*
Y03536D03*
X02294Y03527D03*
Y03589D03*
X02904Y03588D03*
Y03526D03*
X03313Y03438D03*
Y03376D03*
X04124Y03379D03*
Y03441D03*
X02198Y03431D03*
Y03369D03*
X03D03*
Y03431D03*
X04125Y04041D03*
Y03979D03*
X03005Y04024D03*
Y03962D03*
X03313Y03977D03*
Y04039D03*
X02189Y03957D03*
Y04019D03*
X03411Y0381D03*
Y03872D03*
X02288Y0379D03*
Y03852D03*
X04024Y03811D03*
Y03873D03*
X02905Y03799D03*
Y03861D03*
X0341Y03975D03*
Y04037D03*
X04029Y04041D03*
Y03979D03*
X02288Y03959D03*
Y04021D03*
X02905Y04023D03*
Y03961D03*
X02923Y04322D03*
Y04384D03*
X03502Y04985D03*
Y04923D03*
X035Y04763D03*
Y04825D03*
X03269Y0432D03*
Y04382D03*
X0277Y04673D03*
Y04611D03*
X04547Y03673D03*
Y03735D03*
G54D45*
X0385Y03536D03*
Y03561D03*
Y03587D03*
Y03612D03*
Y03638D03*
Y03664D03*
Y03689D03*
Y03715D03*
Y0374D03*
Y03766D03*
Y03792D03*
Y03817D03*
Y03843D03*
Y03868D03*
X03582Y03536D03*
Y03561D03*
Y03587D03*
Y03612D03*
Y03638D03*
Y03664D03*
Y03689D03*
Y03715D03*
Y0374D03*
Y03766D03*
Y03792D03*
Y03817D03*
Y03843D03*
Y03868D03*
X02727Y03528D03*
Y03553D03*
Y03579D03*
Y03604D03*
Y0363D03*
Y03656D03*
Y03681D03*
Y03707D03*
Y03732D03*
Y03758D03*
Y03784D03*
Y03809D03*
Y03835D03*
Y0386D03*
X0246Y03528D03*
Y03553D03*
Y03579D03*
Y03604D03*
Y0363D03*
Y03656D03*
Y03681D03*
Y03707D03*
Y03732D03*
Y03758D03*
Y03784D03*
Y03809D03*
Y03835D03*
Y0386D03*
G54D46*
X03412Y03737D03*
Y03677D03*
X0229Y03725D03*
Y03665D03*
X04023Y03742D03*
Y03682D03*
X02905Y03674D03*
Y03734D03*
X03045Y04325D03*
Y04385D03*
X03398Y04323D03*
Y04383D03*
X035Y04675D03*
Y04615D03*
X02662Y04942D03*
Y04882D03*
X03144Y04385D03*
Y04325D03*
X05307Y04911D03*
Y04851D03*
X04707Y04911D03*
Y04851D03*
X05007Y04911D03*
Y04851D03*
X04407Y04911D03*
Y04851D03*
G54D47*
X03285Y03646D03*
Y03752D03*
X02167Y03658D03*
Y03764D03*
X04146Y03663D03*
Y03769D03*
X03043Y03733D03*
Y03627D03*
X02761Y04378D03*
Y04272D03*
X03546Y04376D03*
Y0427D03*
X0266Y04771D03*
Y04665D03*
G54D48*
X02922Y04913D03*
Y04882D03*
Y0485D03*
Y04819D03*
Y04787D03*
Y04756D03*
Y04725D03*
Y04693D03*
Y04662D03*
Y0463D03*
Y04599D03*
X03362D03*
Y0463D03*
Y04662D03*
Y04693D03*
Y04725D03*
Y04756D03*
Y04787D03*
Y04819D03*
Y0485D03*
Y04882D03*
Y04913D03*
G54D49*
X02985Y04536D03*
X03016D03*
X03048D03*
X03079D03*
X03111D03*
X03142D03*
X03173D03*
X03205D03*
X03236D03*
X03268D03*
X03299D03*
Y04976D03*
X03268D03*
X03236D03*
X03205D03*
X03173D03*
X03142D03*
X03111D03*
X03079D03*
X03048D03*
X03016D03*
X02985D03*
G54D50*
X04992Y03798D03*
X04942D03*
X04892D03*
X04842D03*
X04792D03*
X04742D03*
X04692D03*
X04642D03*
X04992Y03606D03*
X04942D03*
X04892D03*
X04842D03*
X04792D03*
X04742D03*
X04692D03*
X04642D03*
G54D51*
X03792Y04933D03*
G54D52*
X03793Y04591D03*
G54D53*
X0521Y03503D03*
X0481Y03507D03*
X0461Y03503D03*
X0491D03*
X05109D03*
X0471D03*
G54D54*
X0531Y03503D03*
G54D55*
X05518Y03798D03*
Y03898D03*
X0265Y0504D03*
X0235D03*
X0245D03*
X0225D03*
X0255D03*
G54D56*
X03834Y04103D03*
X03764Y04208D03*
X04085Y04192D03*
X03848Y04202D03*
X03223Y04259D03*
X03273D03*
X03325Y0426D03*
X03374Y04259D03*
X04303Y03524D03*
X0334Y03216D03*
X04513Y0471D03*
X04688Y04709D03*
X02316Y04689D03*
X0227Y04602D03*
X03355Y03634D03*
X03226Y03638D03*
X0353Y03716D03*
X02516Y03707D03*
X02046Y03766D03*
X02126Y04945D03*
X05025Y03704D03*
X05091Y03929D03*
X05073Y03777D03*
X05396Y03722D03*
X04441Y03918D03*
X04636Y03921D03*
X04513Y03956D03*
X04575Y03779D03*
X02581Y03738D03*
X03227Y03766D03*
X0375Y03751D03*
X03095Y03164D03*
X02393Y032D03*
X03077Y03767D03*
X04256Y03731D03*
X03296Y03809D03*
X02238Y03725D03*
X02123Y03828D03*
X03636Y03914D03*
X0266Y04798D03*
X02629Y03843D03*
X02437Y04776D03*
X04066Y0471D03*
X03042Y04314D03*
X03395Y04311D03*
X03498Y04607D03*
X0309Y04324D03*
X03426Y04785D03*
X02649Y04335D03*
X03595Y03096D03*
X03593Y03168D03*
X04399Y03502D03*
X03595Y03934D03*
X03599Y0409D03*
X03497Y04181D03*
X03891Y03094D03*
X03989Y03091D03*
X03686Y03174D03*
X03742Y03173D03*
X03736Y03643D03*
X0366Y04011D03*
Y04091D03*
X03724D03*
X03639Y04199D03*
X03688D03*
X04745Y03966D03*
X04718Y03994D03*
X0472Y04082D03*
X03642Y03096D03*
X03691D03*
X04148Y03233D03*
X04188D03*
X04798Y03413D03*
X04799Y03383D03*
X04843Y03682D03*
X04892Y03684D03*
X04927Y03409D03*
X04928Y03381D03*
X0518Y0365D03*
X05225D03*
X03655Y04742D03*
X03654Y04685D03*
X03652Y0439D03*
Y04334D03*
X02583Y04891D03*
X02729Y04888D03*
X02591Y04803D03*
X02732Y04797D03*
X04742Y02957D03*
X04842Y02958D03*
X04942D03*
X05042Y02957D03*
X05139D03*
X05242Y02958D03*
X04341Y03251D03*
X03986Y03176D03*
X03736Y03067D03*
X04414Y03674D03*
X04538Y03116D03*
X0474Y03115D03*
X0494Y03118D03*
X05141D03*
X05344Y03117D03*
X02776Y0487D03*
X02615Y04891D03*
X03193Y04312D03*
X03493Y03489D03*
G54D57*
X05507Y04881D03*
X05207D03*
X04907D03*
X04607D03*
X04307D03*
Y04544D03*
X04607D03*
X04907D03*
X05207D03*
X05507D03*
Y04289D03*
X05207D03*
X04907D03*
X04607D03*
X04307D03*
Y04028D03*
X04607D03*
X04907D03*
X05207D03*
X05507D03*
M02*