%FSTAX23Y23*%
%MOIN*%
%SFA1B1*%

%IPPOS*%
%ADD39R,0.058000X0.193000*%
%ADD40R,0.039000X0.045000*%
%ADD41R,0.051000X0.075000*%
%ADD44R,0.045000X0.039000*%
%ADD46R,0.043000X0.028000*%
%ADD47R,0.075000X0.051000*%
%ADD50O,0.036000X0.106000*%
%ADD51R,0.208000X0.168000*%
%ADD52R,0.208000X0.158000*%
%ADD53C,0.038000*%
%ADD54R,0.038000X0.038000*%
%ADD55C,0.068000*%
%ADD56C,0.026000*%
%ADD57C,0.078000*%
%ADD58R,0.033000X0.080000*%
%ADD59R,0.094000X0.039000*%
%ADD60R,0.258000X0.238000*%
%ADD61R,0.047000X0.020000*%
%LNseniordesign-1*%
%LPD*%
G54D39*
X02093Y02957D03*
X02193D03*
X02293D03*
X02393D03*
X02493D03*
X02593D03*
X02693D03*
X02793D03*
X02893D03*
X02993D03*
X03093D03*
X03193D03*
X03293D03*
X03393D03*
X03493D03*
X03593D03*
X03693D03*
X03793D03*
X03893D03*
X03993D03*
X04093D03*
X04193D03*
X04493D03*
X04593D03*
X04693D03*
X04793D03*
X04893D03*
X04993D03*
X05093D03*
X05193D03*
X05293D03*
X05393D03*
X05493D03*
G54D40*
X02906Y03289D03*
X02968D03*
X02752Y03389D03*
X0269D03*
X02115Y04218D03*
X02177D03*
X02113Y04341D03*
X02175D03*
X04129Y03594D03*
X04067D03*
X03832Y03498D03*
X03894D03*
X03908Y03397D03*
X0397D03*
X03763Y03595D03*
X03825D03*
X02817Y03287D03*
X02755D03*
X0305Y03579D03*
X02988D03*
X02759Y03478D03*
X02821D03*
X0284Y03386D03*
X02902D03*
X0269Y03579D03*
X02752D03*
X03342Y03293D03*
X0328D03*
X03584Y03591D03*
X03522D03*
X03294Y03491D03*
X03356D03*
X03363Y0339D03*
X03425D03*
X03226Y03591D03*
X03288D03*
X02304Y03303D03*
X02242D03*
X02544Y03583D03*
X02482D03*
X02255Y0349D03*
X02317D03*
X02323Y03398D03*
X02385D03*
X02174Y03584D03*
X02236D03*
X03764Y03399D03*
X03826D03*
X0405Y03305D03*
X03988D03*
X03983Y03595D03*
X03921D03*
X04062Y03403D03*
X04124D03*
X02978Y03482D03*
X02916D03*
X02905Y03577D03*
X02843D03*
X02986Y03387D03*
X03048D03*
X03507Y03491D03*
X03445D03*
X03217Y0339D03*
X03279D03*
X03502Y03295D03*
X0344D03*
X03438Y0359D03*
X03376D03*
X03516Y03396D03*
X03578D03*
X02466Y0349D03*
X02404D03*
X02175Y03398D03*
X02237D03*
X0246Y03305D03*
X02398D03*
X02389Y03583D03*
X02327D03*
X02476Y03399D03*
X02538D03*
X04051Y03497D03*
X03989D03*
X0389Y03304D03*
X03828D03*
G54D41*
X04462Y03754D03*
X04356D03*
X04352Y03891D03*
X04458D03*
X05418Y03693D03*
X05524D03*
G54D44*
X03565Y04267D03*
Y04205D03*
Y04374D03*
Y04436D03*
X03026Y04735D03*
Y04797D03*
X02685Y03895D03*
Y03957D03*
X03227Y03903D03*
Y03965D03*
X02182Y03882D03*
Y03944D03*
X03751Y03903D03*
Y03965D03*
X02576Y03884D03*
Y03946D03*
X03635Y03898D03*
Y0396D03*
X03112Y03899D03*
Y03961D03*
X04184Y03919D03*
Y03981D03*
X05219Y03713D03*
Y03775D03*
X05092Y03883D03*
Y03945D03*
X05093Y03713D03*
Y03775D03*
G54D46*
X02647Y04261D03*
Y04321D03*
X03406Y04738D03*
Y04798D03*
X03562Y04592D03*
Y04532D03*
X0533Y03777D03*
Y03717D03*
G54D47*
X02639Y04539D03*
Y04433D03*
X03271Y04748D03*
Y04854D03*
X03562Y04821D03*
Y04715D03*
X02687Y03801D03*
Y03695D03*
X03112Y03803D03*
Y03697D03*
X0323Y03817D03*
Y03711D03*
X03637Y03815D03*
Y03709D03*
X02179Y03789D03*
Y03683D03*
X02579Y03791D03*
Y03685D03*
X04186Y03823D03*
Y03717D03*
X03753Y03803D03*
Y03697D03*
G54D50*
X04034Y0372D03*
X03984D03*
X03934D03*
X03884D03*
X04034Y03913D03*
X03984D03*
X03934D03*
X03884D03*
X02956Y03705D03*
X02906D03*
X02856D03*
X02806D03*
X02956Y03898D03*
X02906D03*
X02856D03*
X02806D03*
X03489Y03726D03*
X03439D03*
X03389D03*
X03339D03*
X03489Y03919D03*
X03439D03*
X03389D03*
X03339D03*
X02436Y03717D03*
X02386D03*
X02336D03*
X02286D03*
X02436Y0391D03*
X02386D03*
X02336D03*
X02286D03*
G54D51*
X02436Y04195D03*
G54D52*
X02437Y04537D03*
G54D53*
X0521Y03503D03*
X0481Y03507D03*
X0461Y03503D03*
X0491D03*
X05109D03*
X0471D03*
G54D54*
X0531Y03503D03*
G54D55*
X05518Y03798D03*
Y03898D03*
X0265Y0504D03*
X0235D03*
X0245D03*
X0225D03*
X0255D03*
G54D56*
X03834Y04103D03*
X03764Y04208D03*
X04085Y04192D03*
X03848Y04202D03*
X03223Y04259D03*
X03273D03*
X03325Y0426D03*
X03374Y04259D03*
X04303Y03524D03*
X0334Y03216D03*
X04513Y0471D03*
X04688Y04709D03*
X02316Y04689D03*
X0227Y04602D03*
X03355Y03634D03*
X03226Y03638D03*
X0353Y03716D03*
X02516Y03707D03*
X02046Y03766D03*
X02126Y04945D03*
X05025Y03704D03*
X05091Y03929D03*
X05073Y03777D03*
X05396Y03722D03*
X04441Y03918D03*
X04636Y03921D03*
X04513Y03956D03*
X04575Y03779D03*
X02581Y03738D03*
X03227Y03766D03*
X0375Y03751D03*
X03095Y03164D03*
X02393Y032D03*
X03077Y03767D03*
X04256Y03731D03*
X03296Y03809D03*
X02238Y03725D03*
X02123Y03828D03*
X03636Y03914D03*
X0266Y04798D03*
X02629Y03843D03*
X02437Y04776D03*
X04066Y0471D03*
X03042Y04314D03*
X03395Y04311D03*
X03498Y04607D03*
X0309Y04324D03*
X03426Y04785D03*
X02649Y04335D03*
X03595Y03096D03*
X03593Y03168D03*
X04399Y03502D03*
X03595Y03934D03*
X03599Y0409D03*
X03497Y04181D03*
X03891Y03094D03*
X03989Y03091D03*
X03686Y03174D03*
X03742Y03173D03*
X03736Y03643D03*
X0366Y04011D03*
Y04091D03*
X03724D03*
X03639Y04199D03*
X03688D03*
X04745Y03966D03*
X04718Y03994D03*
X0472Y04082D03*
X03642Y03096D03*
X03691D03*
X04148Y03233D03*
X04188D03*
X04798Y03413D03*
X04799Y03383D03*
X04843Y03682D03*
X04892Y03684D03*
X04927Y03409D03*
X04928Y03381D03*
X0518Y0365D03*
X05225D03*
X03655Y04742D03*
X03654Y04685D03*
X03652Y0439D03*
Y04334D03*
X02583Y04891D03*
X02729Y04888D03*
X02591Y04803D03*
X02732Y04797D03*
X04742Y02957D03*
X04842Y02958D03*
X04942D03*
X05042Y02957D03*
X05139D03*
X05242Y02958D03*
X04341Y03251D03*
X03986Y03176D03*
X03736Y03067D03*
X04414Y03674D03*
X04538Y03116D03*
X0474Y03115D03*
X0494Y03118D03*
X05141D03*
X05344Y03117D03*
X02776Y0487D03*
X02615Y04891D03*
X03193Y04312D03*
X03493Y03489D03*
G54D57*
X05507Y04881D03*
X05207D03*
X04907D03*
X04607D03*
X04307D03*
Y04544D03*
X04607D03*
X04907D03*
X05207D03*
X05507D03*
Y04289D03*
X05207D03*
X04907D03*
X04607D03*
X04307D03*
Y04028D03*
X04607D03*
X04907D03*
X05207D03*
X05507D03*
G54D58*
X02774Y04589D03*
X02824D03*
Y04203D03*
X02774D03*
X03424Y04589D03*
X03374D03*
X03324D03*
X03274D03*
X03224D03*
X03174D03*
X03124D03*
X03074D03*
X03024D03*
X02974D03*
X02924D03*
X02874D03*
Y04203D03*
X02924D03*
X02974D03*
X03024D03*
X03074D03*
X03124D03*
X03174D03*
X03224D03*
X03274D03*
X03324D03*
X03374D03*
X03424D03*
G54D59*
X0461Y03911D03*
Y03867D03*
X04609Y0377D03*
X0461Y03726D03*
G54D60*
X04856Y03817D03*
G54D61*
X05237Y03875D03*
Y03895D03*
Y03916D03*
Y03936D03*
X05319D03*
Y03915D03*
Y03895D03*
Y03874D03*
M02*