%FSTAX23Y23*%
%MOIN*%
%SFA1B1*%

%IPPOS*%
%ADD24C,0.010000*%
%ADD25C,0.008000*%
%ADD26C,0.030000*%
%ADD27C,0.030000*%
%ADD29C,0.060000*%
%ADD30C,0.018000*%
%ADD31C,0.070000*%
%LNseniordesign-1*%
%LPD*%
G36*
X04641Y03296D02*
X04642Y03291D01*
X04647Y0329*
X04666*
Y03272*
X04327*
X04325Y03277*
X04421Y03373*
X04423Y03376*
X04424Y0338*
Y03623*
X04641*
Y03296*
G37*
G36*
X03301Y03629D02*
X03303Y03624D01*
X03307Y03623*
X03337*
X03339Y03624*
X03341*
X03344Y03623*
X03349Y0362*
X03355Y03619*
X03361Y0362*
X03366Y03623*
Y03624*
X03485*
X03489Y03625*
X03491Y03626*
X03496Y03625*
Y03624*
X03498*
Y03623*
X035*
X03501*
X03722*
X03723*
X03724*
X03725Y03624*
X03727*
Y03625*
X03728Y03626*
X03729Y03629*
X0373*
X03736Y03628*
X03742Y03629*
X03743*
X03744Y03626*
X03745Y03625*
Y03624*
X03747*
X03748Y03623*
X03749*
X0375*
X04404*
Y03524*
X044Y03521*
X04399*
X04392Y0352*
X04385Y03516*
X04381Y03509*
Y03507*
X04399*
Y03497*
X04381*
Y03495*
X04385Y03488*
X04392Y03484*
X04399Y03483*
X044*
X04404Y0348*
Y03384*
X04292Y03272*
X04283*
X04281Y03277*
X0431Y03306*
X04312Y03309*
X04313Y03313*
Y03513*
X04314*
X04317Y03518*
X04318Y03524*
X04317Y0353*
X04314Y03535*
X04309Y03538*
X04303Y03539*
X04297Y03538*
X04292Y03535*
X04289Y0353*
X04288Y03524*
X04289Y03518*
X04292Y03513*
X04293*
Y03317*
X04248Y03272*
X02233*
X02232Y03274*
Y03629*
X02247*
X02248*
X02249Y03624*
X02254Y03623*
X02573*
X02574*
X02576*
Y03624*
X02578*
Y03625*
X02583Y03626*
X02585Y03624*
X02588Y03622*
X02592Y03621*
X03219*
X03223Y03622*
X03224Y03623*
X03225*
X03226*
X03232Y03624*
X03237Y03627*
X03238Y03625*
X03239Y03624*
X03241*
X03243Y03623*
X03285*
X03289Y03624*
X03291Y03629*
Y03632*
X03298*
X03301Y03629*
G37*
G36*
X04518Y03934D02*
X04621D01*
X04624Y0393*
X04622Y03927*
X04621Y03921*
X04622Y03915*
X04625Y0391*
X0463Y03907*
X04636Y03906*
X04642Y03907*
X04647Y0391*
X0465Y03915*
X04651Y03921*
X0465Y03927*
X04648Y0393*
X04651Y03934*
X04863*
Y03684*
X04858Y03683*
X04857Y03688*
X04854Y03693*
X04849Y03696*
X04843Y03697*
X04837Y03696*
X04832Y03693*
X04829Y03688*
X04828Y03682*
X04829Y03676*
X04832Y03671*
X04837Y03668*
X04843Y03667*
X04849Y03668*
X04854Y03671*
X04857Y03676*
X04858Y03681*
X04863Y0368*
Y03636*
X04864Y033*
X0486Y03296*
X04647*
Y03629*
X04424*
Y03663*
X04425*
X04428Y03668*
X04429Y03674*
X04428Y0368*
X04425Y03685*
X0442Y03688*
X04414Y03689*
X04408Y03688*
X04403Y03685*
X044Y0368*
X04399Y03674*
X044Y03668*
X04403Y03663*
X04404*
Y03629*
X0375*
X03748Y03633*
X0375Y03637*
X03751Y03643*
X0375Y03649*
X03747Y03654*
X03742Y03657*
X03736Y03658*
X0373Y03657*
X03725Y03654*
X03722Y03649*
X03721Y03643*
X03722Y03637*
X03724Y03633*
X03722Y03629*
X03501*
X03499Y03634*
X03537Y03672*
X03539Y03675*
X0354Y03679*
Y03705*
X03541*
X03544Y0371*
X03545Y03716*
X03544Y03722*
X03541Y03727*
X03536Y0373*
X0353Y03731*
X03524Y0373*
X03519Y03727*
X03516Y03722*
X03515Y03716*
X03516Y0371*
X03519Y03705*
X0352*
Y03683*
X03481Y03644*
X03366*
Y03645*
X03361Y03648*
X03355Y03649*
X03349Y03648*
X03344Y03645*
X03341Y0364*
X0334Y03634*
Y03633*
X03337Y03629*
X03307*
Y03799*
X0331Y03803*
X03311Y03809*
X0331Y03815*
X03307Y0382*
X03302Y03823*
X03296Y03824*
X0329Y03823*
X03285Y0382*
X03282Y03815*
X03281Y03809*
X03282Y03803*
X03285Y03799*
Y03629*
X03243*
X0324Y03633*
X03241Y03638*
X0324Y03644*
X03237Y03649*
X03232Y03652*
X03226Y03653*
X0322Y03652*
X03215Y03649*
X03212Y03644*
X03211Y03641*
X02596*
X02531Y03706*
Y03707*
X0253Y03713*
X02527Y03718*
X02522Y03721*
X02516Y03722*
X02515*
X02464Y03773*
X02461Y03775*
X02457Y03776*
X02254*
Y03934*
X02618*
Y03853*
X02615Y03849*
X02614Y03843*
X02615Y03837*
X02618Y03832*
X02623Y03829*
X02629Y03828*
X02635Y03829*
X0264Y03832*
X02643Y03837*
X02644Y03843*
X02643Y03849*
X0264Y03853*
Y03934*
X03217*
Y03777*
X03216*
X03213Y03772*
X03212Y03766*
X03213Y0376*
X03216Y03755*
X03221Y03752*
X03227Y03751*
X03233Y03752*
X03238Y03755*
X03241Y0376*
X03242Y03766*
X03241Y03772*
X03238Y03777*
X03237*
Y03934*
X0358*
X03581Y03928*
X03584Y03923*
X03589Y0392*
X03595Y03919*
X03601Y0392*
X03606Y03923*
X03609Y03928*
X0361Y03934*
X03623*
X03625Y03929*
X03622Y03928*
X03618Y03921*
Y03919*
X03654*
Y03921*
X0365Y03928*
X03647Y03929*
X03649Y03934*
X0374*
Y03762*
X03739*
X03736Y03757*
X03735Y03751*
X03736Y03745*
X03739Y0374*
X03744Y03737*
X0375Y03736*
X03756Y03737*
X03761Y0374*
X03764Y03745*
X03765Y03751*
X03764Y03757*
X03761Y03762*
X0376*
Y03934*
X0442*
Y03918*
X04421Y0391*
X04426Y03903*
X04433Y03898*
X04441Y03897*
X04449Y03898*
X04456Y03903*
X04461Y0391*
X04462Y03918*
Y03934*
X04508*
Y03956*
X04518*
Y03934*
G37*
G36*
X02501Y03708D02*
Y03707D01*
X02502Y03701*
X02505Y03696*
X0251Y03693*
X02516Y03692*
X02517*
X02575Y03634*
X02573Y03629*
X02254*
Y03756*
X02453*
X02501Y03708*
G37*
G36*
X0411Y04241D02*
X04024D01*
X0402Y0424*
X04016Y04238*
X03962Y04184*
X03857*
X03856Y04189*
X03859Y04191*
X03862Y04196*
X03863Y04201*
X0394Y04278*
X0411*
Y04241*
G37*
G36*
X05095Y03907D02*
Y03894D01*
X05097Y03889*
X05101Y03888*
X05386*
Y03733*
X05385*
X05382Y03728*
X05381Y03722*
X05382Y03716*
X05385Y03711*
X0539Y03708*
X05396Y03707*
X05402Y03708*
X05407Y03711*
X0541Y03716*
X05411Y03722*
X0541Y03728*
X05407Y03733*
X05406*
Y03888*
X05478*
X05479*
X05484Y03886*
X05487Y0388*
X05492Y03872*
X055Y03867*
X05509Y03863*
X05518Y03862*
X05527Y03863*
X05536Y03867*
X05544Y03872*
X05549Y0388*
X05552Y03886*
X05557Y03888*
X05558*
X05576*
Y03639*
X05547*
X05529Y03638*
X05512Y03633*
X05497Y03624*
X05483Y03613*
X05472Y036*
X05464Y03584*
X05459Y03567*
X05457Y0355*
X05459Y03533*
X05464Y03516*
X05472Y035*
X05483Y03487*
X05497Y03476*
X05512Y03467*
X05529Y03462*
X05547Y03461*
X05576*
Y03233*
X05231*
Y03503*
X0523Y03511*
X05225Y03518*
X05218Y03523*
X0521Y03524*
X05202Y03523*
X05195Y03518*
X0519Y03511*
X05188Y03503*
Y03233*
X04358*
X04355Y03236*
Y03237*
X04359Y03244*
Y03246*
X04341*
Y03256*
X04359*
Y03258*
X04357Y03261*
X04359Y03266*
X04666*
X0467Y03267*
X04672Y03272*
Y03274*
X04864*
Y03291*
X04865*
X04869Y03295*
X0487Y03297*
Y033*
X04869Y03636*
Y0368*
Y03682*
Y03684*
Y03693*
X04875*
X04878Y03689*
X04877Y03684*
X04878Y03678*
X04881Y03673*
X04886Y0367*
X04892Y03669*
X04898Y0367*
X04903Y03673*
X04906Y03678*
X04907Y03684*
X04906Y03689*
X04909Y03693*
X05015*
X05019Y0369*
X05025Y03689*
X05031Y0369*
X05036Y03693*
X05039Y03698*
X0504Y03704*
X05039Y0371*
X05036Y03715*
X05031Y03718*
X05025Y03719*
X05019Y03718*
X05015Y03715*
X04869*
Y03888*
X05081*
X05085Y03889*
X05087Y03894*
Y03907*
X05091Y0391*
X05095Y03907*
G37*
G36*
X0411Y0394D02*
X0376D01*
X03756Y03939*
X03754Y03935*
X03746*
X03744Y03939*
X0374Y0394*
X03649*
X03647*
X03646*
X03645Y03939*
X03644*
Y03937*
X03643Y03936*
X03642Y03935*
X0363*
X03629Y03936*
X03628Y03937*
Y03939*
X03627*
X03626Y0394*
X03625*
X03623*
X0361*
X03609*
X03606Y03945*
X03601Y03948*
X03595Y03949*
X03589Y03948*
X03584Y03945*
X03581Y0394*
X0358*
X03237*
X03233Y03939*
X03231Y03935*
X03223*
X03221Y03939*
X03217Y0394*
X0264*
X02636Y03939*
X02634Y03935*
X02624*
X02622Y03939*
X02618Y0394*
X02254*
X02253*
X02252*
X0225Y03939*
X02249*
Y03937*
X02248Y03935*
Y03934*
Y03776*
X02057*
Y03777*
X02052Y0378*
X02046Y03781*
X0204Y0378*
X02035Y03777*
X02032Y03772*
X02031Y03766*
X02032Y0376*
X02035Y03755*
X0204Y03752*
X02046Y03751*
X02052Y03752*
X02057Y03755*
Y03756*
X02248*
Y03742*
X02244Y03739*
X02238Y0374*
X02232Y03739*
X02227Y03736*
X02224Y03731*
X02223Y03725*
X02224Y03719*
X02227Y03715*
Y03632*
X02226Y03631*
Y03629*
Y03274*
Y03273*
Y03272*
X02227Y0327*
X02228Y03269*
Y03267*
X02229*
X0223Y03266*
X02232*
X02233*
X04235*
X04236Y03261*
X04209Y03233*
X04203*
X04202Y03239*
X04199Y03244*
X04194Y03247*
X04188Y03248*
X04182Y03247*
X04177Y03244*
X04174Y03239*
X04173Y03233*
X04163*
X04162Y03239*
X04159Y03244*
X04154Y03247*
X04148Y03248*
X04142Y03247*
X04137Y03244*
X04134Y03239*
X04133Y03233*
X02131*
X0213Y03234*
X02064*
Y03464*
X02074Y03467*
X02089Y03476*
X02103Y03487*
X02114Y035*
X02122Y03516*
X02127Y03533*
X02129Y0355*
X02127Y03567*
X02122Y03584*
X02114Y036*
X02103Y03613*
X02089Y03624*
X02074Y03633*
X02057Y03638*
X02039Y03639*
X0201*
Y03935*
Y04031*
X03656*
Y04026*
X03654Y04025*
X03649Y04022*
X03646Y04017*
X03645Y04011*
X03646Y04005*
X03649Y04*
X03654Y03997*
X0366Y03996*
X03666Y03997*
X03671Y04*
X03674Y04005*
X03675Y04011*
X03674Y04017*
X03671Y04022*
X03666Y04025*
X03664Y04026*
Y04031*
X0411*
Y0394*
G37*
G36*
X05227Y03228D02*
X05231Y03227D01*
X05335*
Y03129*
X05333Y03128*
X0533Y03123*
X05329Y03117*
X0533Y03111*
X05333Y03106*
X05335Y03105*
Y0286*
X04645*
Y03227*
X05188*
X05193Y03228*
X05194Y03231*
X05226*
X05227Y03228*
G37*
G36*
X04986Y0481D02*
X04984Y04808D01*
X04982Y04806*
X04832*
Y04952*
X04829Y04955*
X0411*
Y04554*
X03353*
X03349Y04553*
X03346Y04551*
X03216Y04421*
X03214Y04418*
X03213Y04414*
Y04315*
X03209Y04314*
X03208*
X03207Y04318*
X03204Y04323*
X03199Y04326*
X03193Y04327*
X03187Y04326*
X03182Y04323*
X03179Y04318*
X03178Y04312*
X03179Y04306*
X03182Y04301*
X03187Y04298*
X03193Y04297*
X03199Y04298*
X03204Y04301*
X03207Y04306*
X03208Y0431*
X03209*
X03213Y04309*
Y0427*
X03212*
X03209Y04265*
X03208Y04259*
X03209Y04253*
X03212Y04248*
X03217Y04245*
X03223Y04244*
X03229Y04245*
X03234Y04248*
X03237Y04253*
X03238Y04259*
X03237Y04265*
X03234Y0427*
X03233*
Y0441*
X03357Y04534*
X0411*
Y045*
X03368*
X03364Y04499*
X03361Y04497*
X03266Y04402*
X03264Y04399*
X03263Y04395*
Y0427*
X03262*
X03259Y04265*
X03258Y04259*
X03259Y04253*
X03262Y04248*
X03267Y04245*
X03273Y04244*
X03279Y04245*
X03284Y04248*
X03287Y04253*
X03288Y04259*
X03287Y04265*
X03284Y0427*
X03283*
Y04391*
X03372Y0448*
X0411*
Y04455*
X03394*
X0339Y04454*
X03387Y04452*
X03318Y04383*
X03316Y0438*
X03315Y04376*
Y04271*
X03314*
X03311Y04266*
X0331Y0426*
X03311Y04254*
X03314Y04249*
X03319Y04246*
X03325Y04245*
X03331Y04246*
X03336Y04249*
X03339Y04254*
X0334Y0426*
X03339Y04266*
X03336Y04271*
X03335*
Y04372*
X03398Y04435*
X03442*
X03444Y0443*
X03367Y04353*
X03365Y0435*
X03364Y04346*
Y0427*
X03363*
X0336Y04265*
X03359Y04259*
X0336Y04253*
X03363Y04248*
X03368Y04245*
X03374Y04244*
X0338Y04245*
X03385Y04248*
X03388Y04253*
X03389Y04259*
X03388Y04265*
X03385Y0427*
X03384*
Y0429*
X03388Y04293*
X0339*
Y04311*
Y04329*
X03388*
X03384Y04332*
Y04342*
X03456Y04414*
X0411*
Y043*
X03935*
X03931Y04299*
X03927Y04297*
X03847Y04217*
X03842Y04216*
X03837Y04213*
X03834Y04208*
X03833Y04202*
X03834Y04196*
X03837Y04191*
X0384Y04189*
X03839Y04184*
X03805*
X0378Y04209*
X03779Y04214*
X03775Y04219*
X0377Y04223*
X03764Y04224*
X03759Y04223*
X03754Y04219*
X0375Y04214*
X03749Y04208*
X0375Y04203*
X03754Y04198*
X03759Y04194*
X03764Y04193*
X03792Y04165*
X03796Y04163*
X038Y04162*
X03967*
X03971Y04163*
X03975Y04165*
X04029Y04219*
X0411*
Y04203*
X04095*
X04091Y04206*
X04085Y04207*
X04079Y04206*
X04074Y04203*
X04071Y04198*
X0407Y04192*
X04071Y04186*
X04074Y04181*
X04079Y04178*
X04085Y04177*
X04091Y04178*
X04095Y04181*
X0411*
Y04147*
X05043*
X05045Y04142*
X05016Y04114*
X03844*
X0384Y04117*
X03834Y04118*
X03828Y04117*
X03823Y04114*
X0382Y04109*
X03819Y04103*
X0382Y04097*
X03823Y04092*
X03828Y04089*
X03834Y04088*
X0384Y04089*
X03844Y04092*
X04704*
X04706Y04088*
X04705Y04082*
X04706Y04076*
X04709Y04071*
X04714Y04068*
X0472Y04067*
X04726Y04068*
X04731Y04071*
X04734Y04076*
X04735Y04082*
X04734Y04088*
X04736Y04092*
X05021*
X05025Y04093*
X05029Y04095*
X05081Y04147*
X05576*
Y03894*
X05558*
X05554Y03898*
X05553Y03907*
X05549Y03916*
X05544Y03924*
X05536Y03929*
X05527Y03933*
X05518Y03934*
X05509Y03933*
X055Y03929*
X05492Y03924*
X05487Y03916*
X05483Y03907*
X05482Y03898*
X05478Y03894*
X05101*
Y03918*
X05102*
X05105Y03923*
X05106Y03929*
X05105Y03935*
X05102Y0394*
X05097Y03943*
X05091Y03944*
X05085Y03943*
X0508Y0394*
X05077Y03935*
X05076Y03929*
X05077Y03923*
X0508Y03918*
X05081*
Y03894*
X04869*
Y03934*
X04868Y03939*
X04863Y0394*
X04766*
Y03966*
X04765Y03974*
X0476Y03981*
X04753Y03986*
X04745Y03987*
X04737Y03986*
X04736Y03985*
X04732Y03988*
X04733Y03994*
X04732Y04*
X04729Y04005*
X04724Y04008*
X04718Y04009*
X04712Y04008*
X04707Y04005*
X04704Y04*
X04703Y03994*
X04704Y03988*
X04707Y03983*
X04712Y0398*
X04718Y03979*
X04723Y0398*
X04726Y03976*
X04725Y03974*
X04724Y03966*
Y0394*
X04651*
X0465*
X04649*
X04648Y03939*
X04646*
X04644Y03938*
X04643Y03939*
X04641*
Y03921*
X04631*
Y03939*
X04629*
X04628Y03938*
X04626Y03939*
X04624*
X04623Y0394*
X04622*
X04621*
X04534*
Y03956*
X04533Y03964*
X04528Y03971*
X04521Y03976*
X04513Y03977*
X04505Y03976*
X04498Y03971*
X04493Y03964*
X04492Y03956*
Y0394*
X04462*
X04458Y03939*
X04456Y03935*
X04452Y03934*
X04451*
X04448Y03936*
X04446*
Y03918*
X04436*
Y03936*
X04434*
X04431Y03934*
X0443*
X04426Y03935*
X04424Y03939*
X0442Y0394*
X04116*
Y04031*
X04115Y04035*
X0411Y04037*
X0201*
Y05077*
X02232*
X02233Y05072*
X02232Y05071*
X02224Y05066*
X02219Y05058*
X02215Y05049*
X02214Y0504*
X02215Y05031*
X02219Y05022*
X02224Y05014*
X02232Y05009*
X02241Y05005*
X0225Y05004*
X02259Y05005*
X02268Y05009*
X02276Y05014*
X02281Y05022*
X02285Y05031*
X02286Y0504*
X02285Y05049*
X02281Y05058*
X02276Y05066*
X02268Y05071*
X02267Y05072*
X02268Y05077*
X02332*
X02333Y05072*
X02332Y05071*
X02324Y05066*
X02319Y05058*
X02315Y05049*
X02314Y0504*
X02315Y05031*
X02319Y05022*
X02324Y05014*
X02332Y05009*
X02341Y05005*
X0235Y05004*
X02359Y05005*
X02368Y05009*
X02376Y05014*
X02381Y05022*
X02385Y05031*
X02386Y0504*
X02385Y05049*
X02381Y05058*
X02376Y05066*
X02368Y05071*
X02367Y05072*
X02368Y05077*
X02432*
X02433Y05072*
X02432Y05071*
X02424Y05066*
X02419Y05058*
X02415Y05049*
X02414Y0504*
X02415Y05031*
X02419Y05022*
X02424Y05014*
X02432Y05009*
X02441Y05005*
X0245Y05004*
X02459Y05005*
X02468Y05009*
X02476Y05014*
X02481Y05022*
X02485Y05031*
X02486Y0504*
X02485Y05049*
X02481Y05058*
X02476Y05066*
X02468Y05071*
X02467Y05072*
X02468Y05077*
X02524*
X02526Y05072*
X02521Y05069*
X02515Y0506*
X02511Y0505*
X0251Y05045*
X0259*
X02589Y0505*
X02585Y0506*
X02579Y05069*
X02574Y05072*
X02576Y05077*
X02632*
X02633Y05072*
X02632Y05071*
X02624Y05066*
X02619Y05058*
X02615Y05049*
X02614Y0504*
X02615Y05031*
X02619Y05022*
X02624Y05014*
X02632Y05009*
X02641Y05005*
X0265Y05004*
X02659Y05005*
X02668Y05009*
X02676Y05014*
X02681Y05022*
X02685Y05031*
X02686Y0504*
X02685Y05049*
X02681Y05058*
X02676Y05066*
X02668Y05071*
X02667Y05072*
X02668Y05077*
X04986*
Y0481*
G37*
%LNseniordesign-2*%
%LPC*%
G36*
X05225Y03665D02*
X05219Y03664D01*
X05214Y03661*
X05211Y03656*
X0521Y0365*
X05211Y03644*
X05214Y03639*
X05219Y03636*
X05225Y03635*
X05231Y03636*
X05236Y03639*
X05239Y03644*
X0524Y0365*
X05239Y03656*
X05236Y03661*
X05231Y03664*
X05225Y03665*
G37*
G36*
X05331Y03523D02*
X05289D01*
Y03482*
X05331*
Y03523*
G37*
G36*
X02576Y03733D02*
X02563D01*
Y03731*
X02567Y03724*
X02574Y0372*
X02576*
Y03733*
G37*
G36*
X04274Y03726D02*
X04261D01*
Y03713*
X04263*
X0427Y03717*
X04274Y03724*
Y03726*
G37*
G36*
X04251D02*
X04238D01*
Y03724*
X04242Y03717*
X04249Y03713*
X04251*
Y03726*
G37*
G36*
X04815Y03531D02*
Y03512D01*
X04834*
X04833Y03516*
X04828Y03524*
X04819Y0353*
X04815Y03531*
G37*
G36*
X04615Y03527D02*
Y03508D01*
X04634*
X04633Y03512*
X04628Y03521*
X04619Y03526*
X04615Y03527*
G37*
G36*
X04805Y03531D02*
X048Y0353D01*
X04792Y03524*
X04786Y03516*
Y03512*
X04805*
Y03531*
G37*
G36*
X04605Y03527D02*
X046Y03526D01*
X04592Y03521*
X04586Y03512*
Y03508*
X04605*
Y03527*
G37*
G36*
X0518Y03665D02*
X05174Y03664D01*
X05169Y03661*
X05166Y03656*
X05165Y0365*
X05166Y03644*
X05169Y03639*
X05174Y03636*
X0518Y03635*
X05186Y03636*
X05191Y03639*
X05194Y03644*
X05195Y0365*
X05194Y03656*
X05191Y03661*
X05186Y03664*
X0518Y03665*
G37*
G36*
X04805Y03502D02*
X04786D01*
Y03497*
X04792Y03489*
X048Y03483*
X04805Y03482*
Y03502*
G37*
G36*
X04834D02*
X04815D01*
Y03482*
X04819Y03483*
X04828Y03489*
X04833Y03497*
X04834Y03502*
G37*
G36*
X05518Y03834D02*
X05509Y03833D01*
X055Y03829*
X05492Y03824*
X05487Y03816*
X05483Y03807*
X05482Y03798*
X05483Y03789*
X05487Y0378*
X05492Y03772*
X055Y03767*
X05509Y03763*
X05518Y03762*
X05527Y03763*
X05536Y03767*
X05544Y03772*
X05549Y0378*
X05553Y03789*
X05554Y03798*
X05553Y03807*
X05549Y03816*
X05544Y03824*
X05536Y03829*
X05527Y03833*
X05518Y03834*
G37*
G36*
X03072Y03785D02*
X0307D01*
X03063Y03781*
X03059Y03774*
Y03772*
X03072*
Y03785*
G37*
G36*
X0457Y03774D02*
X04557D01*
Y03772*
X04561Y03765*
X04568Y03761*
X0457*
Y03774*
G37*
G36*
X04593D02*
X0458D01*
Y03761*
X04582*
X04589Y03765*
X04593Y03772*
Y03774*
G37*
G36*
X05078Y03795D02*
Y03782D01*
X05091*
Y03784*
X05087Y03791*
X0508Y03795*
X05078*
G37*
G36*
X0457Y03797D02*
X04568D01*
X04561Y03793*
X04557Y03786*
Y03784*
X0457*
Y03797*
G37*
G36*
X03082Y03785D02*
Y03772D01*
X03095*
Y03774*
X03091Y03781*
X03084Y03785*
X03082*
G37*
G36*
X05068Y03795D02*
X05066D01*
X05059Y03791*
X05055Y03784*
Y03782*
X05068*
Y03795*
G37*
G36*
X05091Y03772D02*
X05078D01*
Y03759*
X0508*
X05087Y03763*
X05091Y0377*
Y03772*
G37*
G36*
X04261Y03749D02*
Y03736D01*
X04274*
Y03738*
X0427Y03745*
X04263Y03749*
X04261*
G37*
G36*
X02576Y03756D02*
X02574D01*
X02567Y03752*
X02563Y03745*
Y03743*
X02576*
Y03756*
G37*
G36*
X02599Y03733D02*
X02586D01*
Y0372*
X02588*
X02595Y03724*
X02599Y03731*
Y03733*
G37*
G36*
X04251Y03749D02*
X04249D01*
X04242Y03745*
X04238Y03738*
Y03736*
X04251*
Y03749*
G37*
G36*
X03095Y03762D02*
X03082D01*
Y03749*
X03084*
X03091Y03753*
X03095Y0376*
Y03762*
G37*
G36*
X05068Y03772D02*
X05055D01*
Y0377*
X05059Y03763*
X05066Y03759*
X05068*
Y03772*
G37*
G36*
X02586Y03756D02*
Y03743D01*
X02599*
Y03745*
X02595Y03752*
X02588Y03756*
X02586*
G37*
G36*
X03072Y03762D02*
X03059D01*
Y0376*
X03063Y03753*
X0307Y03749*
X03072*
Y03762*
G37*
G36*
X0526Y02953D02*
X05247D01*
Y0294*
X05249*
X05256Y02944*
X0526Y02951*
Y02953*
G37*
G36*
X04737Y02975D02*
X04735D01*
X04728Y02971*
X04724Y02964*
Y02962*
X04737*
Y02975*
G37*
G36*
X0496Y02953D02*
X04947D01*
Y0294*
X04949*
X04956Y02944*
X0496Y02951*
Y02953*
G37*
G36*
X05237D02*
X05224D01*
Y02951*
X05228Y02944*
X05235Y0294*
X05237*
Y02953*
G37*
G36*
X05047Y02975D02*
Y02962D01*
X0506*
Y02964*
X05056Y02971*
X05049Y02975*
X05047*
G37*
G36*
X05134D02*
X05132D01*
X05125Y02971*
X05121Y02964*
Y02962*
X05134*
Y02975*
G37*
G36*
X04747D02*
Y02962D01*
X0476*
Y02964*
X04756Y02971*
X04749Y02975*
X04747*
G37*
G36*
X05037D02*
X05035D01*
X05028Y02971*
X05024Y02964*
Y02962*
X05037*
Y02975*
G37*
G36*
X04937Y02953D02*
X04924D01*
Y02951*
X04928Y02944*
X04935Y0294*
X04937*
Y02953*
G37*
G36*
X05037Y02952D02*
X05024D01*
Y0295*
X05028Y02943*
X05035Y02939*
X05037*
Y02952*
G37*
G36*
X0506D02*
X05047D01*
Y02939*
X05049*
X05056Y02943*
X0506Y0295*
Y02952*
G37*
G36*
X04737D02*
X04724D01*
Y0295*
X04728Y02943*
X04735Y02939*
X04737*
Y02952*
G37*
G36*
X0476D02*
X04747D01*
Y02939*
X04749*
X04756Y02943*
X0476Y0295*
Y02952*
G37*
G36*
X04837Y02953D02*
X04824D01*
Y02951*
X04828Y02944*
X04835Y0294*
X04837*
Y02953*
G37*
G36*
X0486D02*
X04847D01*
Y0294*
X04849*
X04856Y02944*
X0486Y02951*
Y02953*
G37*
G36*
X05134Y02952D02*
X05121D01*
Y0295*
X05125Y02943*
X05132Y02939*
X05134*
Y02952*
G37*
G36*
X05157D02*
X05144D01*
Y02939*
X05146*
X05153Y02943*
X05157Y0295*
Y02952*
G37*
G36*
X05144Y02975D02*
Y02962D01*
X05157*
Y02964*
X05153Y02971*
X05146Y02975*
X05144*
G37*
G36*
X03493Y03504D02*
X03487Y03503D01*
X03482Y035*
X03479Y03495*
X03478Y03489*
X03479Y03483*
X03482Y03478*
X03487Y03475*
X03493Y03474*
X03499Y03475*
X03504Y03478*
X03507Y03483*
X03508Y03489*
X03507Y03495*
X03504Y035*
X03499Y03503*
X03493Y03504*
G37*
G36*
X04605Y03498D02*
X04586D01*
Y03493*
X04592Y03485*
X046Y03479*
X04605Y03478*
Y03498*
G37*
G36*
X04927Y03424D02*
X04921Y03423D01*
X04916Y0342*
X04913Y03415*
X04912Y03409*
X04913Y03403*
X04916Y03398*
X04918Y03397*
Y03392*
X04917*
X04914Y03387*
X04913Y03381*
X04914Y03375*
X04917Y0337*
X04922Y03367*
X04928Y03366*
X04934Y03367*
X04939Y0337*
X04942Y03375*
X04943Y03381*
X04942Y03387*
X04939Y03392*
X04937Y03393*
Y03398*
X04938*
X04941Y03403*
X04942Y03409*
X04941Y03415*
X04938Y0342*
X04933Y03423*
X04927Y03424*
G37*
G36*
X04798Y03428D02*
X04792Y03427D01*
X04787Y03424*
X04784Y03419*
X04783Y03413*
X04784Y03407*
X04787Y03402*
X0479Y034*
Y03395*
X04788Y03394*
X04785Y03389*
X04784Y03383*
X04785Y03377*
X04788Y03372*
X04793Y03369*
X04799Y03368*
X04805Y03369*
X0481Y03372*
X04813Y03377*
X04814Y03383*
X04813Y03389*
X0481Y03394*
X04807Y03396*
Y03401*
X04809Y03402*
X04812Y03407*
X04813Y03413*
X04812Y03419*
X04809Y03424*
X04804Y03427*
X04798Y03428*
G37*
G36*
X0491Y03524D02*
X04902Y03522D01*
X04895Y03518*
X0489Y03511*
X04889Y03503*
X0489Y03495*
X04895Y03488*
X04902Y03483*
X0491Y03482*
X04918Y03483*
X04925Y03488*
X04929Y03495*
X04931Y03503*
X04929Y03511*
X04925Y03518*
X04918Y03522*
X0491Y03524*
G37*
G36*
X05109D02*
X05101Y03522D01*
X05094Y03518*
X05089Y03511*
X05088Y03503*
X05089Y03495*
X05094Y03488*
X05101Y03483*
X05109Y03482*
X05117Y03483*
X05124Y03488*
X05129Y03495*
X0513Y03503*
X05129Y03511*
X05124Y03518*
X05117Y03522*
X05109Y03524*
G37*
G36*
X04634Y03498D02*
X04615D01*
Y03478*
X04619Y03479*
X04628Y03485*
X04633Y03493*
X04634Y03498*
G37*
G36*
X0471Y03524D02*
X04702Y03522D01*
X04695Y03518*
X0469Y03511*
X04689Y03503*
X0469Y03495*
X04695Y03488*
X04702Y03483*
X0471Y03482*
X04718Y03483*
X04725Y03488*
X04729Y03495*
X04731Y03503*
X04729Y03511*
X04725Y03518*
X04718Y03522*
X0471Y03524*
G37*
G36*
X05141Y03133D02*
X05135Y03132D01*
X0513Y03129*
X05127Y03124*
X05126Y03118*
X05127Y03112*
X0513Y03107*
X05135Y03104*
X05141Y03103*
X05147Y03104*
X05152Y03107*
X05155Y03112*
X05156Y03118*
X05155Y03124*
X05152Y03129*
X05147Y03132*
X05141Y03133*
G37*
G36*
X04937Y02976D02*
X04935D01*
X04928Y02972*
X04924Y02965*
Y02963*
X04937*
Y02976*
G37*
G36*
X04947D02*
Y02963D01*
X0496*
Y02965*
X04956Y02972*
X04949Y02976*
X04947*
G37*
G36*
X04837D02*
X04835D01*
X04828Y02972*
X04824Y02965*
Y02963*
X04837*
Y02976*
G37*
G36*
X04847D02*
Y02963D01*
X0486*
Y02965*
X04856Y02972*
X04849Y02976*
X04847*
G37*
G36*
X0474Y0313D02*
X04734Y03129D01*
X04729Y03126*
X04726Y03121*
X04725Y03115*
X04726Y03109*
X04729Y03104*
X04734Y03101*
X0474Y031*
X04746Y03101*
X04751Y03104*
X04754Y03109*
X04755Y03115*
X04754Y03121*
X04751Y03126*
X04746Y03129*
X0474Y0313*
G37*
G36*
X0494Y03133D02*
X04934Y03132D01*
X04929Y03129*
X04926Y03124*
X04925Y03118*
X04926Y03112*
X04929Y03107*
X04934Y03104*
X0494Y03103*
X04946Y03104*
X04951Y03107*
X04954Y03112*
X04955Y03118*
X04954Y03124*
X04951Y03129*
X04946Y03132*
X0494Y03133*
G37*
G36*
X05237Y02976D02*
X05235D01*
X05228Y02972*
X05224Y02965*
Y02963*
X05237*
Y02976*
G37*
G36*
X05247D02*
Y02963D01*
X0526*
Y02965*
X05256Y02972*
X05249Y02976*
X05247*
G37*
G36*
X0458Y03797D02*
Y03784D01*
X04593*
Y03786*
X04589Y03793*
X04582Y03797*
X0458*
G37*
G36*
X02455Y04771D02*
X02442D01*
Y04758*
X02444*
X02451Y04762*
X02455Y04769*
Y04771*
G37*
G36*
X03421Y0478D02*
X03408D01*
Y04778*
X03412Y04771*
X03419Y04767*
X03421*
Y0478*
G37*
G36*
X03655Y04757D02*
X03649Y04756D01*
X03644Y04753*
X03641Y04748*
X0364Y04742*
X03641Y04736*
X03644Y04731*
X03649Y04728*
X03655Y04727*
X03661Y04728*
X03666Y04731*
X03669Y04736*
X0367Y04742*
X03669Y04748*
X03666Y04753*
X03661Y04756*
X03655Y04757*
G37*
G36*
X02432Y04771D02*
X02419D01*
Y04769*
X02423Y04762*
X0243Y04758*
X02432*
Y04771*
G37*
G36*
X02678Y04793D02*
X02665D01*
Y0478*
X02667*
X02674Y04784*
X02678Y04791*
Y04793*
G37*
G36*
X02432Y04794D02*
X0243D01*
X02423Y0479*
X02419Y04783*
Y04781*
X02432*
Y04794*
G37*
G36*
X03444Y0478D02*
X03431D01*
Y04767*
X03433*
X0344Y04771*
X03444Y04778*
Y0478*
G37*
G36*
X02655Y04793D02*
X02642D01*
Y04791*
X02646Y04784*
X02653Y0478*
X02655*
Y04793*
G37*
G36*
X04071Y04728D02*
Y04715D01*
X04084*
Y04717*
X0408Y04724*
X04073Y04728*
X04071*
G37*
G36*
X03503Y04625D02*
Y04612D01*
X03516*
Y04614*
X03512Y04621*
X03505Y04625*
X03503*
G37*
G36*
X03654Y047D02*
X03648Y04699D01*
X03643Y04696*
X0364Y04691*
X03639Y04685*
X0364Y04679*
X03643Y04674*
X03648Y04671*
X03654Y0467*
X0366Y04671*
X03665Y04674*
X03668Y04679*
X03669Y04685*
X03668Y04691*
X03665Y04696*
X0366Y04699*
X03654Y047*
G37*
G36*
X03516Y04602D02*
X03503D01*
Y04589*
X03505*
X03512Y04593*
X03516Y046*
Y04602*
G37*
G36*
X03493Y04625D02*
X03491D01*
X03484Y04621*
X0348Y04614*
Y04612*
X03493*
Y04625*
G37*
G36*
X04084Y04705D02*
X04071D01*
Y04692*
X04073*
X0408Y04696*
X04084Y04703*
Y04705*
G37*
G36*
X04061Y04728D02*
X04059D01*
X04052Y04724*
X04048Y04717*
Y04715*
X04061*
Y04728*
G37*
G36*
X02316Y04704D02*
X0231Y04703D01*
X02305Y047*
X02302Y04695*
X02301Y04689*
X02302Y04683*
X02305Y04678*
X0231Y04675*
X02316Y04674*
X02322Y04675*
X02327Y04678*
X0233Y04683*
X02331Y04689*
X0233Y04695*
X02327Y047*
X02322Y04703*
X02316Y04704*
G37*
G36*
X04061Y04705D02*
X04048D01*
Y04703*
X04052Y04696*
X04059Y04692*
X04061*
Y04705*
G37*
G36*
X04902Y04926D02*
X04895Y04925D01*
X04884Y0492*
X04875Y04913*
X04868Y04904*
X04863Y04893*
X04862Y04886*
X04902*
Y04926*
G37*
G36*
X04912D02*
Y04886D01*
X04952*
X04951Y04893*
X04946Y04904*
X04939Y04913*
X0493Y0492*
X04919Y04925*
X04912Y04926*
G37*
G36*
X02776Y04885D02*
X0277Y04884D01*
X02765Y04881*
X02762Y04876*
X02761Y0487*
X02762Y04864*
X02765Y04859*
X0277Y04856*
X02776Y04855*
X02782Y04856*
X02787Y04859*
X0279Y04864*
X02791Y0487*
X0279Y04876*
X02787Y04881*
X02782Y04884*
X02776Y04885*
G37*
G36*
X02729Y04903D02*
X02723Y04902D01*
X02718Y04899*
X02715Y04894*
X02714Y04888*
X02715Y04882*
X02718Y04877*
X02723Y04874*
X02729Y04873*
X02735Y04874*
X0274Y04877*
X02743Y04882*
X02744Y04888*
X02743Y04894*
X0274Y04899*
X02735Y04902*
X02729Y04903*
G37*
G36*
X02545Y05035D02*
X0251D01*
X02511Y0503*
X02515Y0502*
X02521Y05011*
X0253Y05005*
X0254Y05001*
X02545Y05*
Y05035*
G37*
G36*
X0259D02*
X02555D01*
Y05*
X0256Y05001*
X0257Y05005*
X02579Y05011*
X02585Y0502*
X02589Y0503*
X0259Y05035*
G37*
G36*
X02615Y04907D02*
X02609Y04906D01*
X02604Y04902*
X02601Y04898*
X02596*
X02594Y04902*
X02589Y04905*
X02583Y04906*
X02577Y04905*
X02572Y04902*
X02569Y04897*
X02568Y04891*
X02569Y04885*
X02572Y0488*
X02577Y04877*
X02583Y04876*
X02589Y04877*
X02594Y0488*
X02597Y04884*
X02602*
X02604Y04881*
X02609Y04877*
X02615Y04876*
X02621Y04877*
X02626Y04881*
X02629Y04886*
X0263Y04891*
X02629Y04897*
X02626Y04902*
X02621Y04906*
X02615Y04907*
G37*
G36*
X02126Y0496D02*
X0212Y04959D01*
X02115Y04956*
X02112Y04951*
X02111Y04945*
X02112Y04939*
X02115Y04934*
X0212Y04931*
X02126Y0493*
X02132Y04931*
X02137Y04934*
X0214Y04939*
X02141Y04945*
X0214Y04951*
X02137Y04956*
X02132Y04959*
X02126Y0496*
G37*
G36*
X04952Y04876D02*
X04912D01*
Y04836*
X04919Y04837*
X0493Y04842*
X04939Y04849*
X04946Y04858*
X04951Y04869*
X04952Y04876*
G37*
G36*
X02591Y04818D02*
X02585Y04817D01*
X0258Y04814*
X02577Y04809*
X02576Y04803*
X02577Y04797*
X0258Y04792*
X02585Y04789*
X02591Y04788*
X02597Y04789*
X02602Y04792*
X02605Y04797*
X02606Y04803*
X02605Y04809*
X02602Y04814*
X02597Y04817*
X02591Y04818*
G37*
G36*
X03421Y04803D02*
X03419D01*
X03412Y04799*
X03408Y04792*
Y0479*
X03421*
Y04803*
G37*
G36*
X02442Y04794D02*
Y04781D01*
X02455*
Y04783*
X02451Y0479*
X02444Y04794*
X02442*
G37*
G36*
X02732Y04812D02*
X02726Y04811D01*
X02721Y04808*
X02718Y04803*
X02717Y04797*
X02718Y04791*
X02721Y04786*
X02726Y04783*
X02732Y04782*
X02738Y04783*
X02743Y04786*
X02746Y04791*
X02747Y04797*
X02746Y04803*
X02743Y04808*
X02738Y04811*
X02732Y04812*
G37*
G36*
X02665Y04816D02*
Y04803D01*
X02678*
Y04805*
X02674Y04812*
X02667Y04816*
X02665*
G37*
G36*
X04902Y04876D02*
X04862D01*
X04863Y04869*
X04868Y04858*
X04875Y04849*
X04884Y04842*
X04895Y04837*
X04902Y04836*
Y04876*
G37*
G36*
X03431Y04803D02*
Y0479D01*
X03444*
Y04792*
X0344Y04799*
X03433Y04803*
X03431*
G37*
G36*
X02655Y04816D02*
X02653D01*
X02646Y04812*
X02642Y04805*
Y04803*
X02655*
Y04816*
G37*
G36*
X03493Y04602D02*
X0348D01*
Y046*
X03484Y04593*
X03491Y04589*
X03493*
Y04602*
G37*
G36*
X03599Y04105D02*
X03593Y04104D01*
X03588Y04101*
X03585Y04096*
X03584Y0409*
X03585Y04084*
X03588Y04079*
X03593Y04076*
X03599Y04075*
X03605Y04076*
X0361Y04079*
X03613Y04084*
X03614Y0409*
X03613Y04096*
X0361Y04101*
X03605Y04104*
X03599Y04105*
G37*
G36*
X0366Y04106D02*
X03654Y04105D01*
X03649Y04102*
X03646Y04097*
X03645Y04091*
X03646Y04085*
X03649Y0408*
X03654Y04077*
X0366Y04076*
X03666Y04077*
X03671Y0408*
X03674Y04085*
X03675Y04091*
X03674Y04097*
X03671Y04102*
X03666Y04105*
X0366Y04106*
G37*
G36*
X05207Y04069D02*
X05196Y04068D01*
X05186Y04064*
X05178Y04057*
X05171Y04049*
X05167Y04039*
X05166Y04028*
X05167Y04017*
X05171Y04007*
X05178Y03999*
X05186Y03992*
X05196Y03988*
X05207Y03987*
X05218Y03988*
X05228Y03992*
X05236Y03999*
X05243Y04007*
X05247Y04017*
X05248Y04028*
X05247Y04039*
X05243Y04049*
X05236Y04057*
X05228Y04064*
X05218Y04068*
X05207Y04069*
G37*
G36*
X05507D02*
X05496Y04068D01*
X05486Y04064*
X05478Y04057*
X05471Y04049*
X05467Y04039*
X05466Y04028*
X05467Y04017*
X05471Y04007*
X05478Y03999*
X05486Y03992*
X05496Y03988*
X05507Y03987*
X05518Y03988*
X05528Y03992*
X05536Y03999*
X05543Y04007*
X05547Y04017*
X05548Y04028*
X05547Y04039*
X05543Y04049*
X05536Y04057*
X05528Y04064*
X05518Y04068*
X05507Y04069*
G37*
G36*
X03639Y04214D02*
X03633Y04213D01*
X03628Y0421*
X03625Y04205*
X03624Y04199*
X03625Y04193*
X03628Y04188*
X03633Y04185*
X03639Y04184*
X03645Y04185*
X0365Y04188*
X03653Y04193*
X03654Y04199*
X03653Y04205*
X0365Y0421*
X03645Y04213*
X03639Y04214*
G37*
G36*
X03688D02*
X03682Y04213D01*
X03677Y0421*
X03674Y04205*
X03673Y04199*
X03674Y04193*
X03677Y04188*
X03682Y04185*
X03688Y04184*
X03694Y04185*
X03699Y04188*
X03702Y04193*
X03703Y04199*
X03702Y04205*
X03699Y0421*
X03694Y04213*
X03688Y04214*
G37*
G36*
X03724Y04106D02*
X03718Y04105D01*
X03713Y04102*
X0371Y04097*
X03709Y04091*
X0371Y04085*
X03713Y0408*
X03718Y04077*
X03724Y04076*
X0373Y04077*
X03735Y0408*
X03738Y04085*
X03739Y04091*
X03738Y04097*
X03735Y04102*
X0373Y04105*
X03724Y04106*
G37*
G36*
X03497Y04196D02*
X03491Y04195D01*
X03486Y04192*
X03483Y04187*
X03482Y04181*
X03483Y04175*
X03486Y0417*
X03491Y04167*
X03497Y04166*
X03503Y04167*
X03508Y0417*
X03511Y04175*
X03512Y04181*
X03511Y04187*
X03508Y04192*
X03503Y04195*
X03497Y04196*
G37*
G36*
X04907Y04069D02*
X04896Y04068D01*
X04886Y04064*
X04878Y04057*
X04871Y04049*
X04867Y04039*
X04866Y04028*
X04867Y04017*
X04871Y04007*
X04878Y03999*
X04886Y03992*
X04896Y03988*
X04907Y03987*
X04918Y03988*
X04928Y03992*
X04936Y03999*
X04943Y04007*
X04947Y04017*
X04948Y04028*
X04947Y04039*
X04943Y04049*
X04936Y04057*
X04928Y04064*
X04918Y04068*
X04907Y04069*
G37*
G36*
X02118Y03846D02*
X02116D01*
X02109Y03842*
X02105Y03835*
Y03833*
X02118*
Y03846*
G37*
G36*
X02128D02*
Y03833D01*
X02141*
Y03835*
X02137Y03842*
X0213Y03846*
X02128*
G37*
G36*
X02118Y03823D02*
X02105D01*
Y03821*
X02109Y03814*
X02116Y0381*
X02118*
Y03823*
G37*
G36*
X02141D02*
X02128D01*
Y0381*
X0213*
X02137Y03814*
X02141Y03821*
Y03823*
G37*
G36*
X04307Y04069D02*
X04296Y04068D01*
X04286Y04064*
X04278Y04057*
X04271Y04049*
X04267Y04039*
X04266Y04028*
X04267Y04017*
X04271Y04007*
X04278Y03999*
X04286Y03992*
X04296Y03988*
X04307Y03987*
X04318Y03988*
X04328Y03992*
X04336Y03999*
X04343Y04007*
X04347Y04017*
X04348Y04028*
X04347Y04039*
X04343Y04049*
X04336Y04057*
X04328Y04064*
X04318Y04068*
X04307Y04069*
G37*
G36*
X04607D02*
X04596Y04068D01*
X04586Y04064*
X04578Y04057*
X04571Y04049*
X04567Y04039*
X04566Y04028*
X04567Y04017*
X04571Y04007*
X04578Y03999*
X04586Y03992*
X04596Y03988*
X04607Y03987*
X04618Y03988*
X04628Y03992*
X04636Y03999*
X04643Y04007*
X04647Y04017*
X04648Y04028*
X04647Y04039*
X04643Y04049*
X04636Y04057*
X04628Y04064*
X04618Y04068*
X04607Y04069*
G37*
G36*
X03631Y03909D02*
X03618D01*
Y03907*
X03622Y039*
X03629Y03896*
X03631*
Y03909*
G37*
G36*
X03654D02*
X03641D01*
Y03896*
X03643*
X0365Y039*
X03654Y03907*
Y03909*
G37*
G36*
X03085Y04342D02*
X03083D01*
X03076Y04338*
X03072Y04331*
Y04329*
X03085*
Y04342*
G37*
G36*
X03095D02*
Y04329D01*
X03108*
Y04331*
X03104Y04338*
X03097Y04342*
X03095*
G37*
G36*
X03037Y04332D02*
X03035D01*
X03028Y04328*
X03024Y04321*
Y04319*
X03037*
Y04332*
G37*
G36*
X03047D02*
Y04319D01*
X0306*
Y04321*
X03056Y04328*
X03049Y04332*
X03047*
G37*
G36*
X03652Y04405D02*
X03646Y04404D01*
X03641Y04401*
X03638Y04396*
X03637Y0439*
X03638Y04384*
X03641Y04379*
X03646Y04376*
X03652Y04375*
X03658Y04376*
X03663Y04379*
X03666Y04384*
X03667Y0439*
X03666Y04396*
X03663Y04401*
X03658Y04404*
X03652Y04405*
G37*
G36*
X0227Y04617D02*
X02264Y04616D01*
X02259Y04613*
X02256Y04608*
X02255Y04602*
X02256Y04596*
X02259Y04591*
X02264Y04588*
X0227Y04587*
X02276Y04588*
X02281Y04591*
X02284Y04596*
X02285Y04602*
X02284Y04608*
X02281Y04613*
X02276Y04616*
X0227Y04617*
G37*
G36*
X02644Y04353D02*
X02642D01*
X02635Y04349*
X02631Y04342*
Y0434*
X02644*
Y04353*
G37*
G36*
X02654D02*
Y0434D01*
X02667*
Y04342*
X02663Y04349*
X02656Y04353*
X02654*
G37*
G36*
X03652Y04349D02*
X03646Y04348D01*
X03641Y04345*
X03638Y0434*
X03637Y04334*
X03638Y04328*
X03641Y04323*
X03646Y0432*
X03652Y04319*
X03658Y0432*
X03663Y04323*
X03666Y04328*
X03667Y04334*
X03666Y0434*
X03663Y04345*
X03658Y04348*
X03652Y04349*
G37*
G36*
X0306Y04309D02*
X03047D01*
Y04296*
X03049*
X03056Y043*
X0306Y04307*
Y04309*
G37*
G36*
X03085Y04319D02*
X03072D01*
Y04317*
X03076Y0431*
X03083Y04306*
X03085*
Y04319*
G37*
G36*
X03413Y04306D02*
X034D01*
Y04293*
X03402*
X03409Y04297*
X03413Y04304*
Y04306*
G37*
G36*
X03037Y04309D02*
X03024D01*
Y04307*
X03028Y043*
X03035Y04296*
X03037*
Y04309*
G37*
G36*
X02644Y0433D02*
X02631D01*
Y04328*
X02635Y04321*
X02642Y04317*
X02644*
Y0433*
G37*
G36*
X02667D02*
X02654D01*
Y04317*
X02656*
X02663Y04321*
X02667Y04328*
Y0433*
G37*
G36*
X03108Y04319D02*
X03095D01*
Y04306*
X03097*
X03104Y0431*
X03108Y04317*
Y04319*
G37*
G36*
X034Y04329D02*
Y04316D01*
X03413*
Y04318*
X03409Y04325*
X03402Y04329*
X034*
G37*
%LNseniordesign-3*%
%LPD*%
G54D24*
X05021Y04103D02*
X05207Y04289D01*
X03834Y04103D02*
X05021D01*
X04548Y0423D02*
X04607Y04289D01*
X04024Y0423D02*
X04548D01*
X03967Y04173D02*
X04024Y0423D01*
X038Y04173D02*
X03967D01*
X03764Y04208D02*
X038Y04173D01*
X0481Y04192D02*
X04907Y04289D01*
X04085Y04192D02*
X0481D01*
X03935Y04289D02*
X04307D01*
X03848Y04202D02*
X03935Y04289D01*
X04307Y04744D02*
Y04881D01*
Y04744D02*
X04341Y0471D01*
X04513*
X04607Y04739D02*
Y04881D01*
Y04739D02*
X04637Y04709D01*
X04688*
X04799Y03704D02*
X05025D01*
X02629Y03843D02*
Y03997D01*
X02123Y03828D02*
Y03979D01*
X03296Y03562D02*
Y03809D01*
X02238Y0358D02*
Y03725D01*
G54D25*
X05087Y04424D02*
X05207Y04544D01*
X03452Y04424D02*
X05087D01*
X03374Y04346D02*
X03452Y04424D01*
X03374Y04259D02*
Y04346D01*
X04844Y04607D02*
X04907Y04544D01*
X04502Y04607D02*
X04844D01*
X04385Y0449D02*
X04502Y04607D01*
X03368Y0449D02*
X04385D01*
X03273Y04395D02*
X03368Y0449D01*
X03273Y04259D02*
Y04395D01*
X03325Y0426D02*
Y04376D01*
X03394Y04445*
X04424*
X04523Y04544*
X04607*
X03353D02*
X04307D01*
X03223Y04414D02*
X03353Y04544D01*
X03223Y04259D02*
Y04414D01*
X02393Y032D02*
X02473Y0312D01*
X0411*
X04303Y03313*
Y03524*
X05091Y03873D02*
Y03929D01*
X0353Y03679D02*
Y03716D01*
X03485Y03634D02*
X0353Y03679D01*
X03355Y03634D02*
X03485D01*
X03219Y03631D02*
X03226Y03638D01*
X02592Y03631D02*
X03219D01*
X02516Y03707D02*
X02592Y03631D01*
X02457Y03766D02*
X02516Y03707D01*
X02046Y03766D02*
X02457D01*
X05396Y03722D02*
Y03973D01*
X0375Y03751D02*
Y03991D01*
X03227Y03766D02*
Y03959D01*
X05201Y032D02*
X0521Y03209D01*
X03911Y03251D02*
X03986Y03176D01*
X03893Y03251D02*
X03911D01*
X04414Y0338D02*
Y03674D01*
X04101Y03067D02*
X04414Y0338D01*
X03736Y03067D02*
X04101D01*
G54D26*
X0521Y03209D02*
Y03503D01*
X04441Y03918D02*
Y03982D01*
X04513Y03896D02*
Y03956D01*
X04745Y03875D02*
Y03966D01*
G54D27*
X0521Y03503D03*
X0481Y03507D03*
X0461Y03503D03*
G54D29*
X0255Y0504D03*
G54D30*
X03834Y04103D03*
X03764Y04208D03*
X04085Y04192D03*
X03848Y04202D03*
X03223Y04259D03*
X03273D03*
X03325Y0426D03*
X03374Y04259D03*
X04303Y03524D03*
X04513Y0471D03*
X04688Y04709D03*
X03355Y03634D03*
X03226Y03638D03*
X0353Y03716D03*
X02516Y03707D03*
X02046Y03766D03*
X05025Y03704D03*
X05091Y03929D03*
X05073Y03777D03*
X05396Y03722D03*
X04441Y03918D03*
X04636Y03921D03*
X04513Y03956D03*
X04575Y03779D03*
X02581Y03738D03*
X03227Y03766D03*
X0375Y03751D03*
X02393Y032D03*
X03077Y03767D03*
X04256Y03731D03*
X03296Y03809D03*
X02238Y03725D03*
X02123Y03828D03*
X03636Y03914D03*
X0266Y04798D03*
X02629Y03843D03*
X02437Y04776D03*
X04066Y0471D03*
X03042Y04314D03*
X03395Y04311D03*
X03498Y04607D03*
X0309Y04324D03*
X03426Y04785D03*
X02649Y04335D03*
X04399Y03502D03*
X04745Y03966D03*
X04742Y02957D03*
X04842Y02958D03*
X04942D03*
X05042Y02957D03*
X05139D03*
X05242Y02958D03*
X04341Y03251D03*
X03986Y03176D03*
X03736Y03067D03*
X04414Y03674D03*
G54D31*
X04907Y04881D03*
X04607D03*
X04307D03*
Y04544D03*
X04607D03*
X04907D03*
X05207D03*
Y04289D03*
X04907D03*
X04607D03*
X04307D03*
M02*