%FSTAX23Y23*%
%MOIN*%
%SFA1B1*%

%IPPOS*%
%ADD24C,0.010000*%
%ADD62C,0.004000*%
%ADD63C,0.020000*%
%ADD64C,0.002000*%
%LNseniordesign-1*%
%LPD*%
G54D24*
X03445Y04201D02*
Y04594D01*
X02752Y04201D02*
X03445D01*
X02752D02*
Y04594D01*
X03445*
G54D62*
X04041Y03773D02*
D01*
X0404Y03774*
X0404Y03775*
X0404Y03777*
X0404Y03778*
X04039Y03779*
X04039Y03781*
X04038Y03782*
X04037Y03783*
X04037Y03784*
X04036Y03785*
X04035Y03786*
X04034Y03787*
X04033Y03788*
X04032Y03789*
X04031Y0379*
X04029Y0379*
X04028Y03791*
X04027Y03792*
X04025Y03792*
X04024Y03792*
X04023Y03792*
X04021Y03792*
X0402*
X04018Y03792*
X04017Y03792*
X04016Y03792*
X04014Y03792*
X04013Y03791*
X04012Y0379*
X04011Y0379*
X04009Y03789*
X04008Y03788*
X04007Y03787*
X04006Y03786*
X04005Y03785*
X04004Y03784*
X04004Y03783*
X04003Y03782*
X04002Y03781*
X04002Y03779*
X04001Y03778*
X04001Y03777*
X04001Y03775*
X04001Y03774*
X04001Y03773*
X04001Y03771*
X04001Y0377*
X04001Y03768*
X04001Y03767*
X04002Y03766*
X04002Y03764*
X04003Y03763*
X04004Y03762*
X04004Y03761*
X04005Y0376*
X04006Y03759*
X04007Y03758*
X04008Y03757*
X04009Y03756*
X04011Y03755*
X04012Y03755*
X04013Y03754*
X04014Y03753*
X04016Y03753*
X04017Y03753*
X04018Y03753*
X0402Y03753*
X04021*
X04023Y03753*
X04024Y03753*
X04025Y03753*
X04027Y03753*
X04028Y03754*
X04029Y03755*
X04031Y03755*
X04032Y03756*
X04033Y03757*
X04034Y03758*
X04035Y03759*
X04036Y0376*
X04037Y03761*
X04037Y03762*
X04038Y03763*
X04039Y03764*
X04039Y03766*
X0404Y03767*
X0404Y03768*
X0404Y0377*
X0404Y03771*
X04041Y03773*
X02963Y03758D02*
D01*
X02962Y03759*
X02962Y0376*
X02962Y03762*
X02962Y03763*
X02961Y03764*
X02961Y03766*
X0296Y03767*
X02959Y03768*
X02959Y03769*
X02958Y0377*
X02957Y03771*
X02956Y03772*
X02955Y03773*
X02954Y03774*
X02953Y03775*
X02951Y03775*
X0295Y03776*
X02949Y03777*
X02947Y03777*
X02946Y03777*
X02945Y03777*
X02943Y03777*
X02942*
X0294Y03777*
X02939Y03777*
X02938Y03777*
X02936Y03777*
X02935Y03776*
X02934Y03775*
X02933Y03775*
X02931Y03774*
X0293Y03773*
X02929Y03772*
X02928Y03771*
X02927Y0377*
X02926Y03769*
X02926Y03768*
X02925Y03767*
X02924Y03766*
X02924Y03764*
X02923Y03763*
X02923Y03762*
X02923Y0376*
X02923Y03759*
X02923Y03758*
X02923Y03756*
X02923Y03755*
X02923Y03753*
X02923Y03752*
X02924Y03751*
X02924Y03749*
X02925Y03748*
X02926Y03747*
X02926Y03746*
X02927Y03745*
X02928Y03744*
X02929Y03743*
X0293Y03742*
X02931Y03741*
X02933Y0374*
X02934Y0374*
X02935Y03739*
X02936Y03738*
X02938Y03738*
X02939Y03738*
X0294Y03738*
X02942Y03738*
X02943*
X02945Y03738*
X02946Y03738*
X02947Y03738*
X02949Y03738*
X0295Y03739*
X02951Y0374*
X02953Y0374*
X02954Y03741*
X02955Y03742*
X02956Y03743*
X02957Y03744*
X02958Y03745*
X02959Y03746*
X02959Y03747*
X0296Y03748*
X02961Y03749*
X02961Y03751*
X02962Y03752*
X02962Y03753*
X02962Y03755*
X02962Y03756*
X02963Y03758*
X03496Y03779D02*
D01*
X03495Y0378*
X03495Y03781*
X03495Y03783*
X03495Y03784*
X03494Y03785*
X03494Y03787*
X03493Y03788*
X03492Y03789*
X03492Y0379*
X03491Y03791*
X0349Y03792*
X03489Y03793*
X03488Y03794*
X03487Y03795*
X03486Y03796*
X03484Y03796*
X03483Y03797*
X03482Y03798*
X0348Y03798*
X03479Y03798*
X03478Y03798*
X03476Y03798*
X03475*
X03473Y03798*
X03472Y03798*
X03471Y03798*
X03469Y03798*
X03468Y03797*
X03467Y03796*
X03466Y03796*
X03464Y03795*
X03463Y03794*
X03462Y03793*
X03461Y03792*
X0346Y03791*
X03459Y0379*
X03459Y03789*
X03458Y03788*
X03457Y03787*
X03457Y03785*
X03456Y03784*
X03456Y03783*
X03456Y03781*
X03456Y0378*
X03456Y03779*
X03456Y03777*
X03456Y03776*
X03456Y03774*
X03456Y03773*
X03457Y03772*
X03457Y0377*
X03458Y03769*
X03459Y03768*
X03459Y03767*
X0346Y03766*
X03461Y03765*
X03462Y03764*
X03463Y03763*
X03464Y03762*
X03466Y03761*
X03467Y03761*
X03468Y0376*
X03469Y03759*
X03471Y03759*
X03472Y03759*
X03473Y03759*
X03475Y03759*
X03476*
X03478Y03759*
X03479Y03759*
X0348Y03759*
X03482Y03759*
X03483Y0376*
X03484Y03761*
X03486Y03761*
X03487Y03762*
X03488Y03763*
X03489Y03764*
X0349Y03765*
X03491Y03766*
X03492Y03767*
X03492Y03768*
X03493Y03769*
X03494Y0377*
X03494Y03772*
X03495Y03773*
X03495Y03774*
X03495Y03776*
X03495Y03777*
X03496Y03779*
X02443Y0377D02*
D01*
X02442Y03771*
X02442Y03772*
X02442Y03774*
X02442Y03775*
X02441Y03776*
X02441Y03778*
X0244Y03779*
X02439Y0378*
X02439Y03781*
X02438Y03782*
X02437Y03783*
X02436Y03784*
X02435Y03785*
X02434Y03786*
X02433Y03787*
X02431Y03787*
X0243Y03788*
X02429Y03789*
X02427Y03789*
X02426Y03789*
X02425Y03789*
X02423Y03789*
X02422*
X0242Y03789*
X02419Y03789*
X02418Y03789*
X02416Y03789*
X02415Y03788*
X02414Y03787*
X02413Y03787*
X02411Y03786*
X0241Y03785*
X02409Y03784*
X02408Y03783*
X02407Y03782*
X02406Y03781*
X02406Y0378*
X02405Y03779*
X02404Y03778*
X02404Y03776*
X02403Y03775*
X02403Y03774*
X02403Y03772*
X02403Y03771*
X02403Y0377*
X02403Y03768*
X02403Y03767*
X02403Y03765*
X02403Y03764*
X02404Y03763*
X02404Y03761*
X02405Y0376*
X02406Y03759*
X02406Y03758*
X02407Y03757*
X02408Y03756*
X02409Y03755*
X0241Y03754*
X02411Y03753*
X02413Y03752*
X02414Y03752*
X02415Y03751*
X02416Y0375*
X02418Y0375*
X02419Y0375*
X0242Y0375*
X02422Y0375*
X02423*
X02425Y0375*
X02426Y0375*
X02427Y0375*
X02429Y0375*
X0243Y03751*
X02431Y03752*
X02433Y03752*
X02434Y03753*
X02435Y03754*
X02436Y03755*
X02437Y03756*
X02438Y03757*
X02439Y03758*
X02439Y03759*
X0244Y0376*
X02441Y03761*
X02441Y03763*
X02442Y03764*
X02442Y03765*
X02442Y03767*
X02442Y03768*
X02443Y0377*
X02358Y0446D02*
D01*
X02357Y04461*
X02357Y04462*
X02357Y04464*
X02357Y04465*
X02356Y04466*
X02356Y04468*
X02355Y04469*
X02354Y0447*
X02354Y04471*
X02353Y04472*
X02352Y04473*
X02351Y04474*
X0235Y04475*
X02349Y04476*
X02348Y04477*
X02346Y04477*
X02345Y04478*
X02344Y04479*
X02342Y04479*
X02341Y04479*
X0234Y04479*
X02338Y04479*
X02337*
X02335Y04479*
X02334Y04479*
X02333Y04479*
X02331Y04479*
X0233Y04478*
X02329Y04477*
X02328Y04477*
X02326Y04476*
X02325Y04475*
X02324Y04474*
X02323Y04473*
X02322Y04472*
X02321Y04471*
X02321Y0447*
X0232Y04469*
X02319Y04468*
X02319Y04466*
X02318Y04465*
X02318Y04464*
X02318Y04462*
X02318Y04461*
X02318Y0446*
X02318Y04458*
X02318Y04457*
X02318Y04455*
X02318Y04454*
X02319Y04453*
X02319Y04451*
X0232Y0445*
X02321Y04449*
X02321Y04448*
X02322Y04447*
X02323Y04446*
X02324Y04445*
X02325Y04444*
X02326Y04443*
X02328Y04442*
X02329Y04442*
X0233Y04441*
X02331Y0444*
X02333Y0444*
X02334Y0444*
X02335Y0444*
X02337Y0444*
X02338*
X0234Y0444*
X02341Y0444*
X02342Y0444*
X02344Y0444*
X02345Y04441*
X02346Y04442*
X02348Y04442*
X02349Y04443*
X0235Y04444*
X02351Y04445*
X02352Y04446*
X02353Y04447*
X02354Y04448*
X02354Y04449*
X02355Y0445*
X02356Y04451*
X02356Y04453*
X02357Y04454*
X02357Y04455*
X02357Y04457*
X02357Y04458*
X02358Y0446*
X04094Y04335D02*
D01*
X04093Y04336*
X04093Y04337*
X04093Y04339*
X04093Y0434*
X04092Y04341*
X04092Y04343*
X04091Y04344*
X0409Y04345*
X0409Y04346*
X04089Y04347*
X04088Y04348*
X04087Y04349*
X04086Y0435*
X04085Y04351*
X04084Y04352*
X04082Y04352*
X04081Y04353*
X0408Y04354*
X04078Y04354*
X04077Y04354*
X04076Y04354*
X04074Y04354*
X04073*
X04071Y04354*
X0407Y04354*
X04069Y04354*
X04067Y04354*
X04066Y04353*
X04065Y04352*
X04064Y04352*
X04062Y04351*
X04061Y0435*
X0406Y04349*
X04059Y04348*
X04058Y04347*
X04057Y04346*
X04057Y04345*
X04056Y04344*
X04055Y04343*
X04055Y04341*
X04054Y0434*
X04054Y04339*
X04054Y04337*
X04054Y04336*
X04054Y04335*
X04054Y04333*
X04054Y04332*
X04054Y0433*
X04054Y04329*
X04055Y04328*
X04055Y04326*
X04056Y04325*
X04057Y04324*
X04057Y04323*
X04058Y04322*
X04059Y04321*
X0406Y0432*
X04061Y04319*
X04062Y04318*
X04064Y04317*
X04065Y04317*
X04066Y04316*
X04067Y04315*
X04069Y04315*
X0407Y04315*
X04071Y04315*
X04073Y04315*
X04074*
X04076Y04315*
X04077Y04315*
X04078Y04315*
X0408Y04315*
X04081Y04316*
X04082Y04317*
X04084Y04317*
X04085Y04318*
X04086Y04319*
X04087Y0432*
X04088Y04321*
X04089Y04322*
X0409Y04323*
X0409Y04324*
X04091Y04325*
X04092Y04326*
X04092Y04328*
X04093Y04329*
X04093Y0433*
X04093Y04332*
X04093Y04333*
X04094Y04335*
X03Y04917D02*
D01*
X02999Y04918*
X02999Y04919*
X02999Y04921*
X02999Y04922*
X02998Y04923*
X02998Y04925*
X02997Y04926*
X02996Y04927*
X02996Y04928*
X02995Y04929*
X02994Y0493*
X02993Y04931*
X02992Y04932*
X02991Y04933*
X0299Y04934*
X02988Y04934*
X02987Y04935*
X02986Y04936*
X02984Y04936*
X02983Y04936*
X02982Y04936*
X0298Y04936*
X02979*
X02977Y04936*
X02976Y04936*
X02975Y04936*
X02973Y04936*
X02972Y04935*
X02971Y04934*
X0297Y04934*
X02968Y04933*
X02967Y04932*
X02966Y04931*
X02965Y0493*
X02964Y04929*
X02963Y04928*
X02963Y04927*
X02962Y04926*
X02961Y04925*
X02961Y04923*
X0296Y04922*
X0296Y04921*
X0296Y04919*
X0296Y04918*
X0296Y04917*
X0296Y04915*
X0296Y04914*
X0296Y04912*
X0296Y04911*
X02961Y0491*
X02961Y04908*
X02962Y04907*
X02963Y04906*
X02963Y04905*
X02964Y04904*
X02965Y04903*
X02966Y04902*
X02967Y04901*
X02968Y049*
X0297Y04899*
X02971Y04899*
X02972Y04898*
X02973Y04897*
X02975Y04897*
X02976Y04897*
X02977Y04897*
X02979Y04897*
X0298*
X02982Y04897*
X02983Y04897*
X02984Y04897*
X02986Y04897*
X02987Y04898*
X02988Y04899*
X0299Y04899*
X02991Y049*
X02992Y04901*
X02993Y04902*
X02994Y04903*
X02995Y04904*
X02996Y04905*
X02996Y04906*
X02997Y04907*
X02998Y04908*
X02998Y0491*
X02999Y04911*
X02999Y04912*
X02999Y04914*
X02999Y04915*
X03Y04917*
X04675Y03659D02*
D01*
X04674Y0366*
X04674Y03661*
X04674Y03663*
X04674Y03664*
X04673Y03665*
X04673Y03667*
X04672Y03668*
X04671Y03669*
X04671Y0367*
X0467Y03671*
X04669Y03672*
X04668Y03673*
X04667Y03674*
X04666Y03675*
X04665Y03676*
X04663Y03676*
X04662Y03677*
X04661Y03678*
X04659Y03678*
X04658Y03678*
X04657Y03678*
X04655Y03678*
X04654*
X04652Y03678*
X04651Y03678*
X0465Y03678*
X04648Y03678*
X04647Y03677*
X04646Y03676*
X04645Y03676*
X04643Y03675*
X04642Y03674*
X04641Y03673*
X0464Y03672*
X04639Y03671*
X04638Y0367*
X04638Y03669*
X04637Y03668*
X04636Y03667*
X04636Y03665*
X04635Y03664*
X04635Y03663*
X04635Y03661*
X04635Y0366*
X04635Y03659*
X04635Y03657*
X04635Y03656*
X04635Y03654*
X04635Y03653*
X04636Y03652*
X04636Y0365*
X04637Y03649*
X04638Y03648*
X04638Y03647*
X04639Y03646*
X0464Y03645*
X04641Y03644*
X04642Y03643*
X04643Y03642*
X04645Y03641*
X04646Y03641*
X04647Y0364*
X04648Y03639*
X0465Y03639*
X04651Y03639*
X04652Y03639*
X04654Y03639*
X04655*
X04657Y03639*
X04658Y03639*
X04659Y03639*
X04661Y03639*
X04662Y0364*
X04663Y03641*
X04665Y03641*
X04666Y03642*
X04667Y03643*
X04668Y03644*
X04669Y03645*
X0467Y03646*
X04671Y03647*
X04671Y03648*
X04672Y03649*
X04673Y0365*
X04673Y03652*
X04674Y03653*
X04674Y03654*
X04674Y03656*
X04674Y03657*
X04675Y03659*
X02882Y03317D02*
X02992D01*
X02882Y03261D02*
Y03317D01*
Y03261D02*
X02992D01*
Y03317*
X02666Y03361D02*
X02776D01*
Y03417*
X02666D02*
X02776D01*
X02666Y03361D02*
Y03417D01*
X03537Y04291D02*
X03593D01*
Y04181D02*
Y04291D01*
X03537Y04181D02*
X03593D01*
X03537D02*
Y04291D01*
Y0435D02*
X03593D01*
X03537D02*
Y0446D01*
X03593*
Y0435D02*
Y0446D01*
X02604Y04553D02*
X02674D01*
X02604Y04419D02*
X02674D01*
X02604D02*
Y04553D01*
X02674Y04419D02*
Y04553D01*
X02998Y04711D02*
X03054D01*
X02998D02*
Y04821D01*
X03054*
Y04711D02*
Y04821D01*
X02091Y0419D02*
Y04246D01*
X02201*
Y0419D02*
Y04246D01*
X02091Y0419D02*
X02201D01*
X02089Y04313D02*
Y04369D01*
X02199*
Y04313D02*
Y04369D01*
X02089Y04313D02*
X02199D01*
X03236Y04734D02*
X03306D01*
X03236Y04868D02*
X03306D01*
Y04734D02*
Y04868D01*
X03236Y04734D02*
Y04868D01*
X03527Y04835D02*
X03597D01*
X03527Y04701D02*
X03597D01*
X03527D02*
Y04835D01*
X03597Y04701D02*
Y04835D01*
X02619Y04242D02*
Y0434D01*
Y04242D02*
X02675D01*
Y0434*
X02619D02*
X02675D01*
X03378Y04719D02*
Y04817D01*
Y04719D02*
X03434D01*
Y04817*
X03378D02*
X03434D01*
X0359Y04513D02*
Y04611D01*
X03534D02*
X0359D01*
X03534Y04513D02*
Y04611D01*
Y04513D02*
X0359D01*
X04153Y03566D02*
Y03622D01*
X04043Y03566D02*
X04153D01*
X04043D02*
Y03622D01*
X04153*
X03808Y0347D02*
Y03526D01*
X03918*
Y0347D02*
Y03526D01*
X03808Y0347D02*
X03918D01*
X03884Y03369D02*
Y03425D01*
X03994*
Y03369D02*
Y03425D01*
X03884Y03369D02*
X03994D01*
X03739Y03567D02*
Y03623D01*
X03849*
Y03567D02*
Y03623D01*
X03739Y03567D02*
X03849D01*
X02841Y03259D02*
Y03315D01*
X02731Y03259D02*
X02841D01*
X02731D02*
Y03315D01*
X02841*
X03074Y03551D02*
Y03607D01*
X02964Y03551D02*
X03074D01*
X02964D02*
Y03607D01*
X03074*
X02735Y0345D02*
Y03506D01*
X02845*
Y0345D02*
Y03506D01*
X02735Y0345D02*
X02845D01*
X02816Y03358D02*
Y03414D01*
X02926*
Y03358D02*
Y03414D01*
X02816Y03358D02*
X02926D01*
X02666Y03551D02*
Y03607D01*
X02776*
Y03551D02*
Y03607D01*
X02666Y03551D02*
X02776D01*
X03366Y03265D02*
Y03321D01*
X03256Y03265D02*
X03366D01*
X03256D02*
Y03321D01*
X03366*
X03608Y03563D02*
Y03619D01*
X03498Y03563D02*
X03608D01*
X03498D02*
Y03619D01*
X03608*
X0327Y03463D02*
Y03519D01*
X0338*
Y03463D02*
Y03519D01*
X0327Y03463D02*
X0338D01*
X03339Y03362D02*
Y03418D01*
X03449*
Y03362D02*
Y03418D01*
X03339Y03362D02*
X03449D01*
X03202Y03563D02*
Y03619D01*
X03312*
Y03563D02*
Y03619D01*
X03202Y03563D02*
X03312D01*
X02328Y03275D02*
Y03331D01*
X02218Y03275D02*
X02328D01*
X02218D02*
Y03331D01*
X02328*
X02568Y03555D02*
Y03611D01*
X02458Y03555D02*
X02568D01*
X02458D02*
Y03611D01*
X02568*
X02231Y03462D02*
Y03518D01*
X02341*
Y03462D02*
Y03518D01*
X02231Y03462D02*
X02341D01*
X02299Y0337D02*
Y03426D01*
X02409*
Y0337D02*
Y03426D01*
X02299Y0337D02*
X02409D01*
X0215Y03556D02*
Y03612D01*
X0226*
Y03556D02*
Y03612D01*
X0215Y03556D02*
X0226D01*
X0386Y03737D02*
X04057D01*
X0386Y03895D02*
X04057D01*
Y03737D02*
Y03895D01*
X0386Y03737D02*
Y03895D01*
X02782Y03722D02*
X02979D01*
X02782Y0388D02*
X02979D01*
Y03722D02*
Y0388D01*
X02782Y03722D02*
Y0388D01*
X03315Y03743D02*
X03512D01*
X03315Y03901D02*
X03512D01*
Y03743D02*
Y03901D01*
X03315Y03743D02*
Y03901D01*
X02262Y03734D02*
X02459D01*
X02262Y03892D02*
X02459D01*
Y03734D02*
Y03892D01*
X02262Y03734D02*
Y03892D01*
X0374Y03371D02*
Y03427D01*
X0385*
Y03371D02*
Y03427D01*
X0374Y03371D02*
X0385D01*
X04074Y03277D02*
Y03333D01*
X03964Y03277D02*
X04074D01*
X03964D02*
Y03333D01*
X04074*
X04007Y03567D02*
Y03623D01*
X03897Y03567D02*
X04007D01*
X03897D02*
Y03623D01*
X04007*
X04038Y03375D02*
Y03431D01*
X04148*
Y03375D02*
Y03431D01*
X04038Y03375D02*
X04148D01*
X02652Y03815D02*
X02722D01*
X02652Y03681D02*
X02722D01*
X02652D02*
Y03815D01*
X02722Y03681D02*
Y03815D01*
X03002Y03454D02*
Y0351D01*
X02892Y03454D02*
X03002D01*
X02892D02*
Y0351D01*
X03002*
X03077Y03817D02*
X03147D01*
X03077Y03683D02*
X03147D01*
X03077D02*
Y03817D01*
X03147Y03683D02*
Y03817D01*
X02929Y03549D02*
Y03605D01*
X02819Y03549D02*
X02929D01*
X02819D02*
Y03605D01*
X02929*
X02962Y03359D02*
Y03415D01*
X03072*
Y03359D02*
Y03415D01*
X02962Y03359D02*
X03072D01*
X03195Y03831D02*
X03265D01*
X03195Y03697D02*
X03265D01*
X03195D02*
Y03831D01*
X03265Y03697D02*
Y03831D01*
X03531Y03463D02*
Y03519D01*
X03421Y03463D02*
X03531D01*
X03421D02*
Y03519D01*
X03531*
X03602Y03829D02*
X03672D01*
X03602Y03695D02*
X03672D01*
X03602D02*
Y03829D01*
X03672Y03695D02*
Y03829D01*
X03193Y03362D02*
Y03418D01*
X03303*
Y03362D02*
Y03418D01*
X03193Y03362D02*
X03303D01*
X03526Y03267D02*
Y03323D01*
X03416Y03267D02*
X03526D01*
X03416D02*
Y03323D01*
X03526*
X03462Y03562D02*
Y03618D01*
X03352Y03562D02*
X03462D01*
X03352D02*
Y03618D01*
X03462*
X03492Y03368D02*
Y03424D01*
X03602*
Y03368D02*
Y03424D01*
X03492Y03368D02*
X03602D01*
X02144Y03803D02*
X02214D01*
X02144Y03669D02*
X02214D01*
X02144D02*
Y03803D01*
X02214Y03669D02*
Y03803D01*
X0249Y03462D02*
Y03518D01*
X0238Y03462D02*
X0249D01*
X0238D02*
Y03518D01*
X0249*
X02544Y03805D02*
X02614D01*
X02544Y03671D02*
X02614D01*
X02544D02*
Y03805D01*
X02614Y03671D02*
Y03805D01*
X02151Y0337D02*
Y03426D01*
X02261*
Y0337D02*
Y03426D01*
X02151Y0337D02*
X02261D01*
X02484Y03277D02*
Y03333D01*
X02374Y03277D02*
X02484D01*
X02374D02*
Y03333D01*
X02484*
X02413Y03555D02*
Y03611D01*
X02303Y03555D02*
X02413D01*
X02303D02*
Y03611D01*
X02413*
X02452Y03371D02*
Y03427D01*
X02562*
Y03371D02*
Y03427D01*
X02452Y03371D02*
X02562D01*
X02657Y03871D02*
X02713D01*
X02657D02*
Y03981D01*
X02713*
Y03871D02*
Y03981D01*
X03199Y03879D02*
X03255D01*
X03199D02*
Y03989D01*
X03255*
Y03879D02*
Y03989D01*
X02154Y03858D02*
X0221D01*
X02154D02*
Y03968D01*
X0221*
Y03858D02*
Y03968D01*
X04075Y03469D02*
Y03525D01*
X03965Y03469D02*
X04075D01*
X03965D02*
Y03525D01*
X04075*
X04151Y03837D02*
X04221D01*
X04151Y03703D02*
X04221D01*
X04151D02*
Y03837D01*
X04221Y03703D02*
Y03837D01*
X03914Y03276D02*
Y03332D01*
X03804Y03276D02*
X03914D01*
X03804D02*
Y03332D01*
X03914*
X03723Y03879D02*
X03779D01*
X03723D02*
Y03989D01*
X03779*
Y03879D02*
Y03989D01*
X03718Y03817D02*
X03788D01*
X03718Y03683D02*
X03788D01*
X03718D02*
Y03817D01*
X03788Y03683D02*
Y03817D01*
X02326Y04532D02*
Y04588D01*
Y04532D02*
X02436D01*
Y04588*
X02326D02*
X02436D01*
X02438Y0411D02*
Y04166D01*
X02328D02*
X02438D01*
X02328Y0411D02*
Y04166D01*
Y0411D02*
X02438D01*
X02451Y04777D02*
Y04847D01*
X02317Y04777D02*
Y04847D01*
Y04777D02*
X02451D01*
X02317Y04847D02*
X02451D01*
X02302Y04298D02*
Y04495D01*
X0246Y04298D02*
Y04495D01*
X02302D02*
X0246D01*
X02302Y04298D02*
X0246D01*
X02331Y04648D02*
X02429D01*
X02331D02*
Y04704D01*
X02429*
Y04648D02*
Y04704D01*
X04083Y04543D02*
Y04599D01*
X03973D02*
X04083D01*
X03973Y04543D02*
Y04599D01*
Y04543D02*
X04083D01*
X04093Y04158D02*
Y04214D01*
X03983D02*
X04093D01*
X03983Y04158D02*
Y04214D01*
Y04158D02*
X04093D01*
X0409Y04793D02*
Y04863D01*
X03956Y04793D02*
Y04863D01*
Y04793D02*
X0409D01*
X03956Y04863D02*
X0409D01*
X0411Y043D02*
Y04497D01*
X03952Y043D02*
Y04497D01*
Y043D02*
X0411D01*
X03952Y04497D02*
X0411D01*
X03977Y04666D02*
X04075D01*
X03977D02*
Y04722D01*
X04075*
Y04666D02*
Y04722D01*
X03774Y03379D02*
Y03435D01*
X03664D02*
X03774D01*
X03664Y03379D02*
Y03435D01*
Y03379D02*
X03774D01*
X02653Y03376D02*
Y03432D01*
X02543D02*
X02653D01*
X02543Y03376D02*
Y03432D01*
Y03376D02*
X02653D01*
X03165Y03955D02*
X03221D01*
Y04065*
X03165D02*
X03221D01*
X03165Y03955D02*
Y04065D01*
X02049Y03931D02*
X02105D01*
Y04041*
X02049D02*
X02105D01*
X02049Y03931D02*
Y04041D01*
X03492Y03386D02*
Y03442D01*
Y03386D02*
X03602D01*
Y03442*
X03492D02*
X03602D01*
X03836Y03381D02*
Y03437D01*
Y03381D02*
X03946D01*
Y03437*
X03836D02*
X03946D01*
X02359Y03376D02*
Y03432D01*
Y03376D02*
X02469D01*
Y03432*
X02359D02*
X02469D01*
X02719Y03371D02*
Y03427D01*
Y03371D02*
X02829D01*
Y03427*
X02719D02*
X02829D01*
X03379Y03462D02*
X03435D01*
X03379Y03352D02*
Y03462D01*
Y03352D02*
X03435D01*
Y03462*
X03998Y03356D02*
X04054D01*
Y03466*
X03998D02*
X04054D01*
X03998Y03356D02*
Y03466D01*
X03667Y03258D02*
Y03314D01*
Y03258D02*
X03777D01*
Y03314*
X03667D02*
X03777D01*
X02267Y0346D02*
X02323D01*
X02267Y0335D02*
Y0346D01*
Y0335D02*
X02323D01*
Y0346*
X02876Y03345D02*
X02932D01*
Y03455*
X02876D02*
X02932D01*
X02876Y03345D02*
Y03455D01*
X02544Y03269D02*
Y03325D01*
Y03269D02*
X02654D01*
Y03325*
X02544D02*
X02654D01*
X0338Y0351D02*
X03436D01*
Y0362*
X0338D02*
X03436D01*
X0338Y0351D02*
Y0362D01*
X03996Y03622D02*
X04052D01*
X03996Y03512D02*
Y03622D01*
Y03512D02*
X04052D01*
Y03622*
X02266Y03503D02*
X02322D01*
Y03613*
X02266D02*
X02322D01*
X02266Y03503D02*
Y03613D01*
X02876Y03612D02*
X02932D01*
X02876Y03502D02*
Y03612D01*
Y03502D02*
X02932D01*
Y03612*
X03285Y03462D02*
X03341D01*
X03285Y03352D02*
Y03462D01*
Y03352D02*
X03341D01*
Y03462*
X04096Y03355D02*
X04152D01*
Y03465*
X04096D02*
X04152D01*
X04096Y03355D02*
Y03465D01*
X0217Y03455D02*
X02226D01*
X0217Y03345D02*
Y03455D01*
Y03345D02*
X02226D01*
Y03455*
X02972Y03345D02*
X03028D01*
Y03455*
X02972D02*
X03028D01*
X02972Y03345D02*
Y03455D01*
X03384Y03658D02*
Y03756D01*
X0344*
Y03658D02*
Y03756D01*
X03384Y03658D02*
X0344D01*
X02262Y03646D02*
Y03744D01*
X02318*
Y03646D02*
Y03744D01*
X02262Y03646D02*
X02318D01*
X0325Y03632D02*
X0332D01*
X0325Y03766D02*
X0332D01*
X0325Y03632D02*
Y03766D01*
X0332Y03632D02*
Y03766D01*
X02132Y03644D02*
X02202D01*
X02132Y03778D02*
X02202D01*
X02132Y03644D02*
Y03778D01*
X02202Y03644D02*
Y03778D01*
X03995Y03663D02*
Y03761D01*
X04051*
Y03663D02*
Y03761D01*
X03995Y03663D02*
X04051D01*
X04111Y03649D02*
X04181D01*
X04111Y03783D02*
X04181D01*
X04111Y03649D02*
Y03783D01*
X04181Y03649D02*
Y03783D01*
X02933Y03655D02*
Y03753D01*
X02877Y03655D02*
X02933D01*
X02877D02*
Y03753D01*
X02933*
X03008Y03747D02*
X03078D01*
X03008Y03613D02*
X03078D01*
Y03747*
X03008Y03613D02*
Y03747D01*
X04097Y04065D02*
X04153D01*
X04097Y03955D02*
Y04065D01*
Y03955D02*
X04153D01*
Y04065*
X02977Y04048D02*
X03033D01*
X02977Y03938D02*
Y04048D01*
Y03938D02*
X03033D01*
Y04048*
X03285Y03953D02*
X03341D01*
Y04063*
X03285D02*
X03341D01*
X03285Y03953D02*
Y04063D01*
X02161Y03933D02*
X02217D01*
Y04043*
X02161D02*
X02217D01*
X02161Y03933D02*
Y04043D01*
X03383Y03786D02*
X03439D01*
Y03896*
X03383D02*
X03439D01*
X03383Y03786D02*
Y03896D01*
X0226Y03766D02*
X02316D01*
Y03876*
X0226D02*
X02316D01*
X0226Y03766D02*
Y03876D01*
X03996Y03787D02*
X04052D01*
Y03897*
X03996D02*
X04052D01*
X03996Y03787D02*
Y03897D01*
X02877Y03775D02*
X02933D01*
Y03885*
X02877D02*
X02933D01*
X02877Y03775D02*
Y03885D01*
X03382Y03951D02*
X03438D01*
Y04061*
X03382D02*
X03438D01*
X03382Y03951D02*
Y04061D01*
X04001Y04065D02*
X04057D01*
X04001Y03955D02*
Y04065D01*
Y03955D02*
X04057D01*
Y04065*
X0226Y03935D02*
X02316D01*
Y04045*
X0226D02*
X02316D01*
X0226Y03935D02*
Y04045D01*
X02877Y04047D02*
X02933D01*
X02877Y03937D02*
Y04047D01*
Y03937D02*
X02933D01*
Y04047*
X03478Y03978D02*
Y04034D01*
Y03978D02*
X03588D01*
Y04034*
X03478D02*
X03588D01*
X03833Y03982D02*
Y04038D01*
Y03982D02*
X03943D01*
Y04038*
X03833D02*
X03943D01*
X02363Y03984D02*
Y0404D01*
Y03984D02*
X02473D01*
Y0404*
X02363D02*
X02473D01*
X0272Y03986D02*
Y04042D01*
Y03986D02*
X0283D01*
Y04042*
X0272D02*
X0283D01*
X03781Y03982D02*
Y04038D01*
X03671D02*
X03781D01*
X03671Y03982D02*
Y04038D01*
Y03982D02*
X03781D01*
X02645Y03971D02*
Y04027D01*
X02535D02*
X02645D01*
X02535Y03971D02*
Y04027D01*
Y03971D02*
X02645D01*
X02726Y04392D02*
X02796D01*
X02726Y04258D02*
X02796D01*
Y04392*
X02726Y04258D02*
Y04392D01*
X03073Y04306D02*
Y04404D01*
X03017Y04306D02*
X03073D01*
X03017D02*
Y04404D01*
X03073*
X02895Y04298D02*
X02951D01*
Y04408*
X02895D02*
X02951D01*
X02895Y04298D02*
Y04408D01*
X03474Y05009D02*
X0353D01*
X03474Y04899D02*
Y05009D01*
Y04899D02*
X0353D01*
Y05009*
X03472Y04739D02*
X03528D01*
Y04849*
X03472D02*
X03528D01*
X03472Y04739D02*
Y04849D01*
X03241Y04296D02*
X03297D01*
Y04406*
X03241D02*
X03297D01*
X03241Y04296D02*
Y04406D01*
X03511Y0439D02*
X03581D01*
X03511Y04256D02*
X03581D01*
Y0439*
X03511Y04256D02*
Y0439D01*
X02945Y04559D02*
Y04953D01*
X03339Y04559D02*
Y04953D01*
X02945D02*
X03339D01*
X02945Y04559D02*
X03339D01*
X03426Y04304D02*
Y04402D01*
X0337Y04304D02*
X03426D01*
X0337D02*
Y04402D01*
X03426*
X02742Y04697D02*
X02798D01*
X02742Y04587D02*
Y04697D01*
Y04587D02*
X02798D01*
Y04697*
X03472Y04596D02*
Y04694D01*
X03528*
Y04596D02*
Y04694D01*
X03472Y04596D02*
X03528D01*
X03486Y04477D02*
Y04547D01*
X0362Y04477D02*
Y04547D01*
X03486D02*
X0362D01*
X03486Y04477D02*
X0362D01*
X02634Y04863D02*
Y04961D01*
X0269*
Y04863D02*
Y04961D01*
X02634Y04863D02*
X0269D01*
X02625Y04785D02*
X02695D01*
X02625Y04651D02*
X02695D01*
Y04785*
X02625Y04651D02*
Y04785D01*
X03116Y04306D02*
Y04404D01*
X03172*
Y04306D02*
Y04404D01*
X03116Y04306D02*
X03172D01*
X03075Y0417D02*
Y0424D01*
X03209Y0417D02*
Y0424D01*
X03075D02*
X03209D01*
X03075Y0417D02*
X03209D01*
X02008Y0487D02*
X02106D01*
X02008D02*
Y04926D01*
X02106*
Y0487D02*
Y04926D01*
X02134Y0487D02*
Y04926D01*
Y0487D02*
X02244D01*
Y04926*
X02134D02*
X02244D01*
X02008Y04767D02*
X02106D01*
X02008D02*
Y04823D01*
X02106*
Y04767D02*
Y04823D01*
X02139Y04765D02*
Y04821D01*
Y04765D02*
X02249D01*
Y04821*
X02139D02*
X02249D01*
X04519Y03649D02*
X04575D01*
Y03759*
X04519D02*
X04575D01*
X04519Y03649D02*
Y03759D01*
X04669Y03865D02*
X04767D01*
X04669D02*
Y03921D01*
X04767*
Y03865D02*
Y03921D01*
X04814Y03866D02*
Y03922D01*
Y03866D02*
X04924D01*
Y03922*
X04814D02*
X04924D01*
X0464Y03418D02*
Y03474D01*
Y03418D02*
X0475D01*
Y03474*
X0464D02*
X0475D01*
X04808Y03418D02*
Y03474D01*
Y03418D02*
X04918D01*
Y03474*
X04808D02*
X04918D01*
X05059Y03419D02*
Y03475D01*
X04949D02*
X05059D01*
X04949Y03419D02*
Y03475D01*
Y03419D02*
X05059D01*
X02548Y0386D02*
X02604D01*
Y0397*
X02548D02*
X02604D01*
X02548Y0386D02*
Y0397D01*
X03607Y03874D02*
X03663D01*
Y03984*
X03607D02*
X03663D01*
X03607Y03874D02*
Y03984D01*
X03084Y03875D02*
X0314D01*
Y03985*
X03084D02*
X0314D01*
X03084Y03875D02*
Y03985D01*
X04156Y03895D02*
X04212D01*
Y04005*
X04156D02*
X04212D01*
X04156Y03895D02*
Y04005D01*
X04476Y03719D02*
Y03789D01*
X04342Y03719D02*
Y03789D01*
X04476*
X04342Y03719D02*
X04476D01*
X04338Y03856D02*
Y03926D01*
X04472Y03856D02*
Y03926D01*
X04338Y03856D02*
X04472D01*
X04338Y03926D02*
X04472D01*
X05191Y03689D02*
X05247D01*
X05191D02*
Y03799D01*
X05247*
Y03689D02*
Y03799D01*
X05064Y03859D02*
X0512D01*
X05064D02*
Y03969D01*
X0512*
Y03859D02*
Y03969D01*
X05404Y03658D02*
Y03728D01*
X05538Y03658D02*
Y03728D01*
X05404Y03658D02*
X05538D01*
X05404Y03728D02*
X05538D01*
X05065Y03689D02*
X05121D01*
X05065D02*
Y03799D01*
X05121*
Y03689D02*
Y03799D01*
X05358Y03698D02*
Y03796D01*
X05302D02*
X05358D01*
X05302Y03698D02*
Y03796D01*
Y03698D02*
X05358D01*
X02137Y0466D02*
Y04716D01*
Y0466D02*
X02247D01*
Y04716*
X02137D02*
X02247D01*
X02139Y04572D02*
Y04628D01*
Y04572D02*
X02249D01*
Y04628*
X02139D02*
X02249D01*
X02011Y0466D02*
X02109D01*
X02011D02*
Y04716D01*
X02109*
Y0466D02*
Y04716D01*
X02013Y04572D02*
X02111D01*
X02013D02*
Y04628D01*
X02111*
Y04572D02*
Y04628D01*
X05014Y03623D02*
Y03781D01*
X0462Y03623D02*
Y03781D01*
X05014*
X0462Y03623D02*
X05014D01*
X05362Y04753D02*
Y04809D01*
X05252D02*
X05362D01*
X05252Y04753D02*
Y04809D01*
Y04753D02*
X05362D01*
X04762D02*
Y04809D01*
X04652D02*
X04762D01*
X04652Y04753D02*
Y04809D01*
Y04753D02*
X04762D01*
X05062D02*
Y04809D01*
X04952D02*
X05062D01*
X04952Y04753D02*
Y04809D01*
Y04753D02*
X05062D01*
X04352D02*
Y04809D01*
Y04753D02*
X04462D01*
Y04809*
X04352D02*
X04462D01*
X05279Y04832D02*
Y0493D01*
X05335*
Y04832D02*
Y0493D01*
X05279Y04832D02*
X05335D01*
X04679D02*
Y0493D01*
X04735*
Y04832D02*
Y0493D01*
X04679Y04832D02*
X04735D01*
X04979D02*
Y0493D01*
X05035*
Y04832D02*
Y0493D01*
X04979Y04832D02*
X05035D01*
X04379D02*
Y0493D01*
X04435*
Y04832D02*
Y0493D01*
X04379Y04832D02*
X04435D01*
G54D63*
X03458Y04185D03*
G54D64*
X02976Y03296D02*
X02979Y03299D01*
X02984*
X02987Y03296*
Y03286*
X02984Y03283*
X02979*
X02976Y03286*
X0296Y03283D02*
X02971D01*
X0296Y03294*
Y03296*
X02963Y03299*
X02968*
X02971Y03296*
X02955D02*
X02952Y03299D01*
X02947*
X02945Y03296*
Y03294*
X02947Y03291*
X02945Y03288*
Y03286*
X02947Y03283*
X02952*
X02955Y03286*
Y03288*
X02952Y03291*
X02955Y03294*
Y03296*
X02952Y03291D02*
X02947D01*
X02682Y03382D02*
X02679Y03379D01*
X02674*
X02671Y03382*
Y03392*
X02674Y03395*
X02679*
X02682Y03392*
X02698Y03395D02*
X02687D01*
X02698Y03384*
Y03382*
X02695Y03379*
X0269*
X02687Y03382*
X02703Y03392D02*
X02706Y03395D01*
X02711*
X02713Y03392*
Y03382*
X02711Y03379*
X02706*
X02703Y03382*
Y03384*
X02706Y03387*
X02713*
X03571Y04286D02*
X03555D01*
Y04278*
X03558Y04275*
X03563*
X03566Y04278*
Y04286*
Y0428D02*
X03571Y04275D01*
Y04259D02*
Y0427D01*
X0356Y04259*
X03558*
X03555Y04262*
Y04267*
X03558Y0427*
X03559Y04355D02*
X03575D01*
Y04363*
X03572Y04366*
X03567*
X03564Y04363*
Y04355*
Y04361D02*
X03559Y04366D01*
Y04371D02*
Y04376D01*
Y04374*
X03575*
X03572Y04371*
X03224Y04415D02*
Y04399D01*
X03232*
X03235Y04402*
Y04407*
X03232Y04409*
X03224*
X03219Y04399D02*
X03211D01*
X03208Y04402*
X03211Y04404*
X03216*
X03219Y04407*
X03216Y04409*
X03208*
X03203Y04399D02*
Y04415D01*
X03195*
X03193Y04412*
Y04407*
X03195Y04404*
X03203*
X03187Y04415D02*
X03182D01*
X03185*
Y04399*
X03187*
X03182*
X03164Y04412D02*
X03166Y04415D01*
X03172*
X03174Y04412*
Y04402*
X03172Y04399*
X03166*
X03164Y04402*
X03159Y04412D02*
X03156Y04415D01*
X03151*
X03148Y04412*
Y04409*
X03151Y04407*
X03153*
X03151*
X03148Y04404*
Y04402*
X03151Y04399*
X03156*
X03159Y04402*
X03143Y04412D02*
X0314Y04415D01*
X03135*
X03132Y04412*
Y04409*
X03135Y04407*
X03138*
X03135*
X03132Y04404*
Y04402*
X03135Y04399*
X0314*
X03143Y04402*
X03033Y04727D02*
X03036Y04724D01*
Y04719*
X03033Y04716*
X03023*
X0302Y04719*
Y04724*
X03023Y04727*
X0302Y04732D02*
Y04737D01*
Y04735*
X03036*
X03033Y04732*
Y04745D02*
X03036Y04748D01*
Y04753*
X03033Y04756*
X03023*
X0302Y04753*
Y04748*
X03023Y04745*
X03033*
X02107Y04211D02*
X02104Y04208D01*
X02099*
X02096Y04211*
Y04221*
X02099Y04224*
X02104*
X02107Y04221*
X02112D02*
X02115Y04224D01*
X0212*
X02123Y04221*
Y04211*
X0212Y04208*
X02115*
X02112Y04211*
Y04213*
X02115Y04216*
X02123*
X02084Y0433D02*
X02082Y04327D01*
X02077*
X02074Y0433*
Y0434*
X02077Y04343*
X02082*
X02084Y0434*
X0209Y0433D02*
X02092Y04327D01*
X02098*
X021Y0433*
Y04333*
X02098Y04335*
X021Y04338*
Y0434*
X02098Y04343*
X02092*
X0209Y0434*
Y04338*
X02092Y04335*
X0209Y04333*
Y0433*
X02092Y04335D02*
X02098D01*
X02637D02*
X02653D01*
Y04328*
X0265Y04325*
X02648*
X02645Y04328*
Y04335*
Y04328*
X02642Y04325*
X0264*
X02637Y04328*
Y04335*
X02653Y04312D02*
X02637D01*
X02645Y0432*
Y04309*
X03396Y04812D02*
X03412D01*
Y04805*
X03409Y04802*
X03407*
X03404Y04805*
Y04812*
Y04805*
X03401Y04802*
X03399*
X03396Y04805*
Y04812*
X03399Y04797D02*
X03396Y04794D01*
Y04789*
X03399Y04786*
X03401*
X03404Y04789*
Y04791*
Y04789*
X03407Y04786*
X03409*
X03412Y04789*
Y04794*
X03409Y04797*
X03572Y04518D02*
X03556D01*
Y04525*
X03559Y04528*
X03561*
X03564Y04525*
Y04518*
Y04525*
X03567Y04528*
X03569*
X03572Y04525*
Y04518*
X03556Y04544D02*
Y04533D01*
X03567Y04544*
X03569*
X03572Y04541*
Y04536*
X03569Y04533*
X04148Y03588D02*
Y03604D01*
X0414*
X04137Y03601*
Y03596*
X0414Y03593*
X04148*
X04142D02*
X04137Y03588D01*
X04121D02*
X04132D01*
X04121Y03599*
Y03601*
X04124Y03604*
X04129*
X04132Y03601*
X04116D02*
X04113Y03604D01*
X04108*
X04106Y03601*
Y03599*
X04108Y03596*
X04111*
X04108*
X04106Y03593*
Y03591*
X04108Y03588*
X04113*
X04116Y03591*
X03813Y03504D02*
Y03488D01*
X03821*
X03824Y03491*
Y03496*
X03821Y03499*
X03813*
X03819D02*
X03824Y03504D01*
X0384D02*
X03829D01*
X0384Y03493*
Y03491*
X03837Y03488*
X03832*
X03829Y03491*
X03855Y03504D02*
X03845D01*
X03855Y03493*
Y03491*
X03853Y03488*
X03848*
X03845Y03491*
X03889Y03403D02*
Y03387D01*
X03897*
X039Y0339*
Y03395*
X03897Y03398*
X03889*
X03895D02*
X039Y03403D01*
X03916D02*
X03905D01*
X03916Y03392*
Y0339*
X03913Y03387*
X03908*
X03905Y0339*
X03921Y03403D02*
X03926D01*
X03924*
Y03387*
X03921Y0339*
X03744Y03601D02*
Y03585D01*
X03752*
X03755Y03588*
Y03593*
X03752Y03596*
X03744*
X0375D02*
X03755Y03601D01*
X03771D02*
X0376D01*
X03771Y0359*
Y03588*
X03768Y03585*
X03763*
X0376Y03588*
X03776D02*
X03779Y03585D01*
X03784*
X03786Y03588*
Y03598*
X03784Y03601*
X03779*
X03776Y03598*
Y03588*
X02836Y03281D02*
Y03297D01*
X02828*
X02825Y03294*
Y03289*
X02828Y03286*
X02836*
X0283D02*
X02825Y03281D01*
X0282D02*
X02815D01*
X02817*
Y03297*
X0282Y03294*
X02807Y03284D02*
X02804Y03281D01*
X02799*
X02796Y03284*
Y03294*
X02799Y03297*
X02804*
X02807Y03294*
Y03292*
X02804Y03289*
X02796*
X03069Y03573D02*
Y03589D01*
X03061*
X03058Y03586*
Y03581*
X03061Y03578*
X03069*
X03063D02*
X03058Y03573D01*
X03053D02*
X03048D01*
X0305*
Y03589*
X03053Y03586*
X0304D02*
X03037Y03589D01*
X03032*
X03029Y03586*
Y03584*
X03032Y03581*
X03029Y03578*
Y03576*
X03032Y03573*
X03037*
X0304Y03576*
Y03578*
X03037Y03581*
X0304Y03584*
Y03586*
X03037Y03581D02*
X03032D01*
X0274Y03484D02*
Y03468D01*
X02748*
X02751Y03471*
Y03476*
X02748Y03479*
X0274*
X02746D02*
X02751Y03484D01*
X02756D02*
X02761D01*
X02759*
Y03468*
X02756Y03471*
X02769Y03468D02*
X0278D01*
Y03471*
X02769Y03481*
Y03484*
X02821Y03392D02*
Y03376D01*
X02829*
X02832Y03379*
Y03384*
X02829Y03387*
X02821*
X02827D02*
X02832Y03392D01*
X02837D02*
X02842D01*
X0284*
Y03376*
X02837Y03379*
X02861Y03376D02*
X02856Y03379D01*
X0285Y03384*
Y03389*
X02853Y03392*
X02858*
X02861Y03389*
Y03387*
X02858Y03384*
X0285*
X02671Y03585D02*
Y03569D01*
X02679*
X02682Y03572*
Y03577*
X02679Y0358*
X02671*
X02677D02*
X02682Y03585D01*
X02687D02*
X02692D01*
X0269*
Y03569*
X02687Y03572*
X02711Y03569D02*
X027D01*
Y03577*
X02706Y03574*
X02708*
X02711Y03577*
Y03582*
X02708Y03585*
X02703*
X027Y03582*
X03361Y03287D02*
Y03303D01*
X03353*
X0335Y033*
Y03295*
X03353Y03292*
X03361*
X03355D02*
X0335Y03287D01*
X03345D02*
X0334D01*
X03342*
Y03303*
X03345Y033*
X03324Y03287D02*
Y03303D01*
X03332Y03295*
X03321*
X03603Y03585D02*
Y03601D01*
X03595*
X03592Y03598*
Y03593*
X03595Y0359*
X03603*
X03597D02*
X03592Y03585D01*
X03587D02*
X03582D01*
X03584*
Y03601*
X03587Y03598*
X03574D02*
X03571Y03601D01*
X03566*
X03563Y03598*
Y03596*
X03566Y03593*
X03568*
X03566*
X03563Y0359*
Y03588*
X03566Y03585*
X03571*
X03574Y03588*
X03275Y03497D02*
Y03481D01*
X03283*
X03286Y03484*
Y03489*
X03283Y03492*
X03275*
X03281D02*
X03286Y03497D01*
X03291D02*
X03296D01*
X03294*
Y03481*
X03291Y03484*
X03315Y03497D02*
X03304D01*
X03315Y03486*
Y03484*
X03312Y03481*
X03307*
X03304Y03484*
X03344Y03396D02*
Y0338D01*
X03352*
X03355Y03383*
Y03388*
X03352Y03391*
X03344*
X0335D02*
X03355Y03396D01*
X0336D02*
X03365D01*
X03363*
Y0338*
X0336Y03383*
X03373Y03396D02*
X03379D01*
X03376*
Y0338*
X03373Y03383*
X03207Y03597D02*
Y03581D01*
X03215*
X03218Y03584*
Y03589*
X03215Y03592*
X03207*
X03213D02*
X03218Y03597D01*
X03223D02*
X03228D01*
X03226*
Y03581*
X03223Y03584*
X03236D02*
X03239Y03581D01*
X03244*
X03247Y03584*
Y03594*
X03244Y03597*
X03239*
X03236Y03594*
Y03584*
X02323Y03297D02*
Y03313D01*
X02315*
X02312Y0331*
Y03305*
X02315Y03302*
X02323*
X02317D02*
X02312Y03297D01*
X02307Y033D02*
X02304Y03297D01*
X02299*
X02296Y033*
Y0331*
X02299Y03313*
X02304*
X02307Y0331*
Y03308*
X02304Y03305*
X02296*
X02563Y03577D02*
Y03593D01*
X02555*
X02552Y0359*
Y03585*
X02555Y03582*
X02563*
X02557D02*
X02552Y03577D01*
X02547Y0359D02*
X02544Y03593D01*
X02539*
X02536Y0359*
Y03588*
X02539Y03585*
X02536Y03582*
Y0358*
X02539Y03577*
X02544*
X02547Y0358*
Y03582*
X02544Y03585*
X02547Y03588*
Y0359*
X02544Y03585D02*
X02539D01*
X02236Y03496D02*
Y0348D01*
X02244*
X02247Y03483*
Y03488*
X02244Y03491*
X02236*
X02242D02*
X02247Y03496D01*
X02252Y0348D02*
X02263D01*
Y03483*
X02252Y03493*
Y03496*
X02304Y03404D02*
Y03388D01*
X02312*
X02315Y03391*
Y03396*
X02312Y03399*
X02304*
X0231D02*
X02315Y03404D01*
X02331Y03388D02*
X02325Y03391D01*
X0232Y03396*
Y03401*
X02323Y03404*
X02328*
X02331Y03401*
Y03399*
X02328Y03396*
X0232*
X02155Y0359D02*
Y03574D01*
X02163*
X02166Y03577*
Y03582*
X02163Y03585*
X02155*
X02161D02*
X02166Y0359D01*
X02182Y03574D02*
X02171D01*
Y03582*
X02176Y03579*
X02179*
X02182Y03582*
Y03587*
X02179Y0359*
X02174*
X02171Y03587*
X03756Y03392D02*
X03753Y03389D01*
X03748*
X03745Y03392*
Y03402*
X03748Y03405*
X03753*
X03756Y03402*
X03761Y03392D02*
X03764Y03389D01*
X03769*
X03772Y03392*
Y03394*
X03769Y03397*
X03766*
X03769*
X03772Y034*
Y03402*
X03769Y03405*
X03764*
X03761Y03402*
X03787Y03389D02*
X03782Y03392D01*
X03777Y03397*
Y03402*
X0378Y03405*
X03785*
X03787Y03402*
Y034*
X03785Y03397*
X03777*
X04058Y03312D02*
X04061Y03315D01*
X04066*
X04069Y03312*
Y03302*
X04066Y03299*
X04061*
X04058Y03302*
X04053Y03312D02*
X0405Y03315D01*
X04045*
X04042Y03312*
Y0331*
X04045Y03307*
X04048*
X04045*
X04042Y03304*
Y03302*
X04045Y03299*
X0405*
X04053Y03302*
X04027Y03315D02*
X04037D01*
Y03307*
X04032Y0331*
X04029*
X04027Y03307*
Y03302*
X04029Y03299*
X04034*
X04037Y03302*
X03991Y03602D02*
X03994Y03605D01*
X03999*
X04002Y03602*
Y03592*
X03999Y03589*
X03994*
X03991Y03592*
X03986Y03602D02*
X03983Y03605D01*
X03978*
X03975Y03602*
Y036*
X03978Y03597*
X03981*
X03978*
X03975Y03594*
Y03592*
X03978Y03589*
X03983*
X03986Y03592*
X03962Y03589D02*
Y03605D01*
X0397Y03597*
X0396*
X04054Y03396D02*
X04051Y03393D01*
X04046*
X04043Y03396*
Y03406*
X04046Y03409*
X04051*
X04054Y03406*
X04059Y03396D02*
X04062Y03393D01*
X04067*
X0407Y03396*
Y03398*
X04067Y03401*
X04064*
X04067*
X0407Y03404*
Y03406*
X04067Y03409*
X04062*
X04059Y03406*
X04075Y03396D02*
X04078Y03393D01*
X04083*
X04085Y03396*
Y03398*
X04083Y03401*
X0408*
X04083*
X04085Y03404*
Y03406*
X04083Y03409*
X04078*
X04075Y03406*
X02986Y03489D02*
X02989Y03492D01*
X02994*
X02997Y03489*
Y03479*
X02994Y03476*
X02989*
X02986Y03479*
X02981Y03489D02*
X02978Y03492D01*
X02973*
X0297Y03489*
Y03487*
X02973Y03484*
X02976*
X02973*
X0297Y03481*
Y03479*
X02973Y03476*
X02978*
X02981Y03479*
X02965Y03476D02*
X0296D01*
X02962*
Y03492*
X02965Y03489*
X02913Y03584D02*
X02916Y03587D01*
X02921*
X02924Y03584*
Y03574*
X02921Y03571*
X02916*
X02913Y03574*
X02897Y03571D02*
X02908D01*
X02897Y03582*
Y03584*
X029Y03587*
X02905*
X02908Y03584*
X02892Y03587D02*
X02882D01*
Y03584*
X02892Y03574*
Y03571*
X02978Y0338D02*
X02975Y03377D01*
X0297*
X02967Y0338*
Y0339*
X0297Y03393*
X02975*
X02978Y0339*
X02994Y03393D02*
X02983D01*
X02994Y03382*
Y0338*
X02991Y03377*
X02986*
X02983Y0338*
X03009Y03377D02*
X03004Y0338D01*
X02999Y03385*
Y0339*
X03002Y03393*
X03007*
X03009Y0339*
Y03388*
X03007Y03385*
X02999*
X03515Y03498D02*
X03518Y03501D01*
X03523*
X03526Y03498*
Y03488*
X03523Y03485*
X03518*
X03515Y03488*
X03499Y03485D02*
X0351D01*
X03499Y03496*
Y03498*
X03502Y03501*
X03507*
X0351Y03498*
X03486Y03485D02*
Y03501D01*
X03494Y03493*
X03484*
X03209Y03383D02*
X03206Y0338D01*
X03201*
X03198Y03383*
Y03393*
X03201Y03396*
X03206*
X03209Y03393*
X03225Y03396D02*
X03214D01*
X03225Y03385*
Y03383*
X03222Y0338*
X03217*
X03214Y03383*
X0324Y03396D02*
X0323D01*
X0324Y03385*
Y03383*
X03238Y0338*
X03233*
X0323Y03383*
X0351Y03302D02*
X03513Y03305D01*
X03518*
X03521Y03302*
Y03292*
X03518Y03289*
X03513*
X0351Y03292*
X03494Y03289D02*
X03505D01*
X03494Y033*
Y03302*
X03497Y03305*
X03502*
X03505Y03302*
X03489Y03289D02*
X03484D01*
X03486*
Y03305*
X03489Y03302*
X03446Y03597D02*
X03449Y036D01*
X03454*
X03457Y03597*
Y03587*
X03454Y03584*
X03449*
X03446Y03587*
X0343Y03584D02*
X03441D01*
X0343Y03595*
Y03597*
X03433Y036*
X03438*
X03441Y03597*
X03425D02*
X03422Y036D01*
X03417*
X03415Y03597*
Y03587*
X03417Y03584*
X03422*
X03425Y03587*
Y03597*
X03508Y03389D02*
X03505Y03386D01*
X035*
X03497Y03389*
Y03399*
X035Y03402*
X03505*
X03508Y03399*
X03513Y03402D02*
X03518D01*
X03516*
Y03386*
X03513Y03389*
X03526Y03399D02*
X03529Y03402D01*
X03534*
X03537Y03399*
Y03389*
X03534Y03386*
X03529*
X03526Y03389*
Y03391*
X03529Y03394*
X03537*
X02474Y03497D02*
X02477Y035D01*
X02482*
X02485Y03497*
Y03487*
X02482Y03484*
X02477*
X02474Y03487*
X02469Y03484D02*
X02464D01*
X02466*
Y035*
X02469Y03497*
X02456Y035D02*
X02445D01*
Y03497*
X02456Y03487*
Y03484*
X02167Y03391D02*
X02164Y03388D01*
X02159*
X02156Y03391*
Y03401*
X02159Y03404*
X02164*
X02167Y03401*
X02172Y03404D02*
X02177D01*
X02175*
Y03388*
X02172Y03391*
X02196Y03388D02*
X02185D01*
Y03396*
X02191Y03393*
X02193*
X02196Y03396*
Y03401*
X02193Y03404*
X02188*
X02185Y03401*
X02468Y03312D02*
X02471Y03315D01*
X02476*
X02479Y03312*
Y03302*
X02476Y03299*
X02471*
X02468Y03302*
X02463Y03299D02*
X02458D01*
X0246*
Y03315*
X02463Y03312*
X02442Y03299D02*
Y03315D01*
X0245Y03307*
X02439*
X02397Y0359D02*
X024Y03593D01*
X02405*
X02408Y0359*
Y0358*
X02405Y03577*
X024*
X02397Y0358*
X02392Y03577D02*
X02387D01*
X02389*
Y03593*
X02392Y0359*
X02379D02*
X02376Y03593D01*
X02371*
X02368Y0359*
Y03588*
X02371Y03585*
X02373*
X02371*
X02368Y03582*
Y0358*
X02371Y03577*
X02376*
X02379Y0358*
X02468Y03392D02*
X02465Y03389D01*
X0246*
X02457Y03392*
Y03402*
X0246Y03405*
X02465*
X02468Y03402*
X02473Y03405D02*
X02478D01*
X02476*
Y03389*
X02473Y03392*
X02497Y03405D02*
X02486D01*
X02497Y03394*
Y03392*
X02494Y03389*
X02489*
X02486Y03392*
X02695Y03876D02*
X02679D01*
Y03884*
X02682Y03887*
X02684*
X02687Y03884*
Y03876*
Y03884*
X0269Y03887*
X02692*
X02695Y03884*
Y03876*
X02679Y03892D02*
Y03897D01*
Y03895*
X02695*
X02692Y03892*
Y03905D02*
X02695Y03908D01*
Y03913*
X02692Y03916*
X02682*
X02679Y03913*
Y03908*
X02682Y03905*
X02692*
X03237Y03884D02*
X03221D01*
Y03892*
X03224Y03895*
X03226*
X03229Y03892*
Y03884*
Y03892*
X03232Y03895*
X03234*
X03237Y03892*
Y03884*
X03234Y039D02*
X03237Y03903D01*
Y03908*
X03234Y03911*
X03232*
X03229Y03908*
X03226Y03911*
X03224*
X03221Y03908*
Y03903*
X03224Y039*
X03226*
X03229Y03903*
X03232Y039*
X03234*
X03229Y03903D02*
Y03908D01*
X02192Y03863D02*
X02176D01*
Y03871*
X02179Y03874*
X02181*
X02184Y03871*
Y03863*
Y03871*
X02187Y03874*
X02189*
X02192Y03871*
Y03863*
Y0389D02*
X02189Y03884D01*
X02184Y03879*
X02179*
X02176Y03882*
Y03887*
X02179Y0389*
X02181*
X02184Y03887*
Y03879*
X04059Y03504D02*
X04062Y03507D01*
X04067*
X0407Y03504*
Y03494*
X04067Y03491*
X04062*
X04059Y03494*
X04054Y03504D02*
X04051Y03507D01*
X04046*
X04043Y03504*
Y03502*
X04046Y03499*
X04049*
X04046*
X04043Y03496*
Y03494*
X04046Y03491*
X04051*
X04054Y03494*
X04038Y03504D02*
X04035Y03507D01*
X0403*
X04028Y03504*
Y03502*
X0403Y03499*
X04028Y03496*
Y03494*
X0403Y03491*
X04035*
X04038Y03494*
Y03496*
X04035Y03499*
X04038Y03502*
Y03504*
X04035Y03499D02*
X0403D01*
X03909Y03298D02*
Y03314D01*
X03901*
X03898Y03311*
Y03306*
X03901Y03303*
X03909*
X03903D02*
X03898Y03298D01*
X03882D02*
X03893D01*
X03882Y03309*
Y03311*
X03885Y03314*
X0389*
X03893Y03311*
X03869Y03298D02*
Y03314D01*
X03877Y03306*
X03867*
X03761Y03884D02*
X03745D01*
Y03892*
X03748Y03895*
X0375*
X03753Y03892*
Y03884*
Y03892*
X03756Y03895*
X03758*
X03761Y03892*
Y03884*
X03745Y039D02*
Y03905D01*
Y03903*
X03761*
X03758Y039*
X03745Y03924D02*
Y03913D01*
X03756Y03924*
X03758*
X03761Y03921*
Y03916*
X03758Y03913*
X02331Y04554D02*
Y0457D01*
X02339*
X02342Y04567*
Y04562*
X02339Y04559*
X02331*
X02337D02*
X02342Y04554D01*
X02347Y0457D02*
X02358D01*
Y04567*
X02347Y04557*
Y04554*
X02363Y04567D02*
X02366Y0457D01*
X02371*
X02373Y04567*
Y04557*
X02371Y04554*
X02366*
X02363Y04557*
Y04567*
X02433Y04144D02*
Y04128D01*
X02425*
X02422Y04131*
Y04136*
X02425Y04139*
X02433*
X02427D02*
X02422Y04144D01*
X02406Y04128D02*
X02412Y04131D01*
X02417Y04136*
Y04141*
X02414Y04144*
X02409*
X02406Y04141*
Y04139*
X02409Y04136*
X02417*
X02401Y04141D02*
X02398Y04144D01*
X02393*
X02391Y04141*
Y04131*
X02393Y04128*
X02398*
X02401Y04131*
Y04133*
X02398Y04136*
X02391*
X02424Y04666D02*
Y04682D01*
X02417*
X02414Y04679*
Y04677*
X02417Y04674*
X02424*
X02417*
X02414Y04671*
Y04669*
X02417Y04666*
X02424*
X02398Y04682D02*
X02409D01*
X02398Y04671*
Y04669*
X02401Y04666*
X02406*
X02409Y04669*
X02383Y04682D02*
X02393D01*
X02383Y04671*
Y04669*
X02385Y04666*
X0239*
X02393Y04669*
X04078Y04577D02*
Y04561D01*
X0407*
X04067Y04564*
Y04569*
X0407Y04572*
X04078*
X04072D02*
X04067Y04577D01*
X04062Y04561D02*
X04051D01*
Y04564*
X04062Y04574*
Y04577*
X04036D02*
X04046D01*
X04036Y04566*
Y04564*
X04038Y04561*
X04043*
X04046Y04564*
X04088Y04192D02*
Y04176D01*
X0408*
X04077Y04179*
Y04184*
X0408Y04187*
X04088*
X04082D02*
X04077Y04192D01*
X04072Y04176D02*
X04061D01*
Y04179*
X04072Y04189*
Y04192*
X04056D02*
X04051D01*
X04053*
Y04176*
X04056Y04179*
X0407Y04684D02*
Y047D01*
X04063*
X0406Y04697*
Y04695*
X04063Y04692*
X0407*
X04063*
X0406Y04689*
Y04687*
X04063Y04684*
X0407*
X04044Y047D02*
X04055D01*
X04044Y04689*
Y04687*
X04047Y04684*
X04052*
X04055Y04687*
X04039D02*
X04036Y04684D01*
X04031*
X04029Y04687*
Y04689*
X04031Y04692*
X04034*
X04031*
X04029Y04695*
Y04697*
X04031Y047*
X04036*
X04039Y04697*
X03769Y03413D02*
Y03397D01*
X03761*
X03758Y034*
Y03405*
X03761Y03408*
X03769*
X03763D02*
X03758Y03413D01*
X03753Y034D02*
X0375Y03397D01*
X03745*
X03742Y034*
Y03402*
X03745Y03405*
X03748*
X03745*
X03742Y03408*
Y0341*
X03745Y03413*
X0375*
X03753Y0341*
X03737Y034D02*
X03734Y03397D01*
X03729*
X03727Y034*
Y0341*
X03729Y03413*
X03734*
X03737Y0341*
Y034*
X02648Y0341D02*
Y03394D01*
X0264*
X02637Y03397*
Y03402*
X0264Y03405*
X02648*
X02642D02*
X02637Y0341D01*
X02621D02*
X02632D01*
X02621Y03399*
Y03397*
X02624Y03394*
X02629*
X02632Y03397*
X02616Y03407D02*
X02613Y0341D01*
X02608*
X02606Y03407*
Y03397*
X02608Y03394*
X02613*
X02616Y03397*
Y03399*
X02613Y03402*
X02606*
X03199Y0396D02*
X03183D01*
Y03968*
X03186Y03971*
X03191*
X03194Y03968*
Y0396*
Y03966D02*
X03199Y03971D01*
X03186Y03976D02*
X03183Y03979D01*
Y03984*
X03186Y03987*
X03188*
X03191Y03984*
Y03981*
Y03984*
X03194Y03987*
X03196*
X03199Y03984*
Y03979*
X03196Y03976*
X03199Y04002D02*
Y03992D01*
X03188Y04002*
X03186*
X03183Y04*
Y03995*
X03186Y03992*
X02083Y03936D02*
X02067D01*
Y03944*
X0207Y03947*
X02075*
X02078Y03944*
Y03936*
Y03942D02*
X02083Y03947D01*
X0207Y03952D02*
X02067Y03955D01*
Y0396*
X0207Y03963*
X02072*
X02075Y0396*
Y03957*
Y0396*
X02078Y03963*
X0208*
X02083Y0396*
Y03955*
X0208Y03952*
X02083Y03968D02*
Y03973D01*
Y03971*
X02067*
X0207Y03968*
X03497Y03408D02*
Y03424D01*
X03505*
X03508Y03421*
Y03416*
X03505Y03413*
X03497*
X03503D02*
X03508Y03408D01*
X03513Y03421D02*
X03516Y03424D01*
X03521*
X03524Y03421*
Y03419*
X03521Y03416*
X03518*
X03521*
X03524Y03413*
Y03411*
X03521Y03408*
X03516*
X03513Y03411*
X03539Y03424D02*
X03534Y03421D01*
X03529Y03416*
Y03411*
X03532Y03408*
X03537*
X03539Y03411*
Y03413*
X03537Y03416*
X03529*
X03841Y03403D02*
Y03419D01*
X03849*
X03852Y03416*
Y03411*
X03849Y03408*
X03841*
X03847D02*
X03852Y03403D01*
X03857Y03416D02*
X0386Y03419D01*
X03865*
X03868Y03416*
Y03414*
X03865Y03411*
X03862*
X03865*
X03868Y03408*
Y03406*
X03865Y03403*
X0386*
X03857Y03406*
X03883Y03419D02*
X03873D01*
Y03411*
X03878Y03414*
X03881*
X03883Y03411*
Y03406*
X03881Y03403*
X03876*
X03873Y03406*
X02364Y03398D02*
Y03414D01*
X02372*
X02375Y03411*
Y03406*
X02372Y03403*
X02364*
X0237D02*
X02375Y03398D01*
X0238Y03411D02*
X02383Y03414D01*
X02388*
X02391Y03411*
Y03409*
X02388Y03406*
X02385*
X02388*
X02391Y03403*
Y03401*
X02388Y03398*
X02383*
X0238Y03401*
X02404Y03398D02*
Y03414D01*
X02396Y03406*
X02406*
X02724Y03393D02*
Y03409D01*
X02732*
X02735Y03406*
Y03401*
X02732Y03398*
X02724*
X0273D02*
X02735Y03393D01*
X0274Y03406D02*
X02743Y03409D01*
X02748*
X02751Y03406*
Y03404*
X02748Y03401*
X02745*
X02748*
X02751Y03398*
Y03396*
X02748Y03393*
X02743*
X0274Y03396*
X02756Y03406D02*
X02759Y03409D01*
X02764*
X02766Y03406*
Y03404*
X02764Y03401*
X02761*
X02764*
X02766Y03398*
Y03396*
X02764Y03393*
X02759*
X02756Y03396*
X03401Y03457D02*
X03417D01*
Y03449*
X03414Y03446*
X03409*
X03406Y03449*
Y03457*
Y03451D02*
X03401Y03446D01*
Y03433D02*
X03417D01*
X03409Y03441*
Y0343*
X03401Y03415D02*
Y03425D01*
X03412Y03415*
X03414*
X03417Y03417*
Y03422*
X03414Y03425*
X04032Y03361D02*
X04016D01*
Y03369*
X04019Y03372*
X04024*
X04027Y03369*
Y03361*
Y03367D02*
X04032Y03372D01*
Y03385D02*
X04016D01*
X04024Y03377*
Y03388*
X04032Y03393D02*
Y03398D01*
Y03396*
X04016*
X04019Y03393*
X03672Y0328D02*
Y03296D01*
X0368*
X03683Y03293*
Y03288*
X0368Y03285*
X03672*
X03678D02*
X03683Y0328D01*
X03696D02*
Y03296D01*
X03688Y03288*
X03699*
X03704Y03293D02*
X03707Y03296D01*
X03712*
X03714Y03293*
Y03283*
X03712Y0328*
X03707*
X03704Y03283*
Y03293*
X02289Y03455D02*
X02305D01*
Y03447*
X02302Y03444*
X02297*
X02294Y03447*
Y03455*
Y03449D02*
X02289Y03444D01*
X02302Y03439D02*
X02305Y03436D01*
Y03431*
X02302Y03428*
X023*
X02297Y03431*
Y03434*
Y03431*
X02294Y03428*
X02292*
X02289Y03431*
Y03436*
X02292Y03439*
Y03423D02*
X02289Y0342D01*
Y03415*
X02292Y03413*
X02302*
X02305Y03415*
Y0342*
X02302Y03423*
X023*
X02297Y0342*
Y03413*
X0291Y0335D02*
X02894D01*
Y03358*
X02897Y03361*
X02902*
X02905Y03358*
Y0335*
Y03356D02*
X0291Y03361D01*
X02897Y03366D02*
X02894Y03369D01*
Y03374*
X02897Y03377*
X02899*
X02902Y03374*
Y03371*
Y03374*
X02905Y03377*
X02907*
X0291Y03374*
Y03369*
X02907Y03366*
X02897Y03382D02*
X02894Y03385D01*
Y0339*
X02897Y03392*
X02899*
X02902Y0339*
X02905Y03392*
X02907*
X0291Y0339*
Y03385*
X02907Y03382*
X02905*
X02902Y03385*
X02899Y03382*
X02897*
X02902Y03385D02*
Y0339D01*
X02549Y03291D02*
Y03307D01*
X02557*
X0256Y03304*
Y03299*
X02557Y03296*
X02549*
X02555D02*
X0256Y03291D01*
X02565Y03304D02*
X02568Y03307D01*
X02573*
X02576Y03304*
Y03302*
X02573Y03299*
X0257*
X02573*
X02576Y03296*
Y03294*
X02573Y03291*
X02568*
X02565Y03294*
X02581Y03307D02*
X02591D01*
Y03304*
X02581Y03294*
Y03291*
X03414Y03515D02*
X03398D01*
Y03523*
X03401Y03526*
X03406*
X03409Y03523*
Y03515*
Y03521D02*
X03414Y03526D01*
Y03539D02*
X03398D01*
X03406Y03531*
Y03542*
X03398Y03557D02*
X03401Y03552D01*
X03406Y03547*
X03411*
X03414Y0355*
Y03555*
X03411Y03557*
X03409*
X03406Y03555*
Y03547*
X04018Y03617D02*
X04034D01*
Y03609*
X04031Y03606*
X04026*
X04023Y03609*
Y03617*
Y03611D02*
X04018Y03606D01*
Y03593D02*
X04034D01*
X04026Y03601*
Y0359*
X04034Y03575D02*
Y03585D01*
X04026*
X04029Y0358*
Y03577*
X04026Y03575*
X04021*
X04018Y03577*
Y03582*
X04021Y03585*
X023Y03508D02*
X02284D01*
Y03516*
X02287Y03519*
X02292*
X02295Y03516*
Y03508*
Y03514D02*
X023Y03519D01*
Y03532D02*
X02284D01*
X02292Y03524*
Y03535*
X023Y03548D02*
X02284D01*
X02292Y0354*
Y0355*
X02898Y03607D02*
X02914D01*
Y03599*
X02911Y03596*
X02906*
X02903Y03599*
Y03607*
Y03601D02*
X02898Y03596D01*
Y03583D02*
X02914D01*
X02906Y03591*
Y0358*
X02911Y03575D02*
X02914Y03572D01*
Y03567*
X02911Y03565*
X02909*
X02906Y03567*
Y0357*
Y03567*
X02903Y03565*
X02901*
X02898Y03567*
Y03572*
X02901Y03575*
X03307Y03457D02*
X03323D01*
Y03449*
X0332Y03446*
X03315*
X03312Y03449*
Y03457*
Y03451D02*
X03307Y03446D01*
X03323Y0343D02*
Y03441D01*
X03315*
X03318Y03436*
Y03433*
X03315Y0343*
X0331*
X03307Y03433*
Y03438*
X0331Y03441*
X0332Y03425D02*
X03323Y03422D01*
Y03417*
X0332Y03415*
X0331*
X03307Y03417*
Y03422*
X0331Y03425*
X0332*
X0413Y0336D02*
X04114D01*
Y03368*
X04117Y03371*
X04122*
X04125Y03368*
Y0336*
Y03366D02*
X0413Y03371D01*
Y03384D02*
X04114D01*
X04122Y03376*
Y03387*
X04127Y03392D02*
X0413Y03395D01*
Y034*
X04127Y03402*
X04117*
X04114Y034*
Y03395*
X04117Y03392*
X04119*
X04122Y03395*
Y03402*
X02192Y0345D02*
X02208D01*
Y03442*
X02205Y03439*
X022*
X02197Y03442*
Y0345*
Y03444D02*
X02192Y03439D01*
Y03426D02*
X02208D01*
X022Y03434*
Y03423*
X02205Y03418D02*
X02208Y03415D01*
Y0341*
X02205Y03408*
X02203*
X022Y0341*
X02197Y03408*
X02195*
X02192Y0341*
Y03415*
X02195Y03418*
X02197*
X022Y03415*
X02203Y03418*
X02205*
X022Y03415D02*
Y0341D01*
X03006Y0335D02*
X0299D01*
Y03358*
X02993Y03361*
X02998*
X03001Y03358*
Y0335*
Y03356D02*
X03006Y03361D01*
Y03374D02*
X0299D01*
X02998Y03366*
Y03377*
X0299Y03382D02*
Y03392D01*
X02993*
X03003Y03382*
X03006*
X03402Y03663D02*
X03418D01*
Y0367*
X03415Y03673*
X03413*
X0341Y0367*
Y03663*
Y0367*
X03407Y03673*
X03405*
X03402Y0367*
Y03663*
X03418Y03678D02*
Y03684D01*
Y03681*
X03402*
X03405Y03678*
X03415Y03691D02*
X03418Y03694D01*
Y03699*
X03415Y03702*
X03405*
X03402Y03699*
Y03694*
X03405Y03691*
X03407*
X0341Y03694*
Y03702*
X0228Y03651D02*
X02296D01*
Y03658*
X02293Y03661*
X02291*
X02288Y03658*
Y03651*
Y03658*
X02285Y03661*
X02283*
X0228Y03658*
Y03651*
X02296Y03666D02*
Y03672D01*
Y03669*
X0228*
X02283Y03666*
Y03679D02*
X0228Y03682D01*
Y03687*
X02283Y0369*
X02285*
X02288Y03687*
X02291Y0369*
X02293*
X02296Y03687*
Y03682*
X02293Y03679*
X02291*
X02288Y03682*
X02285Y03679*
X02283*
X02288Y03682D02*
Y03687D01*
X04013Y03668D02*
X04029D01*
Y03675*
X04026Y03678*
X04024*
X04021Y03675*
Y03668*
Y03675*
X04018Y03678*
X04016*
X04013Y03675*
Y03668*
X04029Y03694D02*
Y03683D01*
X04018Y03694*
X04016*
X04013Y03691*
Y03686*
X04016Y03683*
X04029Y03699D02*
Y03704D01*
Y03702*
X04013*
X04016Y03699*
X02915Y03748D02*
X02899D01*
Y03741*
X02902Y03738*
X02904*
X02907Y03741*
Y03748*
Y03741*
X0291Y03738*
X02912*
X02915Y03741*
Y03748*
X02899Y03722D02*
Y03733D01*
X0291Y03722*
X02912*
X02915Y03725*
Y0373*
X02912Y03733*
Y03717D02*
X02915Y03714D01*
Y03709*
X02912Y03707*
X02902*
X02899Y03709*
Y03714*
X02902Y03717*
X02912*
X04119Y0406D02*
X04135D01*
Y04052*
X04132Y04049*
X04127*
X04124Y04052*
Y0406*
Y04054D02*
X04119Y04049D01*
X04135Y04033D02*
Y04044D01*
X04127*
X0413Y04039*
Y04036*
X04127Y04033*
X04122*
X04119Y04036*
Y04041*
X04122Y04044*
X04119Y04018D02*
Y04028D01*
X0413Y04018*
X04132*
X04135Y0402*
Y04025*
X04132Y04028*
X02999Y04043D02*
X03015D01*
Y04035*
X03012Y04032*
X03007*
X03004Y04035*
Y04043*
Y04037D02*
X02999Y04032D01*
X03015Y04016D02*
Y04027D01*
X03007*
X0301Y04022*
Y04019*
X03007Y04016*
X03002*
X02999Y04019*
Y04024*
X03002Y04027*
X02999Y04011D02*
Y04006D01*
Y04008*
X03015*
X03012Y04011*
X03319Y03958D02*
X03303D01*
Y03966*
X03306Y03969*
X03311*
X03314Y03966*
Y03958*
Y03964D02*
X03319Y03969D01*
X03303Y03985D02*
Y03974D01*
X03311*
X03308Y03979*
Y03982*
X03311Y03985*
X03316*
X03319Y03982*
Y03977*
X03316Y03974*
X03319Y03998D02*
X03303D01*
X03311Y0399*
Y04*
X02195Y03938D02*
X02179D01*
Y03946*
X02182Y03949*
X02187*
X0219Y03946*
Y03938*
Y03944D02*
X02195Y03949D01*
X02179Y03965D02*
Y03954D01*
X02187*
X02184Y03959*
Y03962*
X02187Y03965*
X02192*
X02195Y03962*
Y03957*
X02192Y03954*
X02182Y0397D02*
X02179Y03973D01*
Y03978*
X02182Y0398*
X02184*
X02187Y03978*
Y03975*
Y03978*
X0219Y0398*
X02192*
X02195Y03978*
Y03973*
X02192Y0397*
X03417Y03791D02*
X03401D01*
Y03799*
X03404Y03802*
X03409*
X03412Y03799*
Y03791*
Y03797D02*
X03417Y03802D01*
X03401Y03818D02*
Y03807D01*
X03409*
X03406Y03812*
Y03815*
X03409Y03818*
X03414*
X03417Y03815*
Y0381*
X03414Y03807*
X03401Y03833D02*
X03404Y03828D01*
X03409Y03823*
X03414*
X03417Y03826*
Y03831*
X03414Y03833*
X03412*
X03409Y03831*
Y03823*
X02294Y03771D02*
X02278D01*
Y03779*
X02281Y03782*
X02286*
X02289Y03779*
Y03771*
Y03777D02*
X02294Y03782D01*
X02278Y03798D02*
Y03787D01*
X02286*
X02283Y03792*
Y03795*
X02286Y03798*
X02291*
X02294Y03795*
Y0379*
X02291Y03787*
X02278Y03813D02*
Y03803D01*
X02286*
X02283Y03808*
Y03811*
X02286Y03813*
X02291*
X02294Y03811*
Y03806*
X02291Y03803*
X0403Y03792D02*
X04014D01*
Y038*
X04017Y03803*
X04022*
X04025Y038*
Y03792*
Y03798D02*
X0403Y03803D01*
X04014Y03819D02*
Y03808D01*
X04022*
X04019Y03813*
Y03816*
X04022Y03819*
X04027*
X0403Y03816*
Y03811*
X04027Y03808*
X04017Y03824D02*
X04014Y03827D01*
Y03832*
X04017Y03834*
X04019*
X04022Y03832*
X04025Y03834*
X04027*
X0403Y03832*
Y03827*
X04027Y03824*
X04025*
X04022Y03827*
X04019Y03824*
X04017*
X04022Y03827D02*
Y03832D01*
X02911Y0378D02*
X02895D01*
Y03788*
X02898Y03791*
X02903*
X02906Y03788*
Y0378*
Y03786D02*
X02911Y03791D01*
X02895Y03807D02*
Y03796D01*
X02903*
X029Y03801*
Y03804*
X02903Y03807*
X02908*
X02911Y03804*
Y03799*
X02908Y03796*
X02895Y03812D02*
Y03822D01*
X02898*
X02908Y03812*
X02911*
X03416Y03956D02*
X034D01*
Y03964*
X03403Y03967*
X03408*
X03411Y03964*
Y03956*
Y03962D02*
X03416Y03967D01*
X034Y03983D02*
X03403Y03977D01*
X03408Y03972*
X03413*
X03416Y03975*
Y0398*
X03413Y03983*
X03411*
X03408Y0398*
Y03972*
X03416Y03998D02*
Y03988D01*
X03405Y03998*
X03403*
X034Y03996*
Y03991*
X03403Y03988*
X04023Y0406D02*
X04039D01*
Y04052*
X04036Y04049*
X04031*
X04028Y04052*
Y0406*
Y04054D02*
X04023Y04049D01*
X04039Y04033D02*
X04036Y04039D01*
X04031Y04044*
X04026*
X04023Y04041*
Y04036*
X04026Y04033*
X04028*
X04031Y04036*
Y04044*
X04023Y04028D02*
Y04023D01*
Y04025*
X04039*
X04036Y04028*
X02294Y0394D02*
X02278D01*
Y03948*
X02281Y03951*
X02286*
X02289Y03948*
Y0394*
Y03946D02*
X02294Y03951D01*
X02278Y03967D02*
X02281Y03961D01*
X02286Y03956*
X02291*
X02294Y03959*
Y03964*
X02291Y03967*
X02289*
X02286Y03964*
Y03956*
X02281Y03972D02*
X02278Y03975D01*
Y0398*
X02281Y03982*
X02291*
X02294Y0398*
Y03975*
X02291Y03972*
X02281*
X02899Y04042D02*
X02915D01*
Y04034*
X02912Y04031*
X02907*
X02904Y04034*
Y04042*
Y04036D02*
X02899Y04031D01*
X02915Y04015D02*
Y04026D01*
X02907*
X0291Y04021*
Y04018*
X02907Y04015*
X02902*
X02899Y04018*
Y04023*
X02902Y04026*
Y0401D02*
X02899Y04007D01*
Y04002*
X02902Y04*
X02912*
X02915Y04002*
Y04007*
X02912Y0401*
X0291*
X02907Y04007*
Y04*
X03483D02*
Y04016D01*
X03491*
X03494Y04013*
Y04008*
X03491Y04005*
X03483*
X03489D02*
X03494Y04D01*
X0351Y04016D02*
X03504Y04013D01*
X03499Y04008*
Y04003*
X03502Y04*
X03507*
X0351Y04003*
Y04005*
X03507Y04008*
X03499*
X03525Y04016D02*
X0352Y04013D01*
X03515Y04008*
Y04003*
X03518Y04*
X03523*
X03525Y04003*
Y04005*
X03523Y04008*
X03515*
X03838Y04004D02*
Y0402D01*
X03846*
X03849Y04017*
Y04012*
X03846Y04009*
X03838*
X03844D02*
X03849Y04004D01*
X03865Y0402D02*
X03859Y04017D01*
X03854Y04012*
Y04007*
X03857Y04004*
X03862*
X03865Y04007*
Y04009*
X03862Y04012*
X03854*
X0388Y0402D02*
X0387D01*
Y04012*
X03875Y04015*
X03878*
X0388Y04012*
Y04007*
X03878Y04004*
X03873*
X0387Y04007*
X02368Y04006D02*
Y04022D01*
X02376*
X02379Y04019*
Y04014*
X02376Y04011*
X02368*
X02374D02*
X02379Y04006D01*
X02395Y04022D02*
X02389Y04019D01*
X02384Y04014*
Y04009*
X02387Y04006*
X02392*
X02395Y04009*
Y04011*
X02392Y04014*
X02384*
X02408Y04006D02*
Y04022D01*
X024Y04014*
X0241*
X02725Y04008D02*
Y04024D01*
X02733*
X02736Y04021*
Y04016*
X02733Y04013*
X02725*
X02731D02*
X02736Y04008D01*
X02752Y04024D02*
X02746Y04021D01*
X02741Y04016*
Y04011*
X02744Y04008*
X02749*
X02752Y04011*
Y04013*
X02749Y04016*
X02741*
X02757Y04021D02*
X0276Y04024D01*
X02765*
X02767Y04021*
Y04019*
X02765Y04016*
X02762*
X02765*
X02767Y04013*
Y04011*
X02765Y04008*
X0276*
X02757Y04011*
X03776Y04016D02*
Y04D01*
X03768*
X03765Y04003*
Y04008*
X03768Y04011*
X03776*
X0377D02*
X03765Y04016D01*
X03749Y04D02*
X03755Y04003D01*
X0376Y04008*
Y04013*
X03757Y04016*
X03752*
X03749Y04013*
Y04011*
X03752Y04008*
X0376*
X03744Y04003D02*
X03741Y04D01*
X03736*
X03734Y04003*
Y04005*
X03736Y04008*
X03734Y04011*
Y04013*
X03736Y04016*
X03741*
X03744Y04013*
Y04011*
X03741Y04008*
X03744Y04005*
Y04003*
X03741Y04008D02*
X03736D01*
X0264Y04005D02*
Y03989D01*
X02632*
X02629Y03992*
Y03997*
X02632Y04*
X0264*
X02634D02*
X02629Y04005D01*
X02613Y03989D02*
X02619Y03992D01*
X02624Y03997*
Y04002*
X02621Y04005*
X02616*
X02613Y04002*
Y04*
X02616Y03997*
X02624*
X02608Y03989D02*
X02598D01*
Y03992*
X02608Y04002*
Y04005*
X03055Y04399D02*
X03039D01*
Y04392*
X03042Y04389*
X03044*
X03047Y04392*
Y04399*
Y04392*
X0305Y04389*
X03052*
X03055Y04392*
Y04399*
X03039Y04384D02*
Y04378D01*
Y04381*
X03055*
X03052Y04384*
Y04371D02*
X03055Y04368D01*
Y04363*
X03052Y0436*
X0305*
X03047Y04363*
Y04365*
Y04363*
X03044Y0436*
X03042*
X03039Y04363*
Y04368*
X03042Y04371*
X02929Y04303D02*
X02913D01*
Y04311*
X02916Y04314*
X02921*
X02924Y04311*
Y04303*
Y04309D02*
X02929Y04314D01*
Y0433D02*
Y04319D01*
X02918Y0433*
X02916*
X02913Y04327*
Y04322*
X02916Y04319*
X02913Y04345D02*
Y04335D01*
X02921*
X02918Y0434*
Y04343*
X02921Y04345*
X02926*
X02929Y04343*
Y04338*
X02926Y04335*
X03509Y04993D02*
X03512Y04996D01*
Y05001*
X03509Y05004*
X03499*
X03496Y05001*
Y04996*
X03499Y04993*
X03496Y0498D02*
X03512D01*
X03504Y04988*
Y04977*
X03496Y04962D02*
Y04972D01*
X03507Y04962*
X03509*
X03512Y04964*
Y04969*
X03509Y04972*
X03493Y04755D02*
X0349Y04752D01*
Y04747*
X03493Y04744*
X03503*
X03506Y04747*
Y04752*
X03503Y04755*
X03506Y04768D02*
X0349D01*
X03498Y0476*
Y04771*
X03506Y04776D02*
Y04781D01*
Y04779*
X0349*
X03493Y04776*
X03275Y04301D02*
X03259D01*
Y04309*
X03262Y04312*
X03267*
X0327Y04309*
Y04301*
Y04307D02*
X03275Y04312D01*
Y04328D02*
Y04317D01*
X03264Y04328*
X03262*
X03259Y04325*
Y0432*
X03262Y04317*
X03259Y04343D02*
X03262Y04338D01*
X03267Y04333*
X03272*
X03275Y04336*
Y04341*
X03272Y04343*
X0327*
X03267Y04341*
Y04333*
X03408Y04397D02*
X03392D01*
Y0439*
X03395Y04387*
X03397*
X034Y0439*
Y04397*
Y0439*
X03403Y04387*
X03405*
X03408Y0439*
Y04397*
X03392Y04382D02*
Y04376D01*
Y04379*
X03408*
X03405Y04382*
X03392Y04361D02*
X03408D01*
X034Y04369*
Y04358*
X02777Y04681D02*
X0278Y04684D01*
Y04689*
X02777Y04692*
X02767*
X02764Y04689*
Y04684*
X02767Y04681*
X02764Y04668D02*
X0278D01*
X02772Y04676*
Y04665*
X02764Y04652D02*
X0278D01*
X02772Y0466*
Y0465*
X0349Y04601D02*
X03506D01*
Y04608*
X03503Y04611*
X03501*
X03498Y04608*
Y04601*
Y04608*
X03495Y04611*
X03493*
X0349Y04608*
Y04601*
X03506Y04616D02*
Y04622D01*
Y04619*
X0349*
X03493Y04616*
X0349Y0464D02*
Y04629D01*
X03498*
X03495Y04635*
Y04637*
X03498Y0464*
X03503*
X03506Y04637*
Y04632*
X03503Y04629*
X02652Y04868D02*
X02668D01*
Y04875*
X02665Y04878*
X02663*
X0266Y04875*
Y04868*
Y04875*
X02657Y04878*
X02655*
X02652Y04875*
Y04868*
X02668Y04883D02*
Y04889D01*
Y04886*
X02652*
X02655Y04883*
X02652Y04907D02*
X02655Y04902D01*
X0266Y04896*
X02665*
X02668Y04899*
Y04904*
X02665Y04907*
X02663*
X0266Y04904*
Y04896*
X03134Y04311D02*
X0315D01*
Y04318*
X03147Y04321*
X03145*
X03142Y04318*
Y04311*
Y04318*
X03139Y04321*
X03137*
X03134Y04318*
Y04311*
X0315Y04326D02*
Y04332D01*
Y04329*
X03134*
X03137Y04326*
X03134Y04339D02*
Y0435D01*
X03137*
X03147Y04339*
X0315*
X02101Y04888D02*
Y04904D01*
X02094*
X02091Y04901*
Y04891*
X02094Y04888*
X02101*
X02086Y04891D02*
X02083Y04888D01*
X02078*
X02075Y04891*
Y04893*
X02078Y04896*
X0208*
X02078*
X02075Y04899*
Y04901*
X02078Y04904*
X02083*
X02086Y04901*
X02139Y04892D02*
Y04908D01*
X02147*
X0215Y04905*
Y049*
X02147Y04897*
X02139*
X02145D02*
X0215Y04892D01*
X02166D02*
X02155D01*
X02166Y04903*
Y04905*
X02163Y04908*
X02158*
X02155Y04905*
X02171Y04908D02*
X02181D01*
Y04905*
X02171Y04895*
Y04892*
X02101Y04785D02*
Y04801D01*
X02094*
X02091Y04798*
Y04788*
X02094Y04785*
X02101*
X02078Y04801D02*
Y04785D01*
X02086Y04793*
X02075*
X02144Y04787D02*
Y04803D01*
X02152*
X02155Y048*
Y04795*
X02152Y04792*
X02144*
X0215D02*
X02155Y04787D01*
X02171D02*
X0216D01*
X02171Y04798*
Y048*
X02168Y04803*
X02163*
X0216Y048*
X02176D02*
X02179Y04803D01*
X02184*
X02186Y048*
Y04798*
X02184Y04795*
X02186Y04792*
Y0479*
X02184Y04787*
X02179*
X02176Y0479*
Y04792*
X02179Y04795*
X02176Y04798*
Y048*
X02179Y04795D02*
X02184D01*
X0454Y03665D02*
X04537Y03662D01*
Y03657*
X0454Y03654*
X0455*
X04553Y03657*
Y03662*
X0455Y03665*
X04553Y0367D02*
Y03675D01*
Y03673*
X04537*
X0454Y0367*
X04775Y03881D02*
Y03897D01*
X04767*
X04765Y03894*
Y03892*
X04767Y03889*
X04775*
X04767*
X04765Y03887*
Y03884*
X04767Y03881*
X04775*
X04759Y03897D02*
X04754D01*
X04757*
Y03881*
X04759Y03884*
X0483Y03901D02*
X04827Y03904D01*
X04822*
X04819Y03901*
Y03891*
X04822Y03888*
X04827*
X0483Y03891*
X04846Y03888D02*
X04835D01*
X04846Y03899*
Y03901*
X04843Y03904*
X04838*
X04835Y03901*
X04656Y03453D02*
X04653Y03456D01*
X04648*
X04645Y03453*
Y03443*
X04648Y0344*
X04653*
X04656Y03443*
X04661Y03453D02*
X04664Y03456D01*
X04669*
X04672Y03453*
Y03451*
X04669Y03448*
X04666*
X04669*
X04672Y03445*
Y03443*
X04669Y0344*
X04664*
X04661Y03443*
X04824Y03453D02*
X04821Y03456D01*
X04816*
X04813Y03453*
Y03443*
X04816Y0344*
X04821*
X04824Y03443*
X04837Y0344D02*
Y03456D01*
X04829Y03448*
X0484*
X05043Y0344D02*
X05046Y03437D01*
X05051*
X05054Y0344*
Y0345*
X05051Y03453*
X05046*
X05043Y0345*
X05027Y03437D02*
X05038D01*
Y03445*
X05033Y03442*
X0503*
X05027Y03445*
Y0345*
X0503Y03453*
X05035*
X05038Y0345*
X02566Y03865D02*
X02582D01*
Y03873*
X02579Y03876*
X02577*
X02574Y03873*
Y03865*
Y03873*
X02571Y03876*
X02569*
X02566Y03873*
Y03865*
Y03892D02*
Y03881D01*
X02574*
X02571Y03886*
Y03889*
X02574Y03892*
X02579*
X02582Y03889*
Y03884*
X02579Y03881*
X03625Y03879D02*
X03641D01*
Y03887*
X03638Y0389*
X03636*
X03633Y03887*
Y03879*
Y03887*
X0363Y0389*
X03628*
X03625Y03887*
Y03879*
Y03895D02*
Y03906D01*
X03628*
X03638Y03895*
X03641*
X03102Y0388D02*
X03118D01*
Y03888*
X03115Y03891*
X03113*
X0311Y03888*
Y0388*
Y03888*
X03107Y03891*
X03105*
X03102Y03888*
Y0388*
X03115Y03896D02*
X03118Y03899D01*
Y03904*
X03115Y03907*
X03105*
X03102Y03904*
Y03899*
X03105Y03896*
X03107*
X0311Y03899*
Y03907*
X04174Y039D02*
X0419D01*
Y03908*
X04187Y03911*
X04185*
X04182Y03908*
Y039*
Y03908*
X04179Y03911*
X04177*
X04174Y03908*
Y039*
X0419Y03916D02*
Y03921D01*
Y03919*
X04174*
X04177Y03916*
X0419Y03929D02*
Y03935D01*
Y03932*
X04174*
X04177Y03929*
X05006Y03697D02*
X04995D01*
X0499Y03702*
X04995Y03707*
X05006*
X0499Y03715D02*
Y03721D01*
X04992Y03723*
X04998*
X05Y03721*
Y03715*
X04998Y03713*
X04992*
X0499Y03715*
Y03728D02*
Y03734D01*
Y03731*
X05006*
Y03728*
X05003Y03744D02*
X05D01*
Y03742*
Y03747*
Y03744*
X04992*
X0499Y03747*
X05Y03757D02*
Y03763D01*
X04998Y03765*
X0499*
Y03757*
X04992Y03755*
X04995Y03757*
Y03765*
X04985Y03776D02*
Y03778D01*
X04987Y03781*
X05*
Y03773*
X04998Y0377*
X04992*
X0499Y03773*
Y03781*
Y03794D02*
Y03789D01*
X04992Y03786*
X04998*
X05Y03789*
Y03794*
X04998Y03797*
X04995*
Y03786*
X0499Y03802D02*
X05006D01*
Y0381*
X05003Y03812*
X04998*
X04995Y0381*
Y03802*
Y03807D02*
X0499Y03812D01*
Y03825D02*
Y0382D01*
X04992Y03818*
X04998*
X05Y0382*
Y03825*
X04998Y03828*
X04995*
Y03818*
X04985Y03839D02*
Y03841D01*
X04987Y03844*
X05*
Y03836*
X04998Y03833*
X04992*
X0499Y03836*
Y03844*
Y0386D02*
Y03849D01*
X05Y0386*
X05003*
X05006Y03857*
Y03852*
X05003Y03849*
X05213Y03694D02*
X05229D01*
Y03702*
X05226Y03705*
X05221*
X05218Y03702*
Y03694*
Y037D02*
X05213Y03705D01*
X05229Y0371D02*
Y03721D01*
X05226*
X05216Y0371*
X05213*
X05226Y03726D02*
X05229Y03729D01*
Y03734*
X05226Y03736*
X05224*
X05221Y03734*
X05218Y03736*
X05216*
X05213Y03734*
Y03729*
X05216Y03726*
X05218*
X05221Y03729*
X05224Y03726*
X05226*
X05221Y03729D02*
Y03734D01*
X05086Y03864D02*
X05102D01*
Y03872*
X05099Y03875*
X05094*
X05091Y03872*
Y03864*
Y0387D02*
X05086Y03875D01*
X05102Y0388D02*
Y03891D01*
X05099*
X05089Y0388*
X05086*
X05102Y03896D02*
Y03906D01*
X05099*
X05089Y03896*
X05086*
X051Y03705D02*
X05103Y03702D01*
Y03697*
X051Y03694*
X0509*
X05087Y03697*
Y03702*
X0509Y03705*
X05103Y03721D02*
Y0371D01*
X05095*
X05098Y03715*
Y03718*
X05095Y03721*
X0509*
X05087Y03718*
Y03713*
X0509Y0371*
X05087Y03734D02*
X05103D01*
X05095Y03726*
Y03736*
X0534Y03703D02*
X05324D01*
Y0371*
X05327Y03713*
X05329*
X05332Y0371*
Y03703*
Y0371*
X05335Y03713*
X05337*
X0534Y0371*
Y03703*
X05324Y03729D02*
Y03718D01*
X05335Y03729*
X05337*
X0534Y03726*
Y03721*
X05337Y03718*
X05324Y03742D02*
X0534D01*
X05332Y03734*
Y03744*
X02142Y04682D02*
Y04698D01*
X0215*
X02153Y04695*
Y0469*
X0215Y04687*
X02142*
X02148D02*
X02153Y04682D01*
X02166D02*
Y04698D01*
X02158Y0469*
X02169*
X02144Y04594D02*
Y0461D01*
X02152*
X02155Y04607*
Y04602*
X02152Y04599*
X02144*
X0215D02*
X02155Y04594D01*
X0216Y04607D02*
X02163Y0461D01*
X02168*
X02171Y04607*
Y04605*
X02168Y04602*
X02165*
X02168*
X02171Y04599*
Y04597*
X02168Y04594*
X02163*
X0216Y04597*
X02104Y04678D02*
Y04694D01*
X02097*
X02094Y04691*
Y04681*
X02097Y04678*
X02104*
X02078Y04694D02*
X02089D01*
X02078Y04683*
Y04681*
X02081Y04678*
X02086*
X02089Y04681*
X02106Y0459D02*
Y04606D01*
X02099*
X02096Y04603*
Y04593*
X02099Y0459*
X02106*
X02091Y04606D02*
X02085D01*
X02088*
Y0459*
X02091Y04593*
X05357Y04787D02*
Y04771D01*
X05349*
X05346Y04774*
Y04779*
X05349Y04782*
X05357*
X05351D02*
X05346Y04787D01*
X05341Y04771D02*
X0533D01*
Y04774*
X05341Y04784*
Y04787*
X05315Y04771D02*
X0532Y04774D01*
X05325Y04779*
Y04784*
X05322Y04787*
X05317*
X05315Y04784*
Y04782*
X05317Y04779*
X05325*
X05309Y0479D02*
X05299D01*
X05294Y04787D02*
X05288D01*
X05291*
Y04771*
X05294Y04774*
X04757Y04787D02*
Y04771D01*
X04749*
X04746Y04774*
Y04779*
X04749Y04782*
X04757*
X04751D02*
X04746Y04787D01*
X04741Y04771D02*
X0473D01*
Y04774*
X04741Y04784*
Y04787*
X04715Y04771D02*
X04725D01*
Y04779*
X0472Y04776*
X04717*
X04715Y04779*
Y04784*
X04717Y04787*
X04722*
X04725Y04784*
X04709Y0479D02*
X04699D01*
X04694Y04787D02*
X04688D01*
X04691*
Y04771*
X04694Y04774*
X05057Y04787D02*
Y04771D01*
X05049*
X05046Y04774*
Y04779*
X05049Y04782*
X05057*
X05051D02*
X05046Y04787D01*
X05041Y04771D02*
X0503D01*
Y04774*
X05041Y04784*
Y04787*
X05017D02*
Y04771D01*
X05025Y04779*
X05015*
X05009Y0479D02*
X04999D01*
X04994Y04787D02*
X04988D01*
X04991*
Y04771*
X04994Y04774*
X04357Y04775D02*
Y04791D01*
X04365*
X04368Y04788*
Y04783*
X04365Y0478*
X04357*
X04363D02*
X04368Y04775D01*
X04373Y04791D02*
X04384D01*
Y04788*
X04373Y04778*
Y04775*
X04389Y04788D02*
X04392Y04791D01*
X04397*
X04399Y04788*
Y04786*
X04397Y04783*
X04394*
X04397*
X04399Y0478*
Y04778*
X04397Y04775*
X04392*
X04389Y04778*
X04405Y04772D02*
X04415D01*
X0442Y04775D02*
X04426D01*
X04423*
Y04791*
X0442Y04788*
X05297Y04837D02*
X05313D01*
Y04844*
X0531Y04847*
X053*
X05297Y04844*
Y04837*
X053Y04852D02*
X05297Y04855D01*
Y0486*
X053Y04863*
X05302*
X05305Y0486*
X05308Y04863*
X0531*
X05313Y0486*
Y04855*
X0531Y04852*
X05308*
X05305Y04855*
X05302Y04852*
X053*
X05305Y04855D02*
Y0486D01*
X05316Y04868D02*
Y04878D01*
X05313Y04884D02*
Y04889D01*
Y04886*
X05297*
X053Y04884*
X04697Y04837D02*
X04713D01*
Y04844*
X0471Y04847*
X047*
X04697Y04844*
Y04837*
Y04852D02*
Y04863D01*
X047*
X0471Y04852*
X04713*
X04716Y04868D02*
Y04878D01*
X04713Y04884D02*
Y04889D01*
Y04886*
X04697*
X047Y04884*
X04997Y04837D02*
X05013D01*
Y04844*
X0501Y04847*
X05*
X04997Y04844*
Y04837*
Y04863D02*
X05Y04858D01*
X05005Y04852*
X0501*
X05013Y04855*
Y0486*
X0501Y04863*
X05008*
X05005Y0486*
Y04852*
X05016Y04868D02*
Y04878D01*
X05013Y04884D02*
Y04889D01*
Y04886*
X04997*
X05Y04884*
X04397Y04837D02*
X04413D01*
Y04844*
X0441Y04847*
X044*
X04397Y04844*
Y04837*
Y04863D02*
Y04852D01*
X04405*
X04402Y04858*
Y0486*
X04405Y04863*
X0441*
X04413Y0486*
Y04855*
X0441Y04852*
X04416Y04868D02*
Y04878D01*
X04413Y04884D02*
Y04889D01*
Y04886*
X04397*
X044Y04884*
M02*