%FSTAX23Y23*%
%MOIN*%
%SFA1B1*%

%IPPOS*%
%ADD27C,0.030000*%
%ADD28R,0.030000X0.030000*%
%ADD29C,0.060000*%
%ADD30C,0.018000*%
%ADD31C,0.070000*%
%LNseniordesign-1*%
%LPD*%
G36*
X05576Y03639D02*
X05547D01*
X05529Y03638*
X05512Y03633*
X05497Y03624*
X05483Y03613*
X05472Y036*
X05464Y03584*
X05459Y03567*
X05457Y0355*
X05459Y03533*
Y03532*
Y03524*
Y03518*
X05467Y0351*
X05472Y035*
X05483Y03487*
X05497Y03476*
X05507Y0347*
X05512Y03465*
X0552*
X05529Y03462*
X05547Y03461*
X05576*
Y0286*
X04403*
Y03171*
X04402Y03183*
X04399Y03194*
X04393Y03204*
X04386Y03214*
X04376Y03221*
X04366Y03227*
X04355Y0323*
X04344Y03231*
Y03236*
X04347Y03237*
X04352Y0324*
X04355Y03245*
X04356Y03251*
X04355Y03257*
X04352Y03262*
X04347Y03265*
X04341Y03266*
X04335Y03265*
X0433Y03262*
X04327Y03257*
X04326Y03251*
X04327Y03245*
X0433Y0324*
X04335Y03237*
X0434Y03236*
Y03231*
X04331Y0323*
X0432Y03227*
X0431Y03221*
X043Y03214*
X04293Y03204*
X04287Y03194*
X04284Y03183*
X04283Y03171*
Y0286*
X0201*
Y03461*
X02039*
X02057Y03462*
X02074Y03467*
X02089Y03476*
X02103Y03487*
X02114Y035*
X02122Y03516*
X02127Y03533*
X02129Y0355*
X02127Y03567*
X02122Y03584*
X02114Y036*
X02103Y03613*
X02089Y03624*
X02074Y03633*
X02057Y03638*
X02039Y03639*
X0201*
Y05077*
X02232*
X02233Y05072*
X02232Y05071*
X02224Y05066*
X02219Y05058*
X02215Y05049*
X02214Y0504*
X02215Y05031*
X02219Y05022*
X02224Y05014*
X02232Y05009*
X02241Y05005*
X0225Y05004*
X02259Y05005*
X02268Y05009*
X02276Y05014*
X02281Y05022*
X02285Y05031*
X02286Y0504*
X02285Y05049*
X02281Y05058*
X02276Y05066*
X02268Y05071*
X02267Y05072*
X02268Y05077*
X02332*
X02333Y05072*
X02332Y05071*
X02324Y05066*
X02319Y05058*
X02315Y05049*
X02314Y0504*
X02315Y05031*
X02319Y05022*
X02324Y05014*
X02332Y05009*
X02341Y05005*
X0235Y05004*
X02359Y05005*
X02368Y05009*
X02376Y05014*
X02381Y05022*
X02385Y05031*
X02386Y0504*
X02385Y05049*
X02381Y05058*
X02376Y05066*
X02368Y05071*
X02367Y05072*
X02368Y05077*
X02424*
X02426Y05072*
X02421Y05069*
X02415Y0506*
X02411Y0505*
X0241Y05045*
X0249*
X02489Y0505*
X02485Y0506*
X02479Y05069*
X02474Y05072*
X02476Y05077*
X02532*
X02533Y05072*
X02532Y05071*
X02524Y05066*
X02519Y05058*
X02515Y05049*
X02514Y0504*
X02515Y05031*
X02519Y05022*
X02524Y05014*
X02532Y05009*
X02541Y05005*
X0255Y05004*
X02559Y05005*
X02568Y05009*
X02576Y05014*
X02581Y05022*
X02585Y05031*
X02586Y0504*
X02585Y05049*
X02581Y05058*
X02576Y05066*
X02568Y05071*
X02567Y05072*
X02568Y05077*
X02632*
X02633Y05072*
X02632Y05071*
X02624Y05066*
X02619Y05058*
X02615Y05049*
X02614Y0504*
X02615Y05031*
X02619Y05022*
X02624Y05014*
X02632Y05009*
X02641Y05005*
X0265Y05004*
X02659Y05005*
X02668Y05009*
X02676Y05014*
X02681Y05022*
X02685Y05031*
X02686Y0504*
X02685Y05049*
X02681Y05058*
X02676Y05066*
X02668Y05071*
X02667Y05072*
X02668Y05077*
X05576*
Y03639*
G37*
%LNseniordesign-2*%
%LPC*%
G36*
X05305Y03527D02*
X05285D01*
Y03508*
X05305*
Y03527*
G37*
G36*
X05335D02*
X05315D01*
Y03508*
X05335*
Y03527*
G37*
G36*
X04715D02*
Y03508D01*
X04734*
X04733Y03512*
X04728Y03521*
X04719Y03526*
X04715Y03527*
G37*
G36*
X03498Y03507D02*
Y03494D01*
X03511*
Y03496*
X03507Y03503*
X035Y03507*
X03498*
G37*
G36*
X04705Y03527D02*
X047Y03526D01*
X04692Y03521*
X04686Y03512*
Y03508*
X04705*
Y03527*
G37*
G36*
X04303Y03539D02*
X04297Y03538D01*
X04292Y03535*
X04289Y0353*
X04288Y03524*
X04289Y03518*
X04292Y03513*
X04297Y0351*
X04303Y03509*
X04309Y0351*
X04314Y03513*
X04317Y03518*
X04318Y03524*
X04317Y0353*
X04314Y03535*
X04309Y03538*
X04303Y03539*
G37*
G36*
X0518Y03665D02*
X05174Y03664D01*
X05169Y03661*
X05166Y03656*
X05165Y0365*
X05166Y03644*
X05169Y03639*
X05174Y03636*
X0518Y03635*
X05186Y03636*
X05191Y03639*
X05194Y03644*
X05195Y0365*
X05194Y03656*
X05191Y03661*
X05186Y03664*
X0518Y03665*
G37*
G36*
X05225D02*
X05219Y03664D01*
X05214Y03661*
X05211Y03656*
X0521Y0365*
X05211Y03644*
X05214Y03639*
X05219Y03636*
X05225Y03635*
X05231Y03636*
X05236Y03639*
X05239Y03644*
X0524Y0365*
X05239Y03656*
X05236Y03661*
X05231Y03664*
X05225Y03665*
G37*
G36*
X03736Y03658D02*
X0373Y03657D01*
X03725Y03654*
X03722Y03649*
X03721Y03643*
X03722Y03637*
X03725Y03632*
X0373Y03629*
X03736Y03628*
X03742Y03629*
X03747Y03632*
X0375Y03637*
X03751Y03643*
X0375Y03649*
X03747Y03654*
X03742Y03657*
X03736Y03658*
G37*
G36*
X03355Y03649D02*
X03349Y03648D01*
X03344Y03645*
X03341Y0364*
X0334Y03634*
X03341Y03628*
X03344Y03623*
X03349Y0362*
X03355Y03619*
X03361Y0362*
X03366Y03623*
X03369Y03628*
X0337Y03634*
X03369Y0364*
X03366Y03645*
X03361Y03648*
X03355Y03649*
G37*
G36*
X03226Y03653D02*
X0322Y03652D01*
X03215Y03649*
X03212Y03644*
X03211Y03638*
X03212Y03632*
X03215Y03627*
X0322Y03624*
X03226Y03623*
X03232Y03624*
X03237Y03627*
X0324Y03632*
X03241Y03638*
X0324Y03644*
X03237Y03649*
X03232Y03652*
X03226Y03653*
G37*
G36*
X04734Y03498D02*
X04715D01*
Y03478*
X04719Y03479*
X04728Y03485*
X04733Y03493*
X04734Y03498*
G37*
G36*
X0461Y03524D02*
X04602Y03522D01*
X04595Y03518*
X0459Y03511*
X04589Y03503*
X0459Y03495*
X04595Y03488*
X04602Y03483*
X0461Y03482*
X04618Y03483*
X04625Y03488*
X04629Y03495*
X04631Y03503*
X04629Y03511*
X04625Y03518*
X04618Y03522*
X0461Y03524*
G37*
G36*
X04705Y03498D02*
X04686D01*
Y03493*
X04692Y03485*
X047Y03479*
X04705Y03478*
Y03498*
G37*
G36*
X05305D02*
X05285D01*
Y03478*
X05305*
Y03498*
G37*
G36*
X05335D02*
X05315D01*
Y03478*
X05335*
Y03498*
G37*
G36*
X0491Y03524D02*
X04902Y03522D01*
X04895Y03518*
X0489Y03511*
X04889Y03503*
X0489Y03495*
X04895Y03488*
X04902Y03483*
X0491Y03482*
X04918Y03483*
X04925Y03488*
X04929Y03495*
X04931Y03503*
X04929Y03511*
X04925Y03518*
X04918Y03522*
X0491Y03524*
G37*
G36*
X04399Y03517D02*
X04393Y03516D01*
X04388Y03513*
X04385Y03508*
X04384Y03502*
X04385Y03496*
X04388Y03491*
X04393Y03488*
X04399Y03487*
X04405Y03488*
X0441Y03491*
X04413Y03496*
X04414Y03502*
X04413Y03508*
X0441Y03513*
X04405Y03516*
X04399Y03517*
G37*
G36*
X03488Y03507D02*
X03486D01*
X03479Y03503*
X03475Y03496*
Y03494*
X03488*
Y03507*
G37*
G36*
X0481Y03528D02*
X04802Y03526D01*
X04795Y03522*
X0479Y03515*
X04789Y03507*
X0479Y03498*
X04795Y03492*
X04802Y03487*
X0481Y03485*
X04818Y03487*
X04825Y03492*
X04829Y03498*
X04831Y03507*
X04829Y03515*
X04825Y03522*
X04818Y03526*
X0481Y03528*
G37*
G36*
X05109Y03524D02*
X05101Y03522D01*
X05094Y03518*
X05089Y03511*
X05088Y03503*
X05089Y03495*
X05094Y03488*
X05101Y03483*
X05109Y03482*
X05117Y03483*
X05124Y03488*
X05129Y03495*
X0513Y03503*
X05129Y03511*
X05124Y03518*
X05117Y03522*
X05109Y03524*
G37*
G36*
X0521D02*
X05202Y03522D01*
X05195Y03518*
X0519Y03511*
X05189Y03503*
X0519Y03495*
X05195Y03488*
X05202Y03483*
X0521Y03482*
X05218Y03483*
X05225Y03488*
X05229Y03495*
X05231Y03503*
X05229Y03511*
X05225Y03518*
X05218Y03522*
X0521Y03524*
G37*
G36*
X05518Y03834D02*
X05509Y03833D01*
X055Y03829*
X05492Y03824*
X05487Y03816*
X05483Y03807*
X05482Y03798*
X05483Y03789*
X05487Y0378*
X05492Y03772*
X055Y03767*
X05509Y03763*
X05518Y03762*
X05527Y03763*
X05536Y03767*
X05544Y03772*
X05549Y0378*
X05553Y03789*
X05554Y03798*
X05553Y03807*
X05549Y03816*
X05544Y03824*
X05536Y03829*
X05527Y03833*
X05518Y03834*
G37*
G36*
X05073Y03792D02*
X05067Y03791D01*
X05062Y03788*
X05059Y03783*
X05058Y03777*
X05059Y03771*
X05062Y03766*
X05067Y03763*
X05073Y03762*
X05079Y03763*
X05084Y03766*
X05087Y03771*
X05088Y03777*
X05087Y03783*
X05084Y03788*
X05079Y03791*
X05073Y03792*
G37*
G36*
X03077Y03782D02*
X03071Y03781D01*
X03066Y03778*
X03063Y03773*
X03062Y03767*
X03063Y03761*
X03066Y03756*
X03071Y03753*
X03077Y03752*
X03083Y03753*
X03088Y03756*
X03091Y03761*
X03092Y03767*
X03091Y03773*
X03088Y03778*
X03083Y03781*
X03077Y03782*
G37*
G36*
X02046Y03781D02*
X0204Y0378D01*
X02035Y03777*
X02032Y03772*
X02031Y03766*
X02032Y0376*
X02035Y03755*
X0204Y03752*
X02046Y03751*
X02052Y03752*
X02057Y03755*
X0206Y0376*
X02061Y03766*
X0206Y03772*
X02057Y03777*
X02052Y0378*
X02046Y03781*
G37*
G36*
X03227D02*
X03221Y0378D01*
X03216Y03777*
X03213Y03772*
X03212Y03766*
X03213Y0376*
X03216Y03755*
X03221Y03752*
X03227Y03751*
X03233Y03752*
X03238Y03755*
X03241Y0376*
X03242Y03766*
X03241Y03772*
X03238Y03777*
X03233Y0378*
X03227Y03781*
G37*
G36*
X04575Y03794D02*
X04569Y03793D01*
X04564Y0379*
X04561Y03785*
X0456Y03779*
X04561Y03773*
X04564Y03768*
X04569Y03765*
X04575Y03764*
X04581Y03765*
X04586Y03768*
X04589Y03773*
X0459Y03779*
X04589Y03785*
X04586Y0379*
X04581Y03793*
X04575Y03794*
G37*
G36*
X05518Y03934D02*
X05509Y03933D01*
X055Y03929*
X05492Y03924*
X05487Y03916*
X05483Y03907*
X05482Y03898*
X05483Y03889*
X05487Y0388*
X05492Y03872*
X055Y03867*
X05509Y03863*
X05518Y03862*
X05527Y03863*
X05536Y03867*
X05544Y03872*
X05549Y0388*
X05553Y03889*
X05554Y03898*
X05553Y03907*
X05549Y03916*
X05544Y03924*
X05536Y03929*
X05527Y03933*
X05518Y03934*
G37*
G36*
X03636Y03929D02*
X0363Y03928D01*
X03625Y03925*
X03622Y0392*
X03621Y03914*
X03622Y03908*
X03625Y03903*
X0363Y039*
X03636Y03899*
X03642Y039*
X03647Y03903*
X0365Y03908*
X03651Y03914*
X0365Y0392*
X03647Y03925*
X03642Y03928*
X03636Y03929*
G37*
G36*
X02629Y03858D02*
X02623Y03857D01*
X02618Y03854*
X02615Y03849*
X02614Y03843*
X02615Y03837*
X02618Y03832*
X02623Y03829*
X02629Y03828*
X02635Y03829*
X0264Y03832*
X02643Y03837*
X02644Y03843*
X02643Y03849*
X0264Y03854*
X02635Y03857*
X02629Y03858*
G37*
G36*
X03296Y03824D02*
X0329Y03823D01*
X03285Y0382*
X03282Y03815*
X03281Y03809*
X03282Y03803*
X03285Y03798*
X0329Y03795*
X03296Y03794*
X03302Y03795*
X03307Y03798*
X0331Y03803*
X03311Y03809*
X0331Y03815*
X03307Y0382*
X03302Y03823*
X03296Y03824*
G37*
G36*
X02123Y03843D02*
X02117Y03842D01*
X02112Y03839*
X02109Y03834*
X02108Y03828*
X02109Y03822*
X02112Y03817*
X02117Y03814*
X02123Y03813*
X02129Y03814*
X02134Y03817*
X02137Y03822*
X02138Y03828*
X02137Y03834*
X02134Y03839*
X02129Y03842*
X02123Y03843*
G37*
G36*
X05025Y03719D02*
X05019Y03718D01*
X05014Y03715*
X05011Y0371*
X0501Y03704*
X05011Y03698*
X05014Y03693*
X05019Y0369*
X05025Y03689*
X05031Y0369*
X05036Y03693*
X05039Y03698*
X0504Y03704*
X05039Y0371*
X05036Y03715*
X05031Y03718*
X05025Y03719*
G37*
G36*
X02516Y03722D02*
X0251Y03721D01*
X02505Y03718*
X02502Y03713*
X02501Y03707*
X02502Y03701*
X02505Y03696*
X0251Y03693*
X02516Y03692*
X02522Y03693*
X02527Y03696*
X0253Y03701*
X02531Y03707*
X0253Y03713*
X02527Y03718*
X02522Y03721*
X02516Y03722*
G37*
G36*
X04892Y03699D02*
X04886Y03698D01*
X04881Y03695*
X04878Y0369*
X04877Y03684*
X04878Y03678*
X04881Y03673*
X04886Y0367*
X04892Y03669*
X04898Y0367*
X04903Y03673*
X04906Y03678*
X04907Y03684*
X04906Y0369*
X04903Y03695*
X04898Y03698*
X04892Y03699*
G37*
G36*
X04414Y03689D02*
X04408Y03688D01*
X04403Y03685*
X044Y0368*
X04399Y03674*
X044Y03668*
X04403Y03663*
X04408Y0366*
X04414Y03659*
X0442Y0366*
X04425Y03663*
X04428Y03668*
X04429Y03674*
X04428Y0368*
X04425Y03685*
X0442Y03688*
X04414Y03689*
G37*
G36*
X04843Y03697D02*
X04837Y03696D01*
X04832Y03693*
X04829Y03688*
X04828Y03682*
X04829Y03676*
X04832Y03671*
X04837Y03668*
X04843Y03667*
X04849Y03668*
X04854Y03671*
X04857Y03676*
X04858Y03682*
X04857Y03688*
X04854Y03693*
X04849Y03696*
X04843Y03697*
G37*
G36*
X0353Y03731D02*
X03524Y0373D01*
X03519Y03727*
X03516Y03722*
X03515Y03716*
X03516Y0371*
X03519Y03705*
X03524Y03702*
X0353Y03701*
X03536Y03702*
X03541Y03705*
X03544Y0371*
X03545Y03716*
X03544Y03722*
X03541Y03727*
X03536Y0373*
X0353Y03731*
G37*
G36*
X02581Y03753D02*
X02575Y03752D01*
X0257Y03749*
X02567Y03744*
X02566Y03738*
X02567Y03732*
X0257Y03727*
X02575Y03724*
X02581Y03723*
X02587Y03724*
X02592Y03727*
X02595Y03732*
X02596Y03738*
X02595Y03744*
X02592Y03749*
X02587Y03752*
X02581Y03753*
G37*
G36*
X0375Y03766D02*
X03744Y03765D01*
X03739Y03762*
X03736Y03757*
X03735Y03751*
X03736Y03745*
X03739Y0374*
X03744Y03737*
X0375Y03736*
X03756Y03737*
X03761Y0374*
X03764Y03745*
X03765Y03751*
X03764Y03757*
X03761Y03762*
X03756Y03765*
X0375Y03766*
G37*
G36*
X04256Y03746D02*
X0425Y03745D01*
X04245Y03742*
X04242Y03737*
X04241Y03731*
X04242Y03725*
X04245Y0372*
X0425Y03717*
X04256Y03716*
X04262Y03717*
X04267Y0372*
X0427Y03725*
X04271Y03731*
X0427Y03737*
X04267Y03742*
X04262Y03745*
X04256Y03746*
G37*
G36*
X05396Y03737D02*
X0539Y03736D01*
X05385Y03733*
X05382Y03728*
X05381Y03722*
X05382Y03716*
X05385Y03711*
X0539Y03708*
X05396Y03707*
X05402Y03708*
X05407Y03711*
X0541Y03716*
X05411Y03722*
X0541Y03728*
X05407Y03733*
X05402Y03736*
X05396Y03737*
G37*
G36*
X02238Y0374D02*
X02232Y03739D01*
X02227Y03736*
X02224Y03731*
X02223Y03725*
X02224Y03719*
X02227Y03714*
X02232Y03711*
X02238Y0371*
X02244Y03711*
X02249Y03714*
X02252Y03719*
X02253Y03725*
X02252Y03731*
X02249Y03736*
X02244Y03739*
X02238Y0374*
G37*
G36*
X03511Y03484D02*
X03498D01*
Y03471*
X035*
X03507Y03475*
X03511Y03482*
Y03484*
G37*
G36*
X04533Y03111D02*
X0452D01*
Y03109*
X04524Y03102*
X04531Y03098*
X04533*
Y03111*
G37*
G36*
X04556D02*
X04543D01*
Y03098*
X04545*
X04552Y03102*
X04556Y03109*
Y03111*
G37*
G36*
X04758Y0311D02*
X04745D01*
Y03097*
X04747*
X04754Y03101*
X04758Y03108*
Y0311*
G37*
G36*
X03691Y03111D02*
X03685Y0311D01*
X0368Y03107*
X03677Y03102*
X03676Y03096*
X03677Y0309*
X0368Y03085*
X03685Y03082*
X03691Y03081*
X03697Y03082*
X03702Y03085*
X03705Y0309*
X03706Y03096*
X03705Y03102*
X03702Y03107*
X03697Y0311*
X03691Y03111*
G37*
G36*
X04735Y0311D02*
X04722D01*
Y03108*
X04726Y03101*
X04733Y03097*
X04735*
Y0311*
G37*
G36*
X05339Y03112D02*
X05326D01*
Y0311*
X0533Y03103*
X05337Y03099*
X05339*
Y03112*
G37*
G36*
X05136Y03113D02*
X05123D01*
Y03111*
X05127Y03104*
X05134Y031*
X05136*
Y03113*
G37*
G36*
X05159D02*
X05146D01*
Y031*
X05148*
X05155Y03104*
X05159Y03111*
Y03113*
G37*
G36*
X04958D02*
X04945D01*
Y031*
X04947*
X04954Y03104*
X04958Y03111*
Y03113*
G37*
G36*
X05362Y03112D02*
X05349D01*
Y03099*
X05351*
X05358Y03103*
X05362Y0311*
Y03112*
G37*
G36*
X04935Y03113D02*
X04922D01*
Y03111*
X04926Y03104*
X04933Y031*
X04935*
Y03113*
G37*
G36*
X04842Y02973D02*
X04836Y02972D01*
X04831Y02969*
X04828Y02964*
X04827Y02958*
X04828Y02952*
X04831Y02947*
X04836Y02944*
X04842Y02943*
X04848Y02944*
X04853Y02947*
X04856Y02952*
X04857Y02958*
X04856Y02964*
X04853Y02969*
X04848Y02972*
X04842Y02973*
G37*
G36*
X04942D02*
X04936Y02972D01*
X04931Y02969*
X04928Y02964*
X04927Y02958*
X04928Y02952*
X04931Y02947*
X04936Y02944*
X04942Y02943*
X04948Y02944*
X04953Y02947*
X04956Y02952*
X04957Y02958*
X04956Y02964*
X04953Y02969*
X04948Y02972*
X04942Y02973*
G37*
G36*
X05139Y02972D02*
X05133Y02971D01*
X05128Y02968*
X05125Y02963*
X05124Y02957*
X05125Y02951*
X05128Y02946*
X05133Y02943*
X05139Y02942*
X05145Y02943*
X0515Y02946*
X05153Y02951*
X05154Y02957*
X05153Y02963*
X0515Y02968*
X05145Y02971*
X05139Y02972*
G37*
G36*
X04742D02*
X04736Y02971D01*
X04731Y02968*
X04728Y02963*
X04727Y02957*
X04728Y02951*
X04731Y02946*
X04736Y02943*
X04742Y02942*
X04748Y02943*
X04753Y02946*
X04756Y02951*
X04757Y02957*
X04756Y02963*
X04753Y02968*
X04748Y02971*
X04742Y02972*
G37*
G36*
X05042D02*
X05036Y02971D01*
X05031Y02968*
X05028Y02963*
X05027Y02957*
X05028Y02951*
X05031Y02946*
X05036Y02943*
X05042Y02942*
X05048Y02943*
X05053Y02946*
X05056Y02951*
X05057Y02957*
X05056Y02963*
X05053Y02968*
X05048Y02971*
X05042Y02972*
G37*
G36*
X05242Y02973D02*
X05236Y02972D01*
X05231Y02969*
X05228Y02964*
X05227Y02958*
X05228Y02952*
X05231Y02947*
X05236Y02944*
X05242Y02943*
X05248Y02944*
X05253Y02947*
X05256Y02952*
X05257Y02958*
X05256Y02964*
X05253Y02969*
X05248Y02972*
X05242Y02973*
G37*
G36*
X03595Y03111D02*
X03589Y0311D01*
X03584Y03107*
X03581Y03102*
X0358Y03096*
X03581Y0309*
X03584Y03085*
X03589Y03082*
X03595Y03081*
X03601Y03082*
X03606Y03085*
X03609Y0309*
X0361Y03096*
X03609Y03102*
X03606Y03107*
X03601Y0311*
X03595Y03111*
G37*
G36*
X03642D02*
X03636Y0311D01*
X03631Y03107*
X03628Y03102*
X03627Y03096*
X03628Y0309*
X03631Y03085*
X03636Y03082*
X03642Y03081*
X03648Y03082*
X03653Y03085*
X03656Y0309*
X03657Y03096*
X03656Y03102*
X03653Y03107*
X03648Y0311*
X03642Y03111*
G37*
G36*
X03891Y03109D02*
X03885Y03108D01*
X0388Y03105*
X03877Y031*
X03876Y03094*
X03877Y03088*
X0388Y03083*
X03885Y0308*
X03891Y03079*
X03897Y0308*
X03902Y03083*
X03905Y03088*
X03906Y03094*
X03905Y031*
X03902Y03105*
X03897Y03108*
X03891Y03109*
G37*
G36*
X03736Y03082D02*
X0373Y03081D01*
X03725Y03078*
X03722Y03073*
X03721Y03067*
X03722Y03061*
X03725Y03056*
X0373Y03053*
X03736Y03052*
X03742Y03053*
X03747Y03056*
X0375Y03061*
X03751Y03067*
X0375Y03073*
X03747Y03078*
X03742Y03081*
X03736Y03082*
G37*
G36*
X03989Y03106D02*
X03983Y03105D01*
X03978Y03102*
X03975Y03097*
X03974Y03091*
X03975Y03085*
X03978Y0308*
X03983Y03077*
X03989Y03076*
X03995Y03077*
X04Y0308*
X04003Y03085*
X04004Y03091*
X04003Y03097*
X04Y03102*
X03995Y03105*
X03989Y03106*
G37*
G36*
X03986Y03191D02*
X0398Y0319D01*
X03975Y03187*
X03972Y03182*
X03971Y03176*
X03972Y0317*
X03975Y03165*
X0398Y03162*
X03986Y03161*
X03992Y03162*
X03997Y03165*
X04Y0317*
X04001Y03176*
X04Y03182*
X03997Y03187*
X03992Y0319*
X03986Y03191*
G37*
G36*
X02393Y03215D02*
X02387Y03214D01*
X02382Y03211*
X02379Y03206*
X02378Y032*
X02379Y03194*
X02382Y03189*
X02387Y03186*
X02393Y03185*
X02399Y03186*
X02404Y03189*
X02407Y03194*
X02408Y032*
X02407Y03206*
X02404Y03211*
X02399Y03214*
X02393Y03215*
G37*
G36*
X03686Y03189D02*
X0368Y03188D01*
X03675Y03185*
X03672Y0318*
X03671Y03174*
X03672Y03168*
X03675Y03163*
X0368Y0316*
X03686Y03159*
X03692Y0316*
X03697Y03163*
X037Y03168*
X03701Y03174*
X037Y0318*
X03697Y03185*
X03692Y03188*
X03686Y03189*
G37*
G36*
X03593Y03183D02*
X03587Y03182D01*
X03582Y03179*
X03579Y03174*
X03578Y03168*
X03579Y03162*
X03582Y03157*
X03587Y03154*
X03593Y03153*
X03599Y03154*
X03604Y03157*
X03607Y03162*
X03608Y03168*
X03607Y03174*
X03604Y03179*
X03599Y03182*
X03593Y03183*
G37*
G36*
X03742Y03188D02*
X03736Y03187D01*
X03731Y03184*
X03728Y03179*
X03727Y03173*
X03728Y03167*
X03731Y03162*
X03736Y03159*
X03742Y03158*
X03748Y03159*
X03753Y03162*
X03756Y03167*
X03757Y03173*
X03756Y03179*
X03753Y03184*
X03748Y03187*
X03742Y03188*
G37*
G36*
X0334Y03231D02*
X03335Y0323D01*
X0333Y03226*
X03326Y03221*
X03325Y03216*
X03326Y0321*
X0333Y03205*
X03335Y03201*
X0334Y032*
X03346Y03201*
X03351Y03205*
X03355Y0321*
X03356Y03216*
X03355Y03221*
X03351Y03226*
X03346Y0323*
X0334Y03231*
G37*
G36*
X04798Y03428D02*
X04792Y03427D01*
X04787Y03424*
X04784Y03419*
X04783Y03413*
X04784Y03407*
X04787Y03402*
X0479Y034*
Y03395*
X04788Y03394*
X04785Y03389*
X04784Y03383*
X04785Y03377*
X04788Y03372*
X04793Y03369*
X04799Y03368*
X04805Y03369*
X0481Y03372*
X04813Y03377*
X04814Y03383*
X04813Y03389*
X0481Y03394*
X04807Y03396*
Y03401*
X04809Y03402*
X04812Y03407*
X04813Y03413*
X04812Y03419*
X04809Y03424*
X04804Y03427*
X04798Y03428*
G37*
G36*
X03488Y03484D02*
X03475D01*
Y03482*
X03479Y03475*
X03486Y03471*
X03488*
Y03484*
G37*
G36*
X04927Y03424D02*
X04921Y03423D01*
X04916Y0342*
X04913Y03415*
X04912Y03409*
X04913Y03403*
X04916Y03398*
X04918Y03397*
Y03392*
X04917*
X04914Y03387*
X04913Y03381*
X04914Y03375*
X04917Y0337*
X04922Y03367*
X04928Y03366*
X04934Y03367*
X04939Y0337*
X04942Y03375*
X04943Y03381*
X04942Y03387*
X04939Y03392*
X04937Y03393*
Y03398*
X04938*
X04941Y03403*
X04942Y03409*
X04941Y03415*
X04938Y0342*
X04933Y03423*
X04927Y03424*
G37*
G36*
X04148Y03248D02*
X04142Y03247D01*
X04137Y03244*
X04134Y03239*
X04133Y03233*
X04134Y03227*
X04137Y03222*
X04142Y03219*
X04148Y03218*
X04154Y03219*
X04159Y03222*
X04162Y03227*
X04163Y03233*
X04162Y03239*
X04159Y03244*
X04154Y03247*
X04148Y03248*
G37*
G36*
X04188D02*
X04182Y03247D01*
X04177Y03244*
X04174Y03239*
X04173Y03233*
X04174Y03227*
X04177Y03222*
X04182Y03219*
X04188Y03218*
X04194Y03219*
X04199Y03222*
X04202Y03227*
X04203Y03233*
X04202Y03239*
X04199Y03244*
X04194Y03247*
X04188Y03248*
G37*
G36*
X04543Y03134D02*
Y03121D01*
X04556*
Y03123*
X04552Y0313*
X04545Y03134*
X04543*
G37*
G36*
X05339Y03135D02*
X05337D01*
X0533Y03131*
X05326Y03124*
Y03122*
X05339*
Y03135*
G37*
G36*
X04533Y03134D02*
X04531D01*
X04524Y0313*
X0452Y03123*
Y03121*
X04533*
Y03134*
G37*
G36*
X04735Y03133D02*
X04733D01*
X04726Y03129*
X04722Y03122*
Y0312*
X04735*
Y03133*
G37*
G36*
X04745D02*
Y0312D01*
X04758*
Y03122*
X04754Y03129*
X04747Y03133*
X04745*
G37*
G36*
X05349Y03135D02*
Y03122D01*
X05362*
Y03124*
X05358Y03131*
X05351Y03135*
X05349*
G37*
G36*
X05146Y03136D02*
Y03123D01*
X05159*
Y03125*
X05155Y03132*
X05148Y03136*
X05146*
G37*
G36*
X03095Y03179D02*
X03089Y03178D01*
X03084Y03175*
X03081Y0317*
X0308Y03164*
X03081Y03158*
X03084Y03153*
X03089Y0315*
X03095Y03149*
X03101Y0315*
X03106Y03153*
X03109Y03158*
X0311Y03164*
X03109Y0317*
X03106Y03175*
X03101Y03178*
X03095Y03179*
G37*
G36*
X05136Y03136D02*
X05134D01*
X05127Y03132*
X05123Y03125*
Y03123*
X05136*
Y03136*
G37*
G36*
X04935D02*
X04933D01*
X04926Y03132*
X04922Y03125*
Y03123*
X04935*
Y03136*
G37*
G36*
X04945D02*
Y03123D01*
X04958*
Y03125*
X04954Y03132*
X04947Y03136*
X04945*
G37*
G36*
X03654Y047D02*
X03648Y04699D01*
X03643Y04696*
X0364Y04691*
X03639Y04685*
X0364Y04679*
X03643Y04674*
X03648Y04671*
X03654Y0467*
X0366Y04671*
X03665Y04674*
X03668Y04679*
X03669Y04685*
X03668Y04691*
X03665Y04696*
X0366Y04699*
X03654Y047*
G37*
G36*
X02316Y04704D02*
X0231Y04703D01*
X02305Y047*
X02302Y04695*
X02301Y04689*
X02302Y04683*
X02305Y04678*
X0231Y04675*
X02316Y04674*
X02322Y04675*
X02327Y04678*
X0233Y04683*
X02331Y04689*
X0233Y04695*
X02327Y047*
X02322Y04703*
X02316Y04704*
G37*
G36*
X03498Y04622D02*
X03492Y04621D01*
X03487Y04618*
X03484Y04613*
X03483Y04607*
X03484Y04601*
X03487Y04596*
X03492Y04593*
X03498Y04592*
X03504Y04593*
X03509Y04596*
X03512Y04601*
X03513Y04607*
X03512Y04613*
X03509Y04618*
X03504Y04621*
X03498Y04622*
G37*
G36*
X05512Y04589D02*
Y04549D01*
X05552*
X05551Y04556*
X05546Y04567*
X05539Y04576*
X0553Y04583*
X05519Y04588*
X05512Y04589*
G37*
G36*
X0227Y04617D02*
X02264Y04616D01*
X02259Y04613*
X02256Y04608*
X02255Y04602*
X02256Y04596*
X02259Y04591*
X02264Y04588*
X0227Y04587*
X02276Y04588*
X02281Y04591*
X02284Y04596*
X02285Y04602*
X02284Y04608*
X02281Y04613*
X02276Y04616*
X0227Y04617*
G37*
G36*
X04688Y04724D02*
X04682Y04723D01*
X04677Y0472*
X04674Y04715*
X04673Y04709*
X04674Y04703*
X04677Y04698*
X04682Y04695*
X04688Y04694*
X04694Y04695*
X04699Y04698*
X04702Y04703*
X04703Y04709*
X04702Y04715*
X04699Y0472*
X04694Y04723*
X04688Y04724*
G37*
G36*
X02437Y04791D02*
X02431Y0479D01*
X02426Y04787*
X02423Y04782*
X02422Y04776*
X02423Y0477*
X02426Y04765*
X02431Y04762*
X02437Y04761*
X02443Y04762*
X02448Y04765*
X02451Y0477*
X02452Y04776*
X02451Y04782*
X02448Y04787*
X02443Y0479*
X02437Y04791*
G37*
G36*
X03426Y048D02*
X0342Y04799D01*
X03415Y04796*
X03412Y04791*
X03411Y04785*
X03412Y04779*
X03415Y04774*
X0342Y04771*
X03426Y0477*
X03432Y04771*
X03437Y04774*
X0344Y04779*
X03441Y04785*
X0344Y04791*
X03437Y04796*
X03432Y04799*
X03426Y048*
G37*
G36*
X03655Y04757D02*
X03649Y04756D01*
X03644Y04753*
X03641Y04748*
X0364Y04742*
X03641Y04736*
X03644Y04731*
X03649Y04728*
X03655Y04727*
X03661Y04728*
X03666Y04731*
X03669Y04736*
X0367Y04742*
X03669Y04748*
X03666Y04753*
X03661Y04756*
X03655Y04757*
G37*
G36*
X04066Y04725D02*
X0406Y04724D01*
X04055Y04721*
X04052Y04716*
X04051Y0471*
X04052Y04704*
X04055Y04699*
X0406Y04696*
X04066Y04695*
X04072Y04696*
X04077Y04699*
X0408Y04704*
X04081Y0471*
X0408Y04716*
X04077Y04721*
X04072Y04724*
X04066Y04725*
G37*
G36*
X04513D02*
X04507Y04724D01*
X04502Y04721*
X04499Y04716*
X04498Y0471*
X04499Y04704*
X04502Y04699*
X04507Y04696*
X04513Y04695*
X04519Y04696*
X04524Y04699*
X04527Y04704*
X04528Y0471*
X04527Y04716*
X04524Y04721*
X04519Y04724*
X04513Y04725*
G37*
G36*
X03652Y04405D02*
X03646Y04404D01*
X03641Y04401*
X03638Y04396*
X03637Y0439*
X03638Y04384*
X03641Y04379*
X03646Y04376*
X03652Y04375*
X03658Y04376*
X03663Y04379*
X03666Y04384*
X03667Y0439*
X03666Y04396*
X03663Y04401*
X03658Y04404*
X03652Y04405*
G37*
G36*
X05502Y04539D02*
X05462D01*
X05463Y04532*
X05468Y04521*
X05475Y04512*
X05484Y04505*
X05495Y045*
X05502Y04499*
Y04539*
G37*
G36*
X02649Y0435D02*
X02643Y04349D01*
X02638Y04346*
X02635Y04341*
X02634Y04335*
X02635Y04329*
X02638Y04324*
X02643Y04321*
X02649Y0432*
X02655Y04321*
X0266Y04324*
X02663Y04329*
X02664Y04335*
X02663Y04341*
X0266Y04346*
X02655Y04349*
X02649Y0435*
G37*
G36*
X03198Y0433D02*
Y04317D01*
X03211*
Y04319*
X03207Y04326*
X032Y0433*
X03198*
G37*
G36*
X03652Y04349D02*
X03646Y04348D01*
X03641Y04345*
X03638Y0434*
X03637Y04334*
X03638Y04328*
X03641Y04323*
X03646Y0432*
X03652Y04319*
X03658Y0432*
X03663Y04323*
X03666Y04328*
X03667Y04334*
X03666Y0434*
X03663Y04345*
X03658Y04348*
X03652Y04349*
G37*
G36*
X05552Y04539D02*
X05512D01*
Y04499*
X05519Y045*
X0553Y04505*
X05539Y04512*
X05546Y04521*
X05551Y04532*
X05552Y04539*
G37*
G36*
X05207Y04585D02*
X05196Y04584D01*
X05186Y0458*
X05178Y04573*
X05171Y04565*
X05167Y04555*
X05166Y04544*
X05167Y04533*
X05171Y04523*
X05178Y04515*
X05186Y04508*
X05196Y04504*
X05207Y04503*
X05218Y04504*
X05228Y04508*
X05236Y04515*
X05243Y04523*
X05247Y04533*
X05248Y04544*
X05247Y04555*
X05243Y04565*
X05236Y04573*
X05228Y0458*
X05218Y04584*
X05207Y04585*
G37*
G36*
X05502Y04589D02*
X05495Y04588D01*
X05484Y04583*
X05475Y04576*
X05468Y04567*
X05463Y04556*
X05462Y04549*
X05502*
Y04589*
G37*
G36*
X04907Y04585D02*
X04896Y04584D01*
X04886Y0458*
X04878Y04573*
X04871Y04565*
X04867Y04555*
X04866Y04544*
X04867Y04533*
X04871Y04523*
X04878Y04515*
X04886Y04508*
X04896Y04504*
X04907Y04503*
X04918Y04504*
X04928Y04508*
X04936Y04515*
X04943Y04523*
X04947Y04533*
X04948Y04544*
X04947Y04555*
X04943Y04565*
X04936Y04573*
X04928Y0458*
X04918Y04584*
X04907Y04585*
G37*
G36*
X04307D02*
X04296Y04584D01*
X04286Y0458*
X04278Y04573*
X04271Y04565*
X04267Y04555*
X04266Y04544*
X04267Y04533*
X04271Y04523*
X04278Y04515*
X04286Y04508*
X04296Y04504*
X04307Y04503*
X04318Y04504*
X04328Y04508*
X04336Y04515*
X04343Y04523*
X04347Y04533*
X04348Y04544*
X04347Y04555*
X04343Y04565*
X04336Y04573*
X04328Y0458*
X04318Y04584*
X04307Y04585*
G37*
G36*
X04607D02*
X04596Y04584D01*
X04586Y0458*
X04578Y04573*
X04571Y04565*
X04567Y04555*
X04566Y04544*
X04567Y04533*
X04571Y04523*
X04578Y04515*
X04586Y04508*
X04596Y04504*
X04607Y04503*
X04618Y04504*
X04628Y04508*
X04636Y04515*
X04643Y04523*
X04647Y04533*
X04648Y04544*
X04647Y04555*
X04643Y04565*
X04636Y04573*
X04628Y0458*
X04618Y04584*
X04607Y04585*
G37*
G36*
X02781Y04888D02*
Y04875D01*
X02794*
Y04877*
X0279Y04884*
X02783Y04888*
X02781*
G37*
G36*
X05502Y04926D02*
X05495Y04925D01*
X05484Y0492*
X05475Y04913*
X05468Y04904*
X05463Y04893*
X05462Y04886*
X05502*
Y04926*
G37*
G36*
X02771Y04888D02*
X02769D01*
X02762Y04884*
X02758Y04877*
Y04875*
X02771*
Y04888*
G37*
G36*
X02729Y04903D02*
X02723Y04902D01*
X02718Y04899*
X02715Y04894*
X02714Y04888*
X02715Y04882*
X02718Y04877*
X02723Y04874*
X02729Y04873*
X02735Y04874*
X0274Y04877*
X02743Y04882*
X02744Y04888*
X02743Y04894*
X0274Y04899*
X02735Y04902*
X02729Y04903*
G37*
G36*
X02633Y04886D02*
X0262D01*
Y04873*
X02622*
X02629Y04878*
X02633Y04884*
Y04886*
G37*
G36*
X05512Y04926D02*
Y04886D01*
X05552*
X05551Y04893*
X05546Y04904*
X05539Y04913*
X0553Y0492*
X05519Y04925*
X05512Y04926*
G37*
G36*
X02445Y05035D02*
X0241D01*
X02411Y0503*
X02415Y0502*
X02421Y05011*
X0243Y05005*
X0244Y05001*
X02445Y05*
Y05035*
G37*
G36*
X0249D02*
X02455D01*
Y05*
X0246Y05001*
X0247Y05005*
X02479Y05011*
X02485Y0502*
X02489Y0503*
X0249Y05035*
G37*
G36*
X02126Y0496D02*
X0212Y04959D01*
X02115Y04956*
X02112Y04951*
X02111Y04945*
X02112Y04939*
X02115Y04934*
X0212Y04931*
X02126Y0493*
X02132Y04931*
X02137Y04934*
X0214Y04939*
X02141Y04945*
X0214Y04951*
X02137Y04956*
X02132Y04959*
X02126Y0496*
G37*
G36*
X0262Y0491D02*
Y04896D01*
X02633*
Y04899*
X02629Y04905*
X02622Y04909*
X0262Y0491*
G37*
G36*
X0261D02*
X02608Y04909D01*
X02601Y04905*
X02599Y04902*
X02594*
X02589Y04905*
X02583Y04906*
X02577Y04905*
X02572Y04902*
X02569Y04897*
X02568Y04891*
X02569Y04885*
X02572Y0488*
X02577Y04877*
X02583Y04876*
X02589Y04877*
X02594Y0488*
Y04881*
X02599*
X02601Y04878*
X02608Y04873*
X0261*
Y04891*
Y0491*
G37*
G36*
X05502Y04876D02*
X05462D01*
X05463Y04869*
X05468Y04858*
X05475Y04849*
X05484Y04842*
X05495Y04837*
X05502Y04836*
Y04876*
G37*
G36*
X05552D02*
X05512D01*
Y04836*
X05519Y04837*
X0553Y04842*
X05539Y04849*
X05546Y04858*
X05551Y04869*
X05552Y04876*
G37*
G36*
X02591Y04818D02*
X02585Y04817D01*
X0258Y04814*
X02577Y04809*
X02576Y04803*
X02577Y04797*
X0258Y04792*
X02585Y04789*
X02591Y04788*
X02597Y04789*
X02602Y04792*
X02605Y04797*
X02606Y04803*
X02605Y04809*
X02602Y04814*
X02597Y04817*
X02591Y04818*
G37*
G36*
X02732Y04812D02*
X02726Y04811D01*
X02721Y04808*
X02718Y04803*
X02717Y04797*
X02718Y04791*
X02721Y04786*
X02726Y04783*
X02732Y04782*
X02738Y04783*
X02743Y04786*
X02746Y04791*
X02747Y04797*
X02746Y04803*
X02743Y04808*
X02738Y04811*
X02732Y04812*
G37*
G36*
X0266Y04813D02*
X02654Y04812D01*
X02649Y04809*
X02646Y04804*
X02645Y04798*
X02646Y04792*
X02649Y04787*
X02654Y04784*
X0266Y04783*
X02666Y04784*
X02671Y04787*
X02674Y04792*
X02675Y04798*
X02674Y04804*
X02671Y04809*
X02666Y04812*
X0266Y04813*
G37*
G36*
X04307Y04922D02*
X04296Y04921D01*
X04286Y04917*
X04278Y0491*
X04271Y04902*
X04267Y04892*
X04266Y04881*
X04267Y0487*
X04271Y0486*
X04278Y04852*
X04286Y04845*
X04296Y04841*
X04307Y0484*
X04318Y04841*
X04328Y04845*
X04336Y04852*
X04343Y0486*
X04347Y0487*
X04348Y04881*
X04347Y04892*
X04343Y04902*
X04336Y0491*
X04328Y04917*
X04318Y04921*
X04307Y04922*
G37*
G36*
X02771Y04865D02*
X02758D01*
Y04863*
X02762Y04856*
X02769Y04852*
X02771*
Y04865*
G37*
G36*
X02794D02*
X02781D01*
Y04852*
X02783*
X0279Y04856*
X02794Y04863*
Y04865*
G37*
G36*
X05207Y04922D02*
X05196Y04921D01*
X05186Y04917*
X05178Y0491*
X05171Y04902*
X05167Y04892*
X05166Y04881*
X05167Y0487*
X05171Y0486*
X05178Y04852*
X05186Y04845*
X05196Y04841*
X05207Y0484*
X05218Y04841*
X05228Y04845*
X05236Y04852*
X05243Y0486*
X05247Y0487*
X05248Y04881*
X05247Y04892*
X05243Y04902*
X05236Y0491*
X05228Y04917*
X05218Y04921*
X05207Y04922*
G37*
G36*
X04607D02*
X04596Y04921D01*
X04586Y04917*
X04578Y0491*
X04571Y04902*
X04567Y04892*
X04566Y04881*
X04567Y0487*
X04571Y0486*
X04578Y04852*
X04586Y04845*
X04596Y04841*
X04607Y0484*
X04618Y04841*
X04628Y04845*
X04636Y04852*
X04643Y0486*
X04647Y0487*
X04648Y04881*
X04647Y04892*
X04643Y04902*
X04636Y0491*
X04628Y04917*
X04618Y04921*
X04607Y04922*
G37*
G36*
X04907D02*
X04896Y04921D01*
X04886Y04917*
X04878Y0491*
X04871Y04902*
X04867Y04892*
X04866Y04881*
X04867Y0487*
X04871Y0486*
X04878Y04852*
X04886Y04845*
X04896Y04841*
X04907Y0484*
X04918Y04841*
X04928Y04845*
X04936Y04852*
X04943Y0486*
X04947Y0487*
X04948Y04881*
X04947Y04892*
X04943Y04902*
X04936Y0491*
X04928Y04917*
X04918Y04921*
X04907Y04922*
G37*
G36*
X03188Y0433D02*
X03186D01*
X03179Y04326*
X03175Y04319*
Y04317*
X03188*
Y0433*
G37*
G36*
X05502Y04073D02*
X05495Y04072D01*
X05484Y04067*
X05475Y0406*
X05468Y04051*
X05463Y0404*
X05462Y04033*
X05502*
Y04073*
G37*
G36*
X05512D02*
Y04033D01*
X05552*
X05551Y0404*
X05546Y04051*
X05539Y0406*
X0553Y04067*
X05519Y04072*
X05512Y04073*
G37*
G36*
X0366Y04026D02*
X03654Y04025D01*
X03649Y04022*
X03646Y04017*
X03645Y04011*
X03646Y04005*
X03649Y04*
X03654Y03997*
X0366Y03996*
X03666Y03997*
X03671Y04*
X03674Y04005*
X03675Y04011*
X03674Y04017*
X03671Y04022*
X03666Y04025*
X0366Y04026*
G37*
G36*
X04907Y04069D02*
X04896Y04068D01*
X04886Y04064*
X04878Y04057*
X04871Y04049*
X04867Y04039*
X04866Y04028*
X04867Y04017*
X04871Y04007*
X04878Y03999*
X04886Y03992*
X04896Y03988*
X04907Y03987*
X04918Y03988*
X04928Y03992*
X04936Y03999*
X04943Y04007*
X04947Y04017*
X04948Y04028*
X04947Y04039*
X04943Y04049*
X04936Y04057*
X04928Y04064*
X04918Y04068*
X04907Y04069*
G37*
G36*
X05207D02*
X05196Y04068D01*
X05186Y04064*
X05178Y04057*
X05171Y04049*
X05167Y04039*
X05166Y04028*
X05167Y04017*
X05171Y04007*
X05178Y03999*
X05186Y03992*
X05196Y03988*
X05207Y03987*
X05218Y03988*
X05228Y03992*
X05236Y03999*
X05243Y04007*
X05247Y04017*
X05248Y04028*
X05247Y04039*
X05243Y04049*
X05236Y04057*
X05228Y04064*
X05218Y04068*
X05207Y04069*
G37*
G36*
X0472Y04097D02*
X04714Y04096D01*
X04709Y04093*
X04706Y04088*
X04705Y04082*
X04706Y04076*
X04709Y04071*
X04714Y04068*
X0472Y04067*
X04726Y04068*
X04731Y04071*
X04734Y04076*
X04735Y04082*
X04734Y04088*
X04731Y04093*
X04726Y04096*
X0472Y04097*
G37*
G36*
X03834Y04118D02*
X03828Y04117D01*
X03823Y04114*
X0382Y04109*
X03819Y04103*
X0382Y04097*
X03823Y04092*
X03828Y04089*
X03834Y04088*
X0384Y04089*
X03845Y04092*
X03848Y04097*
X03849Y04103*
X03848Y04109*
X03845Y04114*
X0384Y04117*
X03834Y04118*
G37*
G36*
X03497Y04196D02*
X03491Y04195D01*
X03486Y04192*
X03483Y04187*
X03482Y04181*
X03483Y04175*
X03486Y0417*
X03491Y04167*
X03497Y04166*
X03503Y04167*
X03508Y0417*
X03511Y04175*
X03512Y04181*
X03511Y04187*
X03508Y04192*
X03503Y04195*
X03497Y04196*
G37*
G36*
X03724Y04106D02*
X03718Y04105D01*
X03713Y04102*
X0371Y04097*
X03709Y04091*
X0371Y04085*
X03713Y0408*
X03718Y04077*
X03724Y04076*
X0373Y04077*
X03735Y0408*
X03738Y04085*
X03739Y04091*
X03738Y04097*
X03735Y04102*
X0373Y04105*
X03724Y04106*
G37*
G36*
X03599Y04105D02*
X03593Y04104D01*
X03588Y04101*
X03585Y04096*
X03584Y0409*
X03585Y04084*
X03588Y04079*
X03593Y04076*
X03599Y04075*
X03605Y04076*
X0361Y04079*
X03613Y04084*
X03614Y0409*
X03613Y04096*
X0361Y04101*
X03605Y04104*
X03599Y04105*
G37*
G36*
X0366Y04106D02*
X03654Y04105D01*
X03649Y04102*
X03646Y04097*
X03645Y04091*
X03646Y04085*
X03649Y0408*
X03654Y04077*
X0366Y04076*
X03666Y04077*
X03671Y0408*
X03674Y04085*
X03675Y04091*
X03674Y04097*
X03671Y04102*
X03666Y04105*
X0366Y04106*
G37*
G36*
X03595Y03949D02*
X03589Y03948D01*
X03584Y03945*
X03581Y0394*
X0358Y03934*
X03581Y03928*
X03584Y03923*
X03589Y0392*
X03595Y03919*
X03601Y0392*
X03606Y03923*
X03609Y03928*
X0361Y03934*
X03609Y0394*
X03606Y03945*
X03601Y03948*
X03595Y03949*
G37*
G36*
X04513Y03971D02*
X04507Y0397D01*
X04502Y03967*
X04499Y03962*
X04498Y03956*
X04499Y0395*
X04502Y03945*
X04507Y03942*
X04513Y03941*
X04519Y03942*
X04524Y03945*
X04527Y0395*
X04528Y03956*
X04527Y03962*
X04524Y03967*
X04519Y0397*
X04513Y03971*
G37*
G36*
X05091Y03944D02*
X05085Y03943D01*
X0508Y0394*
X05077Y03935*
X05076Y03929*
X05077Y03923*
X0508Y03918*
X05085Y03915*
X05091Y03914*
X05097Y03915*
X05102Y03918*
X05105Y03923*
X05106Y03929*
X05105Y03935*
X05102Y0394*
X05097Y03943*
X05091Y03944*
G37*
G36*
X04441Y03933D02*
X04435Y03932D01*
X0443Y03929*
X04427Y03924*
X04426Y03918*
X04427Y03912*
X0443Y03907*
X04435Y03904*
X04441Y03903*
X04447Y03904*
X04452Y03907*
X04455Y03912*
X04456Y03918*
X04455Y03924*
X04452Y03929*
X04447Y03932*
X04441Y03933*
G37*
G36*
X04636Y03936D02*
X0463Y03935D01*
X04625Y03932*
X04622Y03927*
X04621Y03921*
X04622Y03915*
X04625Y0391*
X0463Y03907*
X04636Y03906*
X04642Y03907*
X04647Y0391*
X0465Y03915*
X04651Y03921*
X0465Y03927*
X04647Y03932*
X04642Y03935*
X04636Y03936*
G37*
G36*
X04745Y03981D02*
X04739Y0398D01*
X04734Y03977*
X04731Y03972*
X0473Y03966*
X04731Y0396*
X04734Y03955*
X04739Y03952*
X04745Y03951*
X04751Y03952*
X04756Y03955*
X04759Y0396*
X0476Y03966*
X04759Y03972*
X04756Y03977*
X04751Y0398*
X04745Y03981*
G37*
G36*
X04307Y04069D02*
X04296Y04068D01*
X04286Y04064*
X04278Y04057*
X04271Y04049*
X04267Y04039*
X04266Y04028*
X04267Y04017*
X04271Y04007*
X04278Y03999*
X04286Y03992*
X04296Y03988*
X04307Y03987*
X04318Y03988*
X04328Y03992*
X04336Y03999*
X04343Y04007*
X04347Y04017*
X04348Y04028*
X04347Y04039*
X04343Y04049*
X04336Y04057*
X04328Y04064*
X04318Y04068*
X04307Y04069*
G37*
G36*
X04607D02*
X04596Y04068D01*
X04586Y04064*
X04578Y04057*
X04571Y04049*
X04567Y04039*
X04566Y04028*
X04567Y04017*
X04571Y04007*
X04578Y03999*
X04586Y03992*
X04596Y03988*
X04607Y03987*
X04618Y03988*
X04628Y03992*
X04636Y03999*
X04643Y04007*
X04647Y04017*
X04648Y04028*
X04647Y04039*
X04643Y04049*
X04636Y04057*
X04628Y04064*
X04618Y04068*
X04607Y04069*
G37*
G36*
X05552Y04023D02*
X05512D01*
Y03983*
X05519Y03984*
X0553Y03989*
X05539Y03996*
X05546Y04005*
X05551Y04016*
X05552Y04023*
G37*
G36*
X04718Y04009D02*
X04712Y04008D01*
X04707Y04005*
X04704Y04*
X04703Y03994*
X04704Y03988*
X04707Y03983*
X04712Y0398*
X04718Y03979*
X04724Y0398*
X04729Y03983*
X04732Y03988*
X04733Y03994*
X04732Y04*
X04729Y04005*
X04724Y04008*
X04718Y04009*
G37*
G36*
X05502Y04023D02*
X05462D01*
X05463Y04016*
X05468Y04005*
X05475Y03996*
X05484Y03989*
X05495Y03984*
X05502Y03983*
Y04023*
G37*
G36*
X05207Y0433D02*
X05196Y04329D01*
X05186Y04325*
X05178Y04318*
X05171Y0431*
X05167Y043*
X05166Y04289*
X05167Y04278*
X05171Y04268*
X05178Y0426*
X05186Y04253*
X05196Y04249*
X05207Y04248*
X05218Y04249*
X05228Y04253*
X05236Y0426*
X05243Y04268*
X05247Y04278*
X05248Y04289*
X05247Y043*
X05243Y0431*
X05236Y04318*
X05228Y04325*
X05218Y04329*
X05207Y0433*
G37*
G36*
X03188Y04307D02*
X03175D01*
Y04305*
X03179Y04298*
X03186Y04294*
X03188*
Y04307*
G37*
G36*
X04907Y0433D02*
X04896Y04329D01*
X04886Y04325*
X04878Y04318*
X04871Y0431*
X04867Y043*
X04866Y04289*
X04867Y04278*
X04871Y04268*
X04878Y0426*
X04886Y04253*
X04896Y04249*
X04907Y04248*
X04918Y04249*
X04928Y04253*
X04936Y0426*
X04943Y04268*
X04947Y04278*
X04948Y04289*
X04947Y043*
X04943Y0431*
X04936Y04318*
X04928Y04325*
X04918Y04329*
X04907Y0433*
G37*
G36*
X04307D02*
X04296Y04329D01*
X04286Y04325*
X04278Y04318*
X04271Y0431*
X04267Y043*
X04266Y04289*
X04267Y04278*
X04271Y04268*
X04278Y0426*
X04286Y04253*
X04296Y04249*
X04307Y04248*
X04318Y04249*
X04328Y04253*
X04336Y0426*
X04343Y04268*
X04347Y04278*
X04348Y04289*
X04347Y043*
X04343Y0431*
X04336Y04318*
X04328Y04325*
X04318Y04329*
X04307Y0433*
G37*
G36*
X04607D02*
X04596Y04329D01*
X04586Y04325*
X04578Y04318*
X04571Y0431*
X04567Y043*
X04566Y04289*
X04567Y04278*
X04571Y04268*
X04578Y0426*
X04586Y04253*
X04596Y04249*
X04607Y04248*
X04618Y04249*
X04628Y04253*
X04636Y0426*
X04643Y04268*
X04647Y04278*
X04648Y04289*
X04647Y043*
X04643Y0431*
X04636Y04318*
X04628Y04325*
X04618Y04329*
X04607Y0433*
G37*
G36*
X03211Y04307D02*
X03198D01*
Y04294*
X032*
X03207Y04298*
X03211Y04305*
Y04307*
G37*
G36*
X03042Y04329D02*
X03036Y04328D01*
X03031Y04325*
X03028Y0432*
X03027Y04314*
X03028Y04308*
X03031Y04303*
X03036Y043*
X03042Y04299*
X03048Y043*
X03053Y04303*
X03056Y04308*
X03057Y04314*
X03056Y0432*
X03053Y04325*
X03048Y04328*
X03042Y04329*
G37*
G36*
X0309Y04339D02*
X03084Y04338D01*
X03079Y04335*
X03076Y0433*
X03075Y04324*
X03076Y04318*
X03079Y04313*
X03084Y0431*
X0309Y04309*
X03096Y0431*
X03101Y04313*
X03104Y04318*
X03105Y04324*
X03104Y0433*
X03101Y04335*
X03096Y04338*
X0309Y04339*
G37*
G36*
X03395Y04326D02*
X03389Y04325D01*
X03384Y04322*
X03381Y04317*
X0338Y04311*
X03381Y04305*
X03384Y043*
X03389Y04297*
X03395Y04296*
X03401Y04297*
X03406Y043*
X03409Y04305*
X0341Y04311*
X03409Y04317*
X03406Y04322*
X03401Y04325*
X03395Y04326*
G37*
G36*
X05502Y04334D02*
X05495Y04333D01*
X05484Y04328*
X05475Y04321*
X05468Y04312*
X05463Y04301*
X05462Y04294*
X05502*
Y04334*
G37*
G36*
X05512D02*
Y04294D01*
X05552*
X05551Y04301*
X05546Y04312*
X05539Y04321*
X0553Y04328*
X05519Y04333*
X05512Y04334*
G37*
G36*
X03848Y04217D02*
X03842Y04216D01*
X03837Y04213*
X03834Y04208*
X03833Y04202*
X03834Y04196*
X03837Y04191*
X03842Y04188*
X03848Y04187*
X03854Y04188*
X03859Y04191*
X03862Y04196*
X03863Y04202*
X03862Y04208*
X03859Y04213*
X03854Y04216*
X03848Y04217*
G37*
G36*
X03764Y04224D02*
X03759Y04223D01*
X03754Y04219*
X0375Y04214*
X03749Y04208*
X0375Y04203*
X03754Y04198*
X03759Y04194*
X03764Y04193*
X0377Y04194*
X03775Y04198*
X03779Y04203*
X0378Y04208*
X03779Y04214*
X03775Y04219*
X0377Y04223*
X03764Y04224*
G37*
G36*
X03688Y04214D02*
X03682Y04213D01*
X03677Y0421*
X03674Y04205*
X03673Y04199*
X03674Y04193*
X03677Y04188*
X03682Y04185*
X03688Y04184*
X03694Y04185*
X03699Y04188*
X03702Y04193*
X03703Y04199*
X03702Y04205*
X03699Y0421*
X03694Y04213*
X03688Y04214*
G37*
G36*
X04085Y04207D02*
X04079Y04206D01*
X04074Y04203*
X04071Y04198*
X0407Y04192*
X04071Y04186*
X04074Y04181*
X04079Y04178*
X04085Y04177*
X04091Y04178*
X04096Y04181*
X04099Y04186*
X041Y04192*
X04099Y04198*
X04096Y04203*
X04091Y04206*
X04085Y04207*
G37*
G36*
X03639Y04214D02*
X03633Y04213D01*
X03628Y0421*
X03625Y04205*
X03624Y04199*
X03625Y04193*
X03628Y04188*
X03633Y04185*
X03639Y04184*
X03645Y04185*
X0365Y04188*
X03653Y04193*
X03654Y04199*
X03653Y04205*
X0365Y0421*
X03645Y04213*
X03639Y04214*
G37*
G36*
X03223Y04274D02*
X03217Y04273D01*
X03212Y0427*
X03209Y04265*
X03208Y04259*
X03209Y04253*
X03212Y04248*
X03217Y04245*
X03223Y04244*
X03229Y04245*
X03234Y04248*
X03237Y04253*
X03238Y04259*
X03237Y04265*
X03234Y0427*
X03229Y04273*
X03223Y04274*
G37*
G36*
X05552Y04284D02*
X05512D01*
Y04244*
X05519Y04245*
X0553Y0425*
X05539Y04257*
X05546Y04266*
X05551Y04277*
X05552Y04284*
G37*
G36*
X03325Y04275D02*
X03319Y04274D01*
X03314Y04271*
X03311Y04266*
X0331Y0426*
X03311Y04254*
X03314Y04249*
X03319Y04246*
X03325Y04245*
X03331Y04246*
X03336Y04249*
X03339Y04254*
X0334Y0426*
X03339Y04266*
X03336Y04271*
X03331Y04274*
X03325Y04275*
G37*
G36*
X05502Y04284D02*
X05462D01*
X05463Y04277*
X05468Y04266*
X05475Y04257*
X05484Y0425*
X05495Y04245*
X05502Y04244*
Y04284*
G37*
G36*
X03273Y04274D02*
X03267Y04273D01*
X03262Y0427*
X03259Y04265*
X03258Y04259*
X03259Y04253*
X03262Y04248*
X03267Y04245*
X03273Y04244*
X03279Y04245*
X03284Y04248*
X03287Y04253*
X03288Y04259*
X03287Y04265*
X03284Y0427*
X03279Y04273*
X03273Y04274*
G37*
G36*
X03374D02*
X03368Y04273D01*
X03363Y0427*
X0336Y04265*
X03359Y04259*
X0336Y04253*
X03363Y04248*
X03368Y04245*
X03374Y04244*
X0338Y04245*
X03385Y04248*
X03388Y04253*
X03389Y04259*
X03388Y04265*
X03385Y0427*
X0338Y04273*
X03374Y04274*
G37*
%LNseniordesign-3*%
%LPD*%
G54D27*
X0471Y03503D03*
G54D28*
X0531Y03503D03*
G54D29*
X0245Y0504D03*
G54D30*
X04538Y03116D03*
X0474Y03115D03*
X0494Y03118D03*
X05141D03*
X05344Y03117D03*
X02776Y0487D03*
X02615Y04891D03*
X03193Y04312D03*
X03493Y03489D03*
G54D31*
X05507Y04881D03*
Y04544D03*
Y04289D03*
Y04028D03*
M02*